<?xml version="1.0" encoding="utf-8"?>
<svg version="1.1" id="enkan" xmlns="http://www.w3.org/2000/svg" xmlns:xlink="http://www.w3.org/1999/xlink" x="0px" y="0px"
	 viewBox="0 0 128 128" style="enable-background:new 0 0 128 128;" xml:space="preserve">
<style type="text/css">
	.st0{fill:#CC3399;}
	.st1{fill:none;}
	.st2{enable-background:new    ;}
</style>
<circle fill="none" stroke="#CC3399" stroke-width="1.2" cx="64.0" cy="64.0" r="50.0"/>
<polygon fill="none" stroke="#CC3399" stroke-width="1.2" points="64.00,14.00 99.36,99.36 14.00,64.00 99.36,28.64 64.00,114.00 28.64,28.64 114.00,64.00 28.64,99.36"/>
<circle fill="none" stroke="#CC3399" stroke-width="3" cx="64" cy="64" r="62"/>
<g class="st2">
	<path class="st0" d="M66.5,5l1,0c0.6,0,1.3,0,1.9,0.1l0,0l-0.3,1.3l-0.2,0l-0.2-0.9l-1.5-0.1l-0.1,2l0.2,0c0.2,0,0.5,0,0.7,0
		c0.1,0,0.1,0,0.1-0.1l0.2-0.5l0.3,0c0,0.4,0,0.7,0,0.8c0,0.2,0,0.5,0,0.8l-0.3,0L68.2,8c0-0.1-0.1-0.1-0.1-0.1c-0.3,0-0.5,0-0.7,0
		l-0.2,0l-0.1,1.3c0,0.3,0,0.6,0,0.8l1.5,0.1l0.5-1l0.2,0l-0.2,1.4l0,0c-0.6,0-1.3-0.1-1.9-0.1l-1,0c-0.3,0-0.7,0-1,0l0-0.2l0.5-0.1
		c0.1,0,0.1-0.1,0.1-0.1c0-0.1,0-0.2,0-0.3c0-0.1,0-0.3,0-0.4L66,6.1c0-0.1,0-0.2,0-0.4c0-0.1,0-0.2,0-0.3c0-0.1,0-0.1-0.1-0.1
		l-0.5-0.2l0-0.2C65.8,5,66.2,5,66.5,5z"/>
</g>
<g class="st2">
	<path class="st0" d="M73,10.7c0,0.1,0,0.1,0.1,0.1l0.5,0.2l0,0.2c-0.3-0.1-0.6-0.1-0.8-0.2c-0.2,0-0.5-0.1-0.9-0.1l0-0.2l0.5,0
		c0.1,0,0.1,0,0.1-0.1c0-0.2,0.1-0.5,0.1-0.8l0.5-3c0-0.3,0.1-0.5,0.1-0.6c0-0.1,0-0.1-0.1-0.1l-0.5-0.2l0-0.2
		c0.4,0.1,0.6,0.1,0.8,0.2c0.2,0,0.5,0.1,0.7,0.1l2,3.6c0.1,0.1,0.2,0.3,0.2,0.5c0-0.2,0.1-0.3,0.1-0.5l0.4-2C76.9,7.2,77,7,77,6.8
		c0-0.1,0-0.1-0.1-0.1l-0.5-0.2l0-0.2c0.3,0.1,0.6,0.1,0.8,0.2c0.2,0,0.5,0.1,0.8,0.1l0,0.2l-0.5,0.1c-0.1,0-0.1,0-0.1,0.1
		c0,0.2-0.1,0.4-0.1,0.6l-0.8,4.2l-0.4,0l-2.3-4.3c-0.1-0.1-0.1-0.3-0.2-0.5c0,0.2-0.1,0.4-0.1,0.5l-0.4,2.4
		C73.1,10.2,73,10.5,73,10.7z"/>
</g>
<g class="st2">
	<path class="st0" d="M82.6,9.1l-1,2.9c0,0.1-0.1,0.3-0.1,0.4s-0.1,0.2-0.1,0.3c0,0.1,0,0.1,0.1,0.2l0.4,0.3l-0.1,0.2
		c-0.3-0.1-0.7-0.2-1.1-0.4c-0.4-0.1-0.8-0.3-1.1-0.4l0-0.2l0.5,0c0.1,0,0.1,0,0.1-0.1c0-0.1,0.1-0.2,0.1-0.3c0-0.1,0.1-0.3,0.1-0.4
		l1-2.9c0-0.1,0.1-0.2,0.1-0.3c0-0.1,0.1-0.2,0.1-0.3c0-0.1,0-0.1,0-0.2l-0.4-0.3l0.1-0.2c0.3,0.1,0.7,0.3,1.1,0.4
		c0.4,0.1,0.8,0.3,1.1,0.3l0,0.2l-0.5,0c-0.1,0-0.1,0-0.1,0.1c0,0.1-0.1,0.2-0.1,0.3C82.7,8.9,82.7,9,82.6,9.1z M82.2,10.7l2.1-1.1
		c0.2-0.1,0.3-0.2,0.4-0.2s0.2-0.1,0.2-0.2c0,0,0-0.1-0.1-0.1l-0.3-0.2l0.1-0.2c0.3,0.1,0.5,0.2,0.8,0.3c0.3,0.1,0.6,0.2,0.9,0.3
		l0,0.2l-0.5,0c-0.1,0-0.3,0-0.4,0.1c-0.1,0-0.2,0.1-0.4,0.2l-1.7,1l0.8,2.9c0,0.1,0.1,0.2,0.1,0.3c0,0.1,0.1,0.1,0.2,0.2l0.3,0.2
		l-0.1,0.2c-0.3-0.1-0.5-0.2-0.8-0.3c-0.3-0.1-0.6-0.2-0.9-0.3c0-0.2-0.1-0.6-0.3-1.2L82.2,10.7z"/>
</g>
<g class="st2">
	<path class="st0" d="M88.5,14.4l-0.6,0.5c-0.1,0.1-0.2,0.2-0.3,0.2s-0.1,0.1-0.1,0.2c0,0,0,0.1,0,0.1c0,0,0,0.1,0.1,0.1l0.3,0.3
		l-0.1,0.2c-0.3-0.2-0.6-0.3-0.8-0.4c-0.2-0.1-0.5-0.2-0.8-0.4l0.1-0.2l0.4,0.1c0.1,0,0.2,0,0.3,0c0.1,0,0.2-0.1,0.3-0.2l3.8-3.3
		l0.4,0.1l-0.6,4.9c0,0.2,0,0.3,0,0.4c0,0.1,0.1,0.2,0.1,0.2l0.3,0.3l-0.1,0.2c-0.3-0.2-0.6-0.3-0.9-0.5c-0.4-0.2-0.8-0.4-1.2-0.6
		l0.1-0.2l0.4,0.1c0.1,0,0.1,0,0.1,0c0,0,0.1,0,0.1-0.1c0,0,0-0.1,0.1-0.2c0-0.1,0-0.2,0-0.3l0.1-0.8L88.5,14.4z M90.2,12.7
		c-0.1,0.1-0.2,0.2-0.3,0.3l-1.1,1l1.2,0.6l0.2-1.5C90.2,13,90.2,12.9,90.2,12.7z"/>
</g>
<g class="st2">
	<path class="st0" d="M94.2,19.1c0,0.1,0,0.1,0,0.2l0.3,0.4l-0.1,0.2c-0.3-0.2-0.5-0.4-0.7-0.5c-0.2-0.1-0.4-0.3-0.7-0.5l0.1-0.2
		l0.5,0.2c0.1,0,0.1,0,0.2,0c0.1-0.2,0.3-0.4,0.4-0.6l1.7-2.5c0.1-0.2,0.3-0.4,0.4-0.5c0-0.1,0-0.1,0-0.2l-0.3-0.4l0.1-0.2
		c0.3,0.2,0.5,0.4,0.7,0.5c0.2,0.1,0.4,0.3,0.6,0.4l0.3,4.1c0,0.2,0,0.3,0,0.5c0.1-0.1,0.2-0.3,0.3-0.4l1.1-1.7
		c0.1-0.2,0.3-0.4,0.4-0.5c0,0,0-0.1,0-0.2L99,16.7l0.1-0.2c0.3,0.2,0.5,0.4,0.7,0.5c0.2,0.1,0.4,0.3,0.7,0.5l-0.1,0.2l-0.5-0.2
		c-0.1,0-0.1,0-0.1,0.1c-0.1,0.1-0.2,0.3-0.4,0.5L97,21.6l-0.4-0.2l-0.3-4.9c0-0.1,0-0.3,0-0.5c-0.1,0.2-0.2,0.3-0.3,0.4l-1.4,2
		C94.4,18.7,94.3,18.9,94.2,19.1z"/>
</g>
<g class="st2">
	<path class="st0" d="M106.9,29.7c-0.1,0.1-0.2,0.2-0.3,0.3c-0.1,0.1-0.2,0.2-0.3,0.2c0,0-0.1,0.1,0,0.2l0.2,0.4l-0.1,0.1
		c-0.2-0.3-0.5-0.6-0.8-0.9c-0.3-0.3-0.6-0.6-0.8-0.9l0.1-0.1l0.4,0.3c0.1,0,0.1,0,0.2,0c0.1-0.1,0.2-0.1,0.3-0.2
		c0.1-0.1,0.2-0.2,0.3-0.3l2.3-2c0.1-0.1,0.2-0.2,0.3-0.2c0.1-0.1,0.2-0.1,0.2-0.2c0,0,0.1-0.1,0-0.2l-0.2-0.5l0.1-0.1
		c0.2,0.3,0.5,0.6,0.8,0.9c0.3,0.3,0.6,0.6,0.8,0.9l-0.1,0.1l-0.4-0.3c-0.1,0-0.1,0-0.2,0c-0.1,0.1-0.1,0.1-0.2,0.2
		c-0.1,0.1-0.2,0.1-0.3,0.2L106.9,29.7z"/>
</g>
<g class="st2">
	<path class="st0" d="M113.5,32.5c0-0.2-0.1-0.3-0.2-0.5c-0.2-0.2-0.4-0.4-0.6-0.4s-0.5,0-0.7,0.1c-0.1,0.1-0.2,0.2-0.3,0.3
		c-0.1,0.1-0.1,0.2-0.1,0.4s0,0.3,0,0.4c0,0.1,0,0.3,0.1,0.5c0,0.2,0,0.3,0.1,0.5c0,0.2,0,0.4,0,0.5c0,0.2-0.1,0.3-0.2,0.5
		c-0.1,0.2-0.2,0.3-0.4,0.4c-0.4,0.3-0.9,0.4-1.4,0.2c-0.5-0.2-0.9-0.5-1.2-1c-0.3-0.4-0.5-0.8-0.6-1.3l0,0l1.3-0.6l0.2,0.2
		l-0.8,0.9c0,0.2,0.1,0.4,0.2,0.6c0.2,0.3,0.4,0.4,0.7,0.5c0.2,0.1,0.5,0,0.7-0.1c0.1-0.1,0.2-0.2,0.3-0.3c0.1-0.1,0.1-0.2,0.1-0.4
		c0-0.1,0-0.3,0-0.4c0-0.1,0-0.3-0.1-0.5c0-0.2,0-0.3-0.1-0.5c0-0.2,0-0.4,0-0.5c0-0.2,0.1-0.3,0.2-0.5c0.1-0.2,0.2-0.3,0.4-0.4
		c0.4-0.3,0.8-0.3,1.3-0.2c0.5,0.1,0.8,0.5,1.2,1c0.2,0.3,0.4,0.7,0.6,1.2l0,0l-1.2,0.5l-0.1-0.2L113.5,32.5z"/>
</g>
<g class="st2">
	<path class="st0" d="M116.3,45.9l-0.8,0c-0.2,0-0.3,0-0.4,0c-0.1,0-0.2,0-0.2,0c0,0-0.1,0-0.1,0.1c0,0,0,0.1,0,0.1l0,0.4l-0.2,0.1
		c-0.1-0.4-0.2-0.6-0.3-0.9c-0.1-0.2-0.2-0.5-0.3-0.8l0.2-0.1l0.2,0.4c0.1,0.1,0.1,0.1,0.2,0.2c0.1,0,0.2,0,0.3,0l5,0.3l0.2,0.4
		l-3.9,3.1c-0.1,0.1-0.2,0.2-0.3,0.3s-0.1,0.2-0.1,0.3l0,0.4l-0.2,0.1c-0.1-0.3-0.2-0.7-0.3-1c-0.2-0.4-0.3-0.9-0.5-1.3l0.2-0.1
		l0.2,0.3c0,0,0.1,0.1,0.1,0.1s0.1,0,0.1,0c0,0,0.1-0.1,0.2-0.1c0.1-0.1,0.2-0.1,0.3-0.2l0.6-0.5L116.3,45.9z M118.7,46
		c-0.1,0-0.3,0-0.4,0l-1.5,0l0.4,1.2l1.2-0.9C118.5,46.2,118.6,46.1,118.7,46z"/>
</g>
<g class="st2">
	<path class="st0" d="M117,53.3c-0.1,0-0.1,0.1-0.1,0.1l0,0.5l-0.2,0c-0.1-0.3-0.1-0.6-0.1-0.8c0-0.2-0.1-0.5-0.2-0.8l0.2-0.1
		l0.2,0.5c0,0.1,0.1,0.1,0.1,0.1c0.2,0,0.5-0.1,0.8-0.1l3-0.6c0.3,0,0.5-0.1,0.6-0.1c0.1,0,0.1-0.1,0.1-0.1l0.1-0.5l0.2,0
		c0.1,0.4,0.1,0.6,0.1,0.8c0,0.2,0.1,0.5,0.1,0.7l-2.7,3.1c-0.1,0.1-0.2,0.3-0.3,0.4c0.2,0,0.3-0.1,0.5-0.1l2-0.4
		c0.2,0,0.5-0.1,0.6-0.1c0.1,0,0.1-0.1,0.1-0.1l0-0.5l0.2,0c0.1,0.4,0.1,0.6,0.1,0.9c0,0.2,0.1,0.5,0.2,0.8l-0.2,0.1l-0.2-0.5
		c0-0.1-0.1-0.1-0.1-0.1c-0.2,0-0.4,0.1-0.6,0.1l-4.2,0.8l-0.1-0.4l3.2-3.7c0.1-0.1,0.2-0.2,0.3-0.4c-0.2,0-0.4,0.1-0.5,0.1
		l-2.4,0.5C117.5,53.2,117.2,53.2,117,53.3z"/>
</g>
<g class="st2">
	<path class="st0" d="M122.8,69.4l-0.1,1c-0.1,0.6-0.1,1.3-0.2,1.9l0,0l-1.3-0.4l0-0.2l1-0.2l0.1-1.5l-2-0.2l0,0.2
		c0,0.2,0,0.5-0.1,0.7c0,0.1,0,0.1,0.1,0.1l0.5,0.2l0,0.3c-0.4,0-0.6-0.1-0.8-0.1c-0.2,0-0.5,0-0.8-0.1l0-0.3l0.6-0.1
		c0.1,0,0.1-0.1,0.1-0.1c0-0.3,0.1-0.5,0.1-0.7l0-0.2l-1.3-0.1c-0.3,0-0.6,0-0.8-0.1l-0.1,1.5l1,0.6l0,0.2l-1.4-0.2l0,0
		c0.1-0.6,0.1-1.3,0.2-1.9l0.1-1c0-0.3,0.1-0.7,0.1-1l0.2,0l0.1,0.5c0,0.1,0,0.1,0.1,0.1c0.1,0,0.2,0,0.3,0c0.1,0,0.3,0,0.4,0
		l3.1,0.3c0.1,0,0.2,0,0.4,0c0.1,0,0.2,0,0.3,0c0.1,0,0.1,0,0.1-0.1l0.2-0.5l0.2,0C122.8,68.7,122.8,69.1,122.8,69.4z"/>
</g>
<g class="st2">
	<path class="st0" d="M115.4,79.6c0.1-0.3,0.2-0.7,0.3-1.2c0.1-0.4,0.2-0.8,0.3-1.3l0.2,0l0,0.4c0,0.1,0,0.1,0,0.1c0,0,0,0,0.1,0.1
		c0.1,0,0.1,0,0.2,0c0.1,0,0.2-0.1,0.3-0.1l1.5-0.5l-1-1c-0.1-0.1-0.2-0.2-0.3-0.3c-0.1-0.1-0.2-0.1-0.2-0.1c0,0-0.1,0-0.1,0
		c0,0-0.1,0-0.1,0.1l-0.2,0.3l-0.2,0c0.1-0.3,0.1-0.6,0.2-0.9c0.1-0.3,0.1-0.6,0.2-0.9l0.2,0l0,0.5c0,0.1,0,0.2,0.1,0.3
		c0,0.1,0.1,0.2,0.2,0.3l1.6,1.7l2.3-0.8c0.1-0.1,0.3-0.1,0.3-0.2c0.1,0,0.1-0.1,0.2-0.2l0.2-0.4l0.2,0c-0.1,0.4-0.2,0.8-0.3,1.2
		c-0.1,0.4-0.2,0.8-0.3,1.3l-0.2,0l0-0.4c0-0.1,0-0.1,0-0.1c0,0,0,0-0.1-0.1c-0.1,0-0.1,0-0.2,0c-0.1,0-0.2,0.1-0.3,0.1l-1.2,0.4
		l0.8,0.8c0.1,0.1,0.2,0.2,0.3,0.3c0.1,0.1,0.2,0.1,0.2,0.1c0.1,0,0.1,0,0.2-0.1l0.2-0.3l0.2,0c-0.1,0.3-0.1,0.6-0.2,0.9
		c-0.1,0.3-0.1,0.6-0.2,0.9l-0.2,0l0-0.4c0-0.1,0-0.2-0.1-0.3c0-0.1-0.1-0.2-0.3-0.3l-1.3-1.4l-2.6,0.9C116.2,79,116,79,116,79
		c-0.1,0-0.1,0.1-0.2,0.2l-0.2,0.4L115.4,79.6z"/>
</g>
<g class="st2">
	<path class="st0" d="M115.2,83.7c-0.1-0.1-0.3-0.1-0.4-0.1c-0.1,0-0.2-0.1-0.3-0.1c-0.1,0-0.1,0-0.2,0.1L114,84l-0.2-0.1
		c0.1-0.4,0.3-0.8,0.5-1.2c0.2-0.4,0.3-0.8,0.4-1.1l0.2,0l0,0.5c0,0.1,0,0.1,0.1,0.1c0.1,0,0.2,0.1,0.3,0.1c0.1,0,0.3,0.1,0.4,0.1
		l2.9,1.1c0.1,0,0.2,0.1,0.3,0.1c0.1,0,0.2,0.1,0.3,0.1c0.1,0,0.1,0,0.2,0l0.3-0.4l0.2,0.1c-0.1,0.3-0.3,0.7-0.4,1
		c-0.1,0.2-0.2,0.4-0.2,0.7c-0.1,0.2-0.1,0.4-0.2,0.6c-0.2,0.7-0.5,1.1-0.9,1.4c-0.4,0.3-0.7,0.3-1.2,0.1c-0.5-0.2-0.9-0.5-1-1
		c-0.2-0.5-0.1-1,0.1-1.6c0.1-0.2,0.1-0.4,0.2-0.5L115.2,83.7z M116.5,84.2c-0.1,0.1-0.1,0.3-0.2,0.4c-0.1,0.3-0.1,0.6,0,0.8
		c0.1,0.2,0.4,0.4,0.8,0.6c0.4,0.1,0.7,0.2,0.9,0.1c0.2-0.1,0.4-0.3,0.6-0.6c0-0.1,0.1-0.3,0.1-0.4L116.5,84.2z"/>
</g>
<g class="st2">
	<path class="st0" d="M114.9,91.6l-2.7-1.4c-0.2-0.1-0.5-0.3-0.7-0.4l-0.7,1.3l0.7,1l-0.1,0.2l-1.3-0.8l0,0c0.3-0.6,0.6-1.1,0.9-1.6
		l0.4-0.8c0.2-0.3,0.3-0.7,0.5-0.9l0.2,0.1l-0.1,0.5c0,0.1,0,0.1,0.1,0.1c0.1,0.1,0.2,0.1,0.3,0.2s0.2,0.1,0.4,0.2l2.7,1.4
		c0.1,0.1,0.2,0.1,0.3,0.2c0.1,0,0.2,0.1,0.3,0.1c0.1,0,0.1,0,0.2,0l0.4-0.4l0.2,0.1c-0.2,0.3-0.3,0.6-0.5,1c-0.2,0.4-0.4,0.7-0.5,1
		l-0.2-0.1l0.1-0.5c0-0.1,0-0.1-0.1-0.1c-0.1,0-0.2-0.1-0.3-0.2C115,91.6,114.9,91.6,114.9,91.6z"/>
</g>
<g class="st2">
	<path class="st0" d="M108.7,95.8c-0.1-0.1-0.2-0.2-0.4-0.2c-0.1-0.1-0.2-0.1-0.3-0.2c-0.1,0-0.1,0-0.2,0l-0.4,0.3l-0.2-0.1
		c0.2-0.3,0.4-0.6,0.7-1c0.3-0.4,0.5-0.7,0.7-1l0.2,0.1l-0.2,0.5c0,0.1,0,0.1,0,0.2c0.1,0.1,0.2,0.1,0.3,0.2
		c0.1,0.1,0.2,0.2,0.4,0.2l2.6,1.7c0.1,0.1,0.2,0.1,0.3,0.2s0.2,0.1,0.2,0.2c0.1,0,0.1,0,0.2,0l0.4-0.3l0.2,0.1
		c-0.2,0.3-0.4,0.6-0.7,1c-0.2,0.4-0.5,0.7-0.7,1l-0.2-0.1l0.2-0.5c0-0.1,0-0.1,0-0.1c-0.1-0.1-0.2-0.1-0.2-0.2
		c-0.1-0.1-0.2-0.1-0.3-0.2L108.7,95.8z"/>
</g>
<g class="st2">
	<path class="st0" d="M105.9,103.5l0.1-0.2l1,0.5c0.2-0.1,0.3-0.3,0.5-0.4c0.4-0.4,0.5-0.9,0.4-1.4c-0.1-0.5-0.4-1-1-1.4
		c-0.6-0.5-1.1-0.7-1.7-0.7c-0.6,0-1.1,0.2-1.5,0.7c-0.2,0.3-0.4,0.6-0.6,1l-0.2-0.1c0.1-0.6,0.3-1.2,0.7-1.7c0.5-0.6,1.2-1,1.9-1.1
		c0.7-0.1,1.4,0.2,2,0.7c0.7,0.6,1,1.2,1,2s-0.3,1.5-0.9,2.2c-0.3,0.3-0.6,0.7-1,1l0,0L105.9,103.5z"/>
</g>
<g class="st2">
	<path class="st0" d="M100.3,105c-0.1-0.1-0.2-0.2-0.3-0.3c-0.1-0.1-0.2-0.2-0.2-0.2c0,0-0.1,0-0.2,0l-0.4,0.2l-0.1-0.1
		c0.3-0.2,0.6-0.5,0.9-0.8c0.3-0.3,0.6-0.6,0.9-0.8l0.1,0.1l-0.3,0.5c0,0.1,0,0.1,0,0.2c0.1,0.1,0.1,0.2,0.2,0.3s0.2,0.2,0.3,0.3
		l2.1,2.2c0.1,0.1,0.2,0.2,0.2,0.3c0.1,0.1,0.1,0.1,0.2,0.2c0,0,0.1,0.1,0.2,0l0.5-0.2l0.1,0.1c-0.3,0.2-0.6,0.5-0.9,0.8
		c-0.3,0.3-0.6,0.6-0.9,0.8l-0.1-0.1l0.3-0.5c0-0.1,0-0.1,0-0.2c-0.1-0.1-0.1-0.1-0.2-0.2c-0.1-0.1-0.2-0.2-0.2-0.3L100.3,105z"/>
</g>
<g class="st2">
	<path class="st0" d="M95.2,107.5c0.4-0.3,0.7-0.5,1-0.8l0.1,0.1l-0.4,0.5c0,0.1,0,0.1,0,0.2c0.1,0.2,0.3,0.4,0.4,0.6l2.3,3l0.9-0.7
		l-0.3-1l0.2-0.2l0.9,1.1l0,0c-0.5,0.4-1,0.7-1.5,1.1l-0.9,0.6c-0.5,0.3-0.9,0.7-1.5,1.1l0,0l-0.6-1.3l0.2-0.2l0.8,0.7l0.9-0.7
		l-2.3-3c-0.2-0.2-0.3-0.4-0.5-0.6c0,0-0.1-0.1-0.2,0l-0.6,0.2l-0.1-0.1C94.6,108,94.9,107.8,95.2,107.5z"/>
</g>
<g class="st2">
	<path class="st0" d="M83.9,115.5l0-0.8c0-0.2,0-0.3,0-0.4c0-0.1,0-0.2,0-0.2c0,0,0-0.1-0.1-0.1c0,0-0.1,0-0.1,0l-0.4,0l-0.1-0.2
		c0.4-0.1,0.6-0.2,0.9-0.3c0.2-0.1,0.5-0.2,0.8-0.3l0.1,0.2l-0.3,0.3c-0.1,0.1-0.1,0.1-0.2,0.2c0,0.1,0,0.2,0,0.3l-0.1,5.1l-0.4,0.2
		l-3.2-3.8c-0.1-0.1-0.2-0.2-0.3-0.3c-0.1,0-0.2-0.1-0.3,0l-0.4,0l-0.1-0.2c0.3-0.1,0.7-0.2,1-0.4c0.4-0.2,0.9-0.3,1.3-0.5l0.1,0.2
		l-0.3,0.2c0,0-0.1,0.1-0.1,0.1c0,0,0,0.1,0,0.1c0,0,0.1,0.1,0.1,0.2c0.1,0.1,0.1,0.2,0.2,0.3l0.5,0.6L83.9,115.5z M83.9,117.9
		c0-0.1,0-0.3,0-0.4l0-1.5l-1.2,0.5l0.9,1.1C83.8,117.7,83.9,117.8,83.9,117.9z"/>
</g>
<g class="st2">
	<path class="st0" d="M76.6,116.5c0-0.1-0.1-0.1-0.1-0.1l-0.5,0l-0.1-0.2c0.3-0.1,0.6-0.1,0.8-0.2c0.2,0,0.5-0.1,0.8-0.2l0.1,0.2
		l-0.5,0.3c-0.1,0-0.1,0.1-0.1,0.1c0,0.2,0.1,0.5,0.2,0.8l0.7,3c0.1,0.2,0.1,0.5,0.1,0.6c0,0.1,0.1,0.1,0.1,0.1l0.5,0l0.1,0.2
		c-0.4,0.1-0.6,0.1-0.8,0.2c-0.2,0.1-0.5,0.1-0.7,0.2l-3.2-2.6c-0.1-0.1-0.3-0.2-0.4-0.3c0,0.2,0.1,0.3,0.1,0.5l0.4,2
		c0.1,0.2,0.1,0.5,0.1,0.6c0,0.1,0.1,0.1,0.1,0.1l0.5,0l0.1,0.2c-0.3,0.1-0.6,0.1-0.8,0.2c-0.2,0-0.5,0.1-0.8,0.2l-0.1-0.2l0.5-0.3
		c0.1,0,0.1-0.1,0.1-0.1c0-0.2-0.1-0.4-0.1-0.6l-0.9-4.2l0.4-0.1l3.8,3c0.1,0.1,0.2,0.2,0.4,0.3c0-0.2-0.1-0.4-0.1-0.5l-0.5-2.4
		C76.7,116.9,76.7,116.7,76.6,116.5z"/>
</g>
<g class="st2">
	<path class="st0" d="M68.8,117.3c0.3,0,0.7-0.1,1-0.1l0,0.2l-0.5,0.2c-0.1,0-0.1,0.1-0.1,0.1c0,0.1,0,0.2,0,0.3c0,0.1,0,0.3,0,0.4
		l0.2,3.1c0,0.1,0,0.2,0,0.4c0,0.1,0,0.2,0,0.3c0,0.1,0,0.1,0.1,0.1l0.5,0.1l0,0.2c-0.4,0-0.7,0-1,0.1c-0.3,0-0.5,0-0.8,0.1
		c-0.3,0-0.5,0.1-0.8,0.1c-1,0.1-1.7-0.1-2.2-0.5c-0.5-0.4-0.8-1-0.9-1.8c-0.1-0.9,0.1-1.7,0.6-2.3s1.2-0.9,2.2-1c0.3,0,0.5,0,0.7,0
		C68.3,117.3,68.5,117.3,68.8,117.3z M68.1,117.7c-0.1,0-0.2,0-0.4,0c-0.1,0-0.2,0-0.4,0c-0.6,0-1,0.3-1.2,0.7
		c-0.3,0.4-0.4,1-0.3,1.8c0.1,0.8,0.2,1.4,0.5,1.7c0.3,0.4,0.8,0.5,1.3,0.5c0.2,0,0.5,0,0.7-0.1L68.1,117.7z"/>
</g>
<g class="st2">
	<path class="st0" d="M50.3,120.9c0.1,0.1,0.3,0.2,0.5,0.2c0.3,0.1,0.5,0,0.7-0.1s0.4-0.3,0.4-0.5c0-0.1,0-0.3,0-0.4
		c0-0.1-0.1-0.2-0.2-0.3c-0.1-0.1-0.2-0.2-0.3-0.3c-0.1-0.1-0.2-0.2-0.4-0.3c-0.1-0.1-0.3-0.2-0.4-0.3c-0.1-0.1-0.3-0.3-0.4-0.4
		c-0.1-0.1-0.2-0.3-0.2-0.5s0-0.4,0-0.6c0.1-0.5,0.4-0.9,0.8-1.1s1-0.3,1.6-0.1c0.5,0.1,0.9,0.3,1.3,0.5l0,0l-0.5,1.3l-0.2,0l0-1.2
		c-0.2-0.1-0.4-0.2-0.6-0.2c-0.3-0.1-0.6,0-0.8,0.1c-0.2,0.1-0.4,0.3-0.4,0.6c0,0.2,0,0.3,0,0.4c0,0.1,0.1,0.2,0.2,0.3
		c0.1,0.1,0.2,0.2,0.3,0.3c0.1,0.1,0.2,0.2,0.4,0.3c0.1,0.1,0.3,0.2,0.4,0.3c0.1,0.1,0.3,0.2,0.4,0.4s0.2,0.3,0.2,0.5
		c0,0.2,0,0.4,0,0.6c-0.1,0.5-0.4,0.8-0.8,1c-0.4,0.2-0.9,0.3-1.5,0.1c-0.4-0.1-0.8-0.2-1.2-0.4l0,0l0.5-1.2l0.2,0L50.3,120.9z"/>
</g>
<g class="st2">
	<path class="st0" d="M45.9,115.7c0-0.1,0.1-0.3,0.1-0.4c0-0.1,0.1-0.2,0.1-0.3c0-0.1,0-0.1-0.1-0.2l-0.4-0.3l0-0.2
		c0.3,0.1,0.7,0.2,1.1,0.4c0.4,0.1,0.8,0.3,1.2,0.4l0,0.2l-0.5,0c-0.1,0-0.1,0-0.1,0.1c0,0.1-0.1,0.2-0.1,0.3c0,0.1-0.1,0.3-0.1,0.4
		l-0.9,2.9c0,0.1-0.1,0.2-0.1,0.3c0,0.1-0.1,0.2-0.1,0.3c0,0.1,0,0.1,0,0.1l0.4,0.3l0,0.2c-0.3-0.1-0.7-0.2-1.1-0.4
		c-0.4-0.1-0.8-0.3-1.2-0.4l0-0.2l0.5,0c0.1,0,0.1,0,0.1-0.1c0-0.1,0.1-0.2,0.1-0.3s0.1-0.2,0.1-0.3L45.9,115.7z"/>
</g>
<g class="st2">
	<path class="st0" d="M36.6,116.2c-0.3-0.2-0.6-0.3-0.9-0.4c-0.2-0.1-0.5-0.2-0.8-0.4l0.1-0.2l0.5,0.1c0.1,0,0.1,0,0.1-0.1
		c0.1-0.2,0.2-0.3,0.3-0.6l1.3-2.8c0.1-0.3,0.2-0.5,0.3-0.7c0-0.1,0-0.1,0-0.2l-0.4-0.3l0.1-0.2c0.3,0.2,0.7,0.3,1.1,0.5
		c0.4,0.2,0.7,0.3,1,0.5l-0.1,0.2l-0.5-0.1c-0.1,0-0.1,0-0.1,0.1c-0.1,0.2-0.2,0.4-0.3,0.7l-1.1,2.2c-0.1,0.1-0.2,0.4-0.3,0.7
		c0.2-0.2,0.4-0.3,0.5-0.5l3-2.7l0.3,0.1l-0.2,3.9c0,0.2,0,0.5-0.1,0.7c0.2-0.3,0.3-0.6,0.3-0.7l1-2.2c0.1-0.3,0.2-0.5,0.3-0.7
		c0-0.1,0-0.1,0-0.2l-0.3-0.3l0.1-0.2c0.3,0.1,0.5,0.3,0.7,0.3c0.2,0.1,0.5,0.2,0.8,0.4l-0.1,0.2l-0.5-0.1c-0.1,0-0.1,0-0.1,0.1
		c-0.1,0.2-0.2,0.4-0.3,0.7L41,117c-0.1,0.2-0.2,0.4-0.3,0.6c0,0.1,0,0.1,0,0.2l0.4,0.4l-0.1,0.2c-0.4-0.2-0.7-0.3-0.9-0.4
		c-0.3-0.1-0.5-0.2-0.8-0.4l0.2-3.6c0-0.2,0-0.3,0-0.4c-0.1,0.1-0.2,0.2-0.3,0.3L36.6,116.2z"/>
</g>
<g class="st2">
	<path class="st0" d="M32.9,109c0.1-0.1,0.2-0.2,0.2-0.3c0.1-0.1,0.1-0.2,0.2-0.3c0-0.1,0-0.1,0-0.2l-0.4-0.5l0.1-0.2
		c0.3,0.2,0.7,0.5,1,0.7c0.4,0.3,0.7,0.5,1,0.7l-0.1,0.2l-0.5-0.2c-0.1,0-0.1,0-0.2,0c-0.1,0.1-0.1,0.2-0.2,0.3
		c-0.1,0.1-0.2,0.2-0.2,0.3l-1.7,2.5c-0.1,0.1-0.1,0.2-0.2,0.3c-0.1,0.1-0.1,0.2-0.2,0.2c0,0.1,0,0.1,0,0.2l0.3,0.4l-0.1,0.2
		c-0.3-0.2-0.6-0.4-0.9-0.6c-0.2-0.1-0.4-0.3-0.6-0.4c-0.2-0.1-0.4-0.2-0.5-0.3c-0.6-0.4-0.9-0.8-1.1-1.2c-0.2-0.4-0.1-0.8,0.2-1.2
		c0.3-0.5,0.7-0.7,1.2-0.8c0.5,0,1,0.1,1.6,0.5c0.2,0.1,0.3,0.2,0.5,0.4L32.9,109z M32.1,110.2c-0.1-0.1-0.2-0.2-0.3-0.3
		c-0.3-0.2-0.5-0.2-0.8-0.2c-0.3,0.1-0.5,0.3-0.7,0.6c-0.2,0.3-0.3,0.6-0.3,0.9c0,0.3,0.2,0.5,0.5,0.7c0.1,0.1,0.2,0.2,0.4,0.2
		L32.1,110.2z"/>
</g>
<g class="st2">
	<path class="st0" d="M25.3,106.9l2-2.3c0.2-0.2,0.4-0.4,0.5-0.6l-1.1-1l-1.1,0.5l-0.2-0.1l1.1-1.1l0,0c0.5,0.4,0.9,0.8,1.4,1.2
		l0.7,0.6c0.3,0.3,0.6,0.5,0.8,0.7l-0.1,0.2l-0.5-0.2c-0.1,0-0.1,0-0.2,0c-0.1,0.1-0.1,0.2-0.2,0.3c-0.1,0.1-0.2,0.2-0.3,0.3l-2,2.3
		c-0.1,0.1-0.2,0.2-0.2,0.3c-0.1,0.1-0.1,0.2-0.2,0.2c0,0.1,0,0.1,0,0.2l0.3,0.4l-0.1,0.2c-0.2-0.2-0.5-0.5-0.9-0.8
		c-0.3-0.3-0.6-0.5-0.9-0.8l0.1-0.2l0.5,0.2c0.1,0,0.1,0,0.2,0c0.1-0.1,0.2-0.2,0.3-0.3C25.2,107,25.3,106.9,25.3,106.9z"/>
</g>
<g class="st2">
	<path class="st0" d="M20.1,103.2l-0.6-0.7c-0.4-0.5-0.9-0.9-1.3-1.4l0,0l1.1-0.7l0.2,0.1l-0.5,0.8l1,1.1l1.5-1.4l-0.1-0.2
		c-0.1-0.2-0.3-0.3-0.5-0.5c0,0-0.1-0.1-0.2,0l-0.5,0.2l-0.2-0.2c0.3-0.2,0.5-0.4,0.6-0.5c0.1-0.1,0.3-0.3,0.6-0.6l0.2,0.2l-0.3,0.5
		c0,0.1,0,0.1,0,0.2c0.2,0.2,0.3,0.4,0.5,0.6l0.1,0.2l1-0.9c0.2-0.2,0.4-0.4,0.6-0.6l-1-1.2l-1.1,0.3L21,98.3l1.1-0.9l0,0
		c0.4,0.5,0.8,1,1.2,1.4l0.7,0.8c0.2,0.2,0.5,0.5,0.7,0.8l-0.1,0.1l-0.5-0.3c-0.1,0-0.1,0-0.2,0c-0.1,0.1-0.2,0.1-0.3,0.2
		c-0.1,0.1-0.2,0.2-0.3,0.3l-2.3,2c-0.1,0.1-0.2,0.2-0.3,0.2c-0.1,0.1-0.1,0.1-0.2,0.2c0,0-0.1,0.1,0,0.2l0.2,0.5l-0.1,0.1
		C20.5,103.7,20.3,103.4,20.1,103.2z"/>
</g>
<g class="st2">
	<path class="st0" d="M11.7,91.1c-0.2-0.3-0.3-0.7-0.5-1.1c-0.2-0.4-0.4-0.7-0.6-1.1l0.2-0.1l0.4,0.4c0,0.1,0.1,0.1,0.2,0
		c0.1,0,0.2-0.1,0.3-0.1c0.1,0,0.2-0.1,0.3-0.2l3.1-1.6c0.2-0.1,0.4-0.2,0.6-0.3C15.8,87,16,87,16.1,87c0.2,0,0.3,0,0.5,0
		c0.2,0,0.3,0.1,0.5,0.2c0.2,0.1,0.3,0.2,0.5,0.4c0.2,0.2,0.4,0.4,0.5,0.6L18,88.3c-0.2-0.2-0.4-0.3-0.6-0.3
		c-0.2-0.1-0.4-0.1-0.6-0.1c-0.2,0-0.4,0.1-0.6,0.1c-0.2,0.1-0.4,0.2-0.7,0.3L12.4,90c-0.1,0.1-0.2,0.1-0.3,0.2s-0.2,0.1-0.3,0.1
		c-0.1,0-0.1,0.1-0.1,0.1l0.1,0.5L11.7,91.1z"/>
</g>
<g class="st2">
	<path class="st0" d="M11.3,85.1c-0.4-0.4-0.7-0.9-0.9-1.3c-0.2-0.4-0.2-0.8-0.1-1.1s0.3-0.5,0.7-0.6l1.5-0.6c0.1,0,0.2-0.1,0.3-0.1
		c0.1,0,0.1-0.1,0.1-0.1c0,0,0-0.1,0-0.2c0-0.1,0-0.2-0.1-0.3l0.2-0.1c0.2,0.3,0.4,0.6,0.5,0.8c0.1,0.3,0.1,0.6-0.1,0.8
		c0.4,0.2,0.6,0.5,0.8,0.8c0.1,0.3,0.2,0.6,0.1,0.9c-0.1,0.3-0.3,0.5-0.6,0.6c-0.4,0.1-0.7,0.1-1-0.2c-0.3-0.3-0.6-0.8-0.9-1.5
		L11.5,83c-0.3,0.1-0.4,0.2-0.5,0.4c-0.1,0.2-0.1,0.4,0,0.7c0.1,0.2,0.3,0.5,0.5,0.8L11.3,85.1z M12.1,82.8c0.1,0.4,0.3,0.6,0.5,0.7
		c0.2,0.1,0.4,0.1,0.6,0c0.2-0.1,0.3-0.2,0.4-0.3c0-0.1,0-0.3,0-0.5c-0.1-0.2-0.2-0.3-0.3-0.4L12.1,82.8z"/>
</g>
<g class="st2">
	<path class="st0" d="M9.1,79.7c-0.1-0.3-0.2-0.7-0.3-1c-0.1-0.3-0.2-0.7-0.3-1l0.2-0.1l0.2,0.4c0.4-0.3,0.9-0.6,1.4-1
		c0.1-0.1,0.3-0.2,0.4-0.3c-0.2,0-0.4,0-0.5-0.1c-0.6-0.1-1.1-0.1-1.7-0.2l0,0.4l-0.2,0.1c0-0.2-0.1-0.4-0.2-0.7
		C8.1,76,8.1,75.8,8,75.6l0.2-0.1l0.2,0.4c0,0.1,0.1,0.1,0.2,0.1c0.5,0.1,1.1,0.2,1.8,0.3c0.7,0.1,1.2,0.2,1.6,0.2l0.2,0.5
		c-0.3,0.2-0.8,0.6-1.3,1s-1,0.8-1.4,1.1c-0.1,0.1-0.1,0.1-0.1,0.2l0,0.4L9.1,79.7z"/>
</g>
<g class="st2">
	<path class="st0" d="M7.8,72.7c-0.3-0.5-0.5-1-0.6-1.5c-0.1-0.5,0-0.8,0.2-1.1c0.2-0.3,0.5-0.4,0.8-0.5l1.6-0.2
		c0.1,0,0.2,0,0.3-0.1c0.1,0,0.1-0.1,0.2-0.1c0,0,0.1-0.1,0.1-0.2c0-0.1,0-0.2,0-0.3l0.2,0c0.2,0.3,0.3,0.6,0.3,0.9
		c0,0.3-0.1,0.6-0.3,0.7c0.3,0.3,0.5,0.6,0.6,1c0.1,0.4,0,0.7-0.1,0.9c-0.1,0.3-0.4,0.4-0.7,0.5c-0.4,0.1-0.7-0.1-1-0.4
		c-0.2-0.3-0.4-0.9-0.5-1.6l-0.3,0c-0.3,0-0.5,0.1-0.6,0.3c-0.1,0.2-0.1,0.4-0.1,0.7c0,0.3,0.1,0.6,0.3,0.9L7.8,72.7z M9.2,70.6
		c0.1,0.4,0.1,0.7,0.3,0.8c0.1,0.2,0.3,0.2,0.6,0.2c0.2,0,0.4-0.1,0.5-0.2s0.1-0.3,0.1-0.5c0-0.2-0.1-0.3-0.2-0.5L9.2,70.6z"/>
</g>
<g class="st2">
	<path class="st0" d="M8.5,56.4l1.3,0.1c0.3,0,0.5,0.1,0.7,0.1c0.1,0,0.1,0,0.1-0.1l0.2-0.5l0.2,0c-0.1,0.4-0.1,0.8-0.2,1.2
		c-0.1,0.4-0.1,0.8-0.1,1.2l-0.2,0l-0.1-0.5c0-0.1,0-0.1-0.1-0.1c-0.2,0-0.5-0.1-0.8-0.1l-3.1-0.4c-0.1,0-0.2,0-0.3,0
		c-0.1,0-0.2,0-0.3,0c-0.1,0-0.1,0-0.1,0.1l-0.2,0.5l-0.2,0c0.1-0.4,0.1-0.7,0.1-1l0.1-1c0.1-0.6,0.1-1.3,0.2-1.9l0,0l1.2,0.4l0,0.2
		l-1,0.1L6,56.1l2.1,0.3l0-0.2c0-0.2,0.1-0.5,0.1-0.7c0-0.1,0-0.1-0.1-0.1l-0.5-0.2l0-0.3C8,54.9,8.3,54.9,8.5,55
		c0.2,0,0.5,0,0.8,0.1l0,0.3l-0.6,0.1c-0.1,0-0.1,0-0.1,0.1c0,0.3-0.1,0.5-0.1,0.7L8.5,56.4z"/>
</g>
<g class="st2">
	<path class="st0" d="M11,50.2c0.1,0,0.3,0.1,0.4,0.1c0.1,0,0.2,0.1,0.3,0.1c0.1,0,0.1,0,0.2,0l0.2-0.4l0.2,0
		c-0.1,0.3-0.2,0.6-0.3,1c-0.1,0.4-0.2,0.8-0.3,1.2l-0.2,0l0-0.5c0-0.1,0-0.1-0.1-0.1c-0.1,0-0.2-0.1-0.3-0.1s-0.3-0.1-0.4-0.1
		l-3-0.8c-0.1,0-0.2-0.1-0.3-0.1c-0.1,0-0.2,0-0.3-0.1c-0.1,0-0.1,0-0.1,0.1l-0.3,0.5l-0.2,0c0.1-0.3,0.2-0.7,0.3-1.1
		c0-0.1,0-0.2,0.1-0.3c0-0.1,0.1-0.3,0.1-0.4C7,49,7,48.8,7.1,48.7s0-0.2,0.1-0.2c0.2-0.6,0.4-1.1,0.7-1.4c0.3-0.3,0.6-0.3,1.1-0.2
		c0.4,0.1,0.6,0.3,0.8,0.5c0.2,0.3,0.3,0.6,0.3,1c0.4-0.1,0.7-0.2,0.9-0.3c0.2-0.1,0.4-0.1,0.7-0.2s0.4-0.1,0.6-0.2
		c0.2-0.1,0.3-0.1,0.4-0.2c0,0,0.1-0.1,0.1-0.1c0,0,0.1-0.1,0.1-0.1s0.1-0.1,0.1-0.1c0,0,0.1-0.1,0.1-0.2l0.2,0
		c0,0.3-0.1,0.5-0.2,0.9c-0.1,0.2-0.1,0.4-0.2,0.5c-0.1,0.1-0.1,0.2-0.2,0.2c-0.1,0.1-0.3,0.2-0.4,0.2c-0.2,0.1-0.4,0.1-0.6,0.2
		c-0.2,0.1-0.4,0.1-0.7,0.2c-0.2,0.1-0.5,0.1-0.7,0.2c-0.1,0-0.1,0-0.2,0.1c0,0-0.1,0-0.1,0s0,0-0.1,0.1c0,0,0,0.1,0,0.1l0,0.2
		L11,50.2z M9.4,49.8c0-0.1,0.1-0.2,0.1-0.4c0.1-0.4,0.1-0.6-0.1-0.8c-0.1-0.2-0.4-0.4-0.8-0.5c-0.4-0.1-0.7-0.1-0.9,0
		c-0.2,0.1-0.4,0.3-0.4,0.7c0,0.1,0,0.1,0,0.2c0,0.1,0,0.1,0,0.2L9.4,49.8z"/>
</g>
<g class="st2">
	<path class="st0" d="M12.7,43.4l0.6,0.5c0.1,0.1,0.2,0.2,0.3,0.2c0.1,0.1,0.1,0.1,0.2,0.1c0,0,0.1,0,0.1,0c0,0,0.1,0,0.1-0.1
		l0.2-0.3l0.2,0.1c-0.1,0.3-0.3,0.6-0.4,0.8c-0.1,0.2-0.2,0.5-0.3,0.8l-0.2-0.1l0-0.4c0-0.1,0-0.2,0-0.3c0-0.1-0.1-0.2-0.2-0.3
		L9.7,41l0.1-0.4l5,0.2c0.2,0,0.3,0,0.4,0c0.1,0,0.1-0.1,0.2-0.2l0.2-0.3l0.2,0.1c-0.1,0.3-0.3,0.6-0.4,1c-0.2,0.4-0.3,0.9-0.5,1.3
		l-0.2-0.1l0-0.4c0-0.1,0-0.1,0-0.1c0,0,0-0.1-0.1-0.1c0,0-0.1,0-0.2,0c-0.1,0-0.2,0-0.3,0l-0.8,0L12.7,43.4z M11,41.8
		c0.1,0.1,0.2,0.2,0.3,0.3l1.1,1l0.5-1.2l-1.5-0.1C11.3,41.8,11.1,41.8,11,41.8z"/>
</g>
<g class="st2">
	<path class="st0" d="M14.7,31.6c0.2-0.3,0.4-0.6,0.5-0.8c0.1-0.2,0.3-0.5,0.4-0.8l0.2,0.1l-0.1,0.5c0,0.1,0,0.1,0.1,0.1
		c0.1,0.1,0.3,0.2,0.5,0.3l2.6,1.6c0.3,0.2,0.5,0.3,0.7,0.4c0.1,0,0.1,0,0.2,0l0.4-0.4l0.2,0.1c-0.2,0.3-0.4,0.7-0.6,1
		c-0.2,0.4-0.4,0.7-0.6,0.9l-0.2-0.1l0.1-0.5c0-0.1,0-0.1-0.1-0.2c-0.2-0.1-0.4-0.2-0.6-0.4l-2.1-1.3c-0.1-0.1-0.3-0.2-0.7-0.4
		c0.1,0.2,0.3,0.4,0.4,0.6l2.4,3.3l-0.2,0.3l-3.9-0.6c-0.2,0-0.5-0.1-0.7-0.1c0.3,0.2,0.5,0.3,0.6,0.4l2,1.2
		c0.3,0.2,0.5,0.3,0.7,0.4c0.1,0,0.1,0,0.2,0l0.3-0.3l0.2,0.1c-0.2,0.3-0.3,0.5-0.4,0.7c-0.1,0.2-0.3,0.4-0.4,0.8l-0.2-0.1l0.1-0.5
		c0-0.1,0-0.1,0-0.2c-0.2-0.1-0.4-0.2-0.7-0.4l-2.6-1.6c-0.2-0.1-0.4-0.2-0.6-0.3c-0.1,0-0.1,0-0.2,0l-0.4,0.4l-0.2-0.1
		c0.2-0.4,0.4-0.6,0.5-0.8c0.2-0.3,0.3-0.5,0.4-0.8l3.6,0.6c0.2,0,0.3,0.1,0.4,0.1c-0.1-0.1-0.2-0.2-0.3-0.4L14.7,31.6z"/>
</g>
<g class="st2">
	<path class="st0" d="M18.5,26.5l0.6-0.8c0.4-0.5,0.8-1,1.2-1.5l0,0l0.8,1l-0.1,0.2l-0.9-0.4l-0.9,1.2l1.6,1.3l0.1-0.2
		c0.1-0.2,0.3-0.4,0.5-0.6c0-0.1,0-0.1,0-0.2l-0.3-0.4l0.2-0.2c0.3,0.2,0.5,0.4,0.6,0.5c0.1,0.1,0.4,0.3,0.6,0.5l-0.1,0.2L21.9,27
		c-0.1,0-0.1,0-0.2,0c-0.2,0.2-0.3,0.4-0.5,0.6l-0.1,0.2l1,0.8c0.2,0.2,0.4,0.4,0.7,0.5l1-1.2l-0.5-1l0.1-0.2l1.1,1l0,0
		c-0.4,0.5-0.8,1-1.2,1.4L22.7,30c-0.2,0.3-0.4,0.5-0.6,0.8l-0.2-0.1l0.2-0.5c0-0.1,0-0.1,0-0.2c-0.1-0.1-0.2-0.1-0.3-0.2
		c-0.1-0.1-0.2-0.2-0.3-0.3l-2.4-2c-0.1-0.1-0.2-0.2-0.3-0.2c-0.1-0.1-0.2-0.1-0.2-0.2c-0.1,0-0.1,0-0.2,0L18,27.4l-0.2-0.1
		C18.1,27.1,18.3,26.8,18.5,26.5z"/>
</g>
<g class="st2">
	<path class="st0" d="M28.8,20.8c0.1,0.1,0.2,0.2,0.4,0.2c-0.1-0.1-0.1-0.3-0.2-0.4l-0.9-2.3C28,18.2,28,18.1,27.9,18
		c0-0.1-0.1-0.1-0.1-0.2c0,0-0.1,0-0.1-0.1c0,0-0.1,0-0.1,0L27.3,18l-0.1-0.1c0.3-0.2,0.5-0.4,0.7-0.6c0.2-0.2,0.4-0.4,0.6-0.6
		l0.1,0.1l-0.2,0.4c-0.1,0.1-0.1,0.2-0.1,0.3c0,0.1,0,0.2,0.1,0.3l1.9,4.6l-0.3,0.3L27.2,21c-0.1-0.1-0.3-0.2-0.5-0.3
		c0.1,0.2,0.1,0.3,0.2,0.5l1.2,3l-0.3,0.3l-4.2-2.4c-0.2-0.1-0.3-0.1-0.4-0.2c-0.1,0-0.2,0-0.3,0l-0.4,0.2L22.5,22
		c0.3-0.2,0.5-0.5,0.8-0.7c0.3-0.3,0.7-0.6,1-0.9l0.1,0.1l-0.2,0.3c0,0,0,0.1,0,0.1c0,0,0,0.1,0,0.1c0,0,0.1,0.1,0.2,0.1
		c0.1,0,0.2,0.1,0.3,0.2l2.1,1.2c0.1,0.1,0.2,0.2,0.4,0.2c-0.1-0.1-0.1-0.3-0.2-0.4l-1.4-3.2l0.3-0.3L28.8,20.8z"/>
</g>
<g class="st2">
	<path class="st0" d="M37.3,14.2c0.5,0.8,0.6,1.5,0.5,2.2c-0.2,0.7-0.6,1.4-1.4,1.9c-0.8,0.5-1.5,0.6-2.2,0.5
		c-0.7-0.2-1.2-0.6-1.7-1.3c-0.5-0.8-0.6-1.5-0.5-2.2c0.2-0.7,0.6-1.3,1.4-1.8c0.8-0.5,1.5-0.6,2.1-0.5C36.2,13,36.8,13.5,37.3,14.2
		z M33.5,16.6c0.4,0.7,0.9,1.2,1.4,1.4c0.5,0.2,0.9,0.2,1.4-0.1c0.4-0.3,0.7-0.7,0.7-1.1c0-0.5-0.2-1.1-0.7-1.8
		c-0.4-0.7-0.9-1.1-1.3-1.3c-0.5-0.2-0.9-0.2-1.4,0.1c-0.5,0.3-0.7,0.7-0.7,1.1C32.8,15.4,33.1,15.9,33.5,16.6z"/>
</g>
<g class="st2">
	<path class="st0" d="M42.3,13.7c0.1,0.1,0.1,0.3,0.2,0.4c0.1,0.1,0.1,0.2,0.1,0.3c0,0.1,0.1,0.1,0.1,0.1l0.4,0l0.1,0.2
		c-0.3,0.1-0.6,0.2-1,0.4c-0.4,0.2-0.8,0.3-1.1,0.5l-0.1-0.2l0.4-0.3c0.1,0,0.1-0.1,0-0.2c0-0.1-0.1-0.2-0.1-0.3
		c-0.1-0.1-0.1-0.2-0.2-0.4L40,11.3c-0.1-0.1-0.1-0.2-0.1-0.3c0-0.1-0.1-0.2-0.1-0.3c0-0.1-0.1-0.1-0.1-0.1L39,10.7L39,10.5
		c0.3-0.1,0.7-0.3,1-0.4c0.1,0,0.2-0.1,0.3-0.1c0.1-0.1,0.2-0.1,0.4-0.2c0.1-0.1,0.3-0.1,0.4-0.2c0.1,0,0.2-0.1,0.2-0.1
		c0.6-0.3,1.1-0.4,1.5-0.3s0.7,0.3,0.8,0.7c0.2,0.4,0.2,0.7,0.1,1c-0.1,0.3-0.3,0.6-0.6,0.9c0.3,0.2,0.6,0.4,0.8,0.5
		c0.2,0.1,0.4,0.3,0.6,0.4c0.2,0.1,0.4,0.2,0.5,0.3c0.1,0.1,0.3,0.2,0.4,0.2c0.1,0,0.1,0,0.2,0c0,0,0.1,0,0.2,0c0.1,0,0.1,0,0.2,0
		c0.1,0,0.1,0,0.2,0l0.1,0.2c-0.2,0.1-0.5,0.3-0.8,0.4c-0.2,0.1-0.4,0.2-0.5,0.2c-0.1,0-0.2,0-0.3,0c-0.1,0-0.3-0.1-0.4-0.2
		c-0.2-0.1-0.3-0.2-0.5-0.3c-0.2-0.1-0.4-0.3-0.6-0.4c-0.2-0.1-0.4-0.3-0.6-0.4c-0.1,0-0.1-0.1-0.1-0.1c0,0-0.1,0-0.1-0.1
		s-0.1,0-0.1,0s-0.1,0-0.1,0l-0.1,0.1L42.3,13.7z M41.6,12.2c0.1,0,0.2-0.1,0.3-0.1c0.3-0.1,0.5-0.3,0.6-0.6c0.1-0.2,0-0.5-0.1-0.9
		c-0.2-0.3-0.3-0.6-0.6-0.7c-0.2-0.1-0.5-0.1-0.8,0.1c-0.1,0-0.1,0.1-0.2,0.1c-0.1,0-0.1,0.1-0.2,0.1L41.6,12.2z"/>
</g>
<g class="st2">
	<path class="st0" d="M48.7,8.1l0.8,3c0,0.1,0.1,0.3,0.1,0.4c0,0.1,0.1,0.2,0.1,0.3c0,0.1,0.1,0.1,0.1,0.1l0.5,0l0.1,0.2
		c-0.3,0.1-0.7,0.2-1.1,0.3c-0.4,0.1-0.8,0.2-1.2,0.3l-0.1-0.2l0.5-0.3c0.1,0,0.1-0.1,0.1-0.1c0-0.1-0.1-0.2-0.1-0.3
		c0-0.1-0.1-0.3-0.1-0.4l-0.8-3c0-0.1-0.1-0.2-0.1-0.3c0-0.1-0.1-0.2-0.1-0.3c0-0.1-0.1-0.1-0.1-0.1l-0.5,0l-0.1-0.2
		c0.3-0.1,0.7-0.2,1.1-0.3c0.4-0.1,0.8-0.2,1.1-0.3L49,7.1l-0.4,0.3c-0.1,0-0.1,0.1-0.1,0.1c0,0.1,0,0.2,0.1,0.3
		C48.6,7.9,48.6,8,48.7,8.1z M49.2,9.7l1.1-2.1c0.1-0.2,0.1-0.3,0.2-0.4c0-0.1,0.1-0.2,0-0.2c0,0-0.1-0.1-0.1-0.1l-0.3,0l-0.1-0.2
		c0.3-0.1,0.6-0.1,0.9-0.2c0.3-0.1,0.6-0.2,0.9-0.3l0.1,0.2l-0.4,0.2c-0.1,0.1-0.2,0.2-0.3,0.3C51,6.9,51,7.1,50.9,7.2L50,9l2.3,1.9
		c0.1,0.1,0.2,0.1,0.3,0.2c0.1,0,0.2,0,0.3,0l0.4,0l0.1,0.2c-0.3,0.1-0.6,0.1-0.9,0.2c-0.3,0.1-0.6,0.2-0.9,0.3
		c-0.1-0.1-0.4-0.4-0.9-0.8L49.2,9.7z"/>
</g>
<g class="st2">
	<path class="st0" d="M56.2,9.8c0.2,0,0.3,0,0.5,0.1c0.1,0.1,0.2,0.2,0.2,0.4c0,0.2,0,0.3-0.1,0.5c-0.1,0.1-0.2,0.2-0.4,0.2
		c-0.2,0-0.3,0-0.5-0.1s-0.2-0.2-0.2-0.4c0-0.2,0-0.3,0.1-0.5C55.9,9.9,56.1,9.9,56.2,9.8z"/>
</g>

</svg>
