<?xml version="1.0" encoding="utf-8"?>
<!-- Generator: Adobe Illustrator 20.0.0, SVG Export Plug-In . SVG Version: 6.00 Build 0)  -->
<svg version="1.1" id="enkan" xmlns="http://www.w3.org/2000/svg" xmlns:xlink="http://www.w3.org/1999/xlink" x="0px" y="0px"
	 viewBox="0 0 128 128" style="enable-background:new 0 0 128 128;" xml:space="preserve">
<style type="text/css">
	.st0{fill:#CC3399;}
	.st1{fill:none;}
	.st2{enable-background:new    ;}
</style>
<g>
	<g>
		<g>
			<path class="st0" d="M63.2,22.6c-0.7,0.7-0.3,2,0.4,2.3c0.2,0.1,0.2,0.2,0.4,0.6c0,0,0-4.5,0-4.4C63.6,21.3,63.9,21.9,63.2,22.6z
				"/>
			<path class="st0" d="M64.1,26.5c-0.1,0-0.3,0-0.5-0.1c-0.1-0.1-0.3-0.1-0.9-0.7c-0.2-0.2-0.3-0.4-0.5-0.6c-0.5-0.9-0.5-1.9-0.1-3
				c0.1-0.3,0.7-1.4,1.9-2.1c0-0.2,0-0.4,0-0.7c-0.1-0.8-0.5-2-0.5-3c-0.1-1.3,0.6-2.4,0.5-4c-1.3,0-1.5-0.4-4.5,0.9
				c-3.4-0.7-7.2,0.1-9,1.3c-2.4,0.3-5,0.7-6.9,2.7c-1.3,1.6-1.5,3.1-1.4,4.6c0,0.3-1.4-0.5-0.8-4.4c-0.9,1.9-0.9,4.7,0.8,5.7
				c0.4,1.5,1,2.5,2.1,3.6c-0.6,2.6,6.2,3.8,10,1.6c2.9-1.5,4.9-5.1,3.3-9.4c0.6,0.6,1.3,1.4,1.9,1.9c0,0.7-0.1,2.1-0.4,3
				c-0.6,1.6-2.5,3.6-4.1,4.8c2.2-1.1,2.6,0,6.3-2.8c0.5,0.8,1.7,1.6,2.6,1.5L64.1,26.5L64.1,26.5z M63.4,12.8
				c-0.1,0.4-0.3,2.6-0.4,3.1c-0.1,1.3,0.2,1.7,0.7,3.4c-0.3-0.1-2-1.4-2.3-1.6C58.8,15.7,62.8,12.7,63.4,12.8z M43.3,22.7
				c-1-6.7,5.5-8,9.6-7c-1,0.1-2,0.3-2.8,1.3c-0.2,0.2-0.5,0.6-0.5,0.9c-3.6,0.4-4.3,2.8-4,4.9c0.2,1.7,1.8,3.2,4.6,3.9
				C44.4,28.5,43.3,23.3,43.3,22.7z M49.8,20.9c2.1,2.2,3.5,1.2,4.5,2.1c-0.6,1.3-1,1.8-3.6,3.5C50.9,25.9,51.6,23.4,49.8,20.9z
				 M49,20.6c0.1,1.3,0.6,1.4,1.1,2.6c0.2,0.5,0.5,1.6,0.2,3.4c-2.1-0.8-3.9-2.3-4.1-4.3c-0.1-1.5,0.7-3.7,3.3-4.1
				C49.5,18.2,49,19.5,49,20.6z M49.9,20.4c-0.1-1.1,0.2-2.2,1.4-3.2c1.4-0.4,4.6,1.9,3.2,5.4C52.9,20.9,52,22.3,49.9,20.4z
				 M51.5,28.8c-1.5,0.1-3.4,0.1-4.7-0.2c-1.9-0.5-0.9-0.9-0.7-1c8.4,0.9,12.8-7.6,6.1-10.9c2.4-0.8,3.6,0.5,4.2,1.3
				C60.4,23.4,55.5,27.9,51.5,28.8z M55.7,16c-1.6-1.3-3.4-1.1-3.7-1.3c1.5-1.1,4.8-1.8,7.4-1c-0.3,0.6-0.5,1.1-1,1.6
				C57.9,15.8,56.4,16.2,55.7,16z M57.6,18.4c-0.3-0.3-0.4-1-1.2-1.6c1-0.1,1.9-0.5,2.5-1.1c0.9-1,1.6-2.4,3.5-2.8
				c-3.8,2.3-2.9,4.9-2.7,7.3C59.2,19.8,58.5,19.4,57.6,18.4z M61.1,24.7C61,25.2,60.5,25.6,60,26c-1,0.9-1.4,0.9-2.1,1.1
				c1.4-1.2,1.7-1.9,2.3-3.6c0.1-0.4,0.2-2.1,0.1-2.6c0,0,1.1,0.8,1.3,1C60.9,23.2,61.2,24.1,61.1,24.7z M61.8,21.3
				c-0.4-0.3-1.3-0.6-1.7-1c-0.1-1.3-0.3-3.4-0.2-3.2c0.5,0.8,3.6,2.8,3.6,2.8C63,20.1,62.2,20.7,61.8,21.3z"/>
		</g>
		<g>
			<path class="st0" d="M64.9,22.6c0.7,0.7,0.3,2-0.4,2.3c-0.2,0.1-0.2,0.2-0.4,0.6c0,0,0-4.5,0-4.4C64.5,21.3,64.3,21.9,64.9,22.6z
				"/>
			<path class="st0" d="M64.1,26.5c0.1,0,0.3,0,0.5-0.1c0.1-0.1,0.3-0.1,0.9-0.7c0.2-0.2,0.3-0.4,0.5-0.6c0.5-0.9,0.5-1.9,0.1-3
				c-0.1-0.3-0.7-1.4-1.9-2.1c0-0.2,0-0.4,0-0.7c0.1-0.8,0.5-2,0.5-3c0.1-1.3-0.6-2.4-0.5-4c1.3,0,1.5-0.4,4.5,0.9
				c3.4-0.7,7.2,0.1,9,1.3c2.4,0.3,5,0.7,6.9,2.7c1.3,1.6,1.5,3.1,1.4,4.6c0,0.3,1.4-0.5,0.8-4.4c0.9,1.9,0.9,4.7-0.8,5.7
				c-0.4,1.5-1,2.5-2.1,3.6c0.6,2.6-6.2,3.8-10,1.6c-2.9-1.5-4.9-5.1-3.3-9.4c-0.6,0.6-1.3,1.4-1.9,1.9c0,0.7,0.1,2.1,0.4,3
				c0.6,1.6,2.5,3.6,4.1,4.8c-2.2-1.1-2.6,0-6.3-2.8c-0.5,0.8-1.7,1.6-2.6,1.5L64.1,26.5z M64.8,12.8c0.1,0.4,0.3,2.6,0.4,3.1
				c0.1,1.3-0.2,1.7-0.7,3.4c0.3-0.1,2-1.4,2.3-1.6C69.4,15.7,65.3,12.7,64.8,12.8z M84.9,22.7c1-6.7-5.5-8-9.6-7
				c1,0.1,2,0.3,2.8,1.3c0.2,0.2,0.5,0.6,0.5,0.9c3.6,0.4,4.3,2.8,4,4.9c-0.2,1.7-1.8,3.2-4.6,3.9C83.7,28.5,84.8,23.3,84.9,22.7z
				 M78.3,20.9c-2.1,2.2-3.5,1.2-4.5,2.1c0.6,1.3,1,1.8,3.6,3.5C77.2,25.9,76.5,23.4,78.3,20.9z M79.1,20.6C79,21.9,78.5,22,78,23.1
				c-0.2,0.5-0.5,1.6-0.2,3.4c2.1-0.8,3.9-2.3,4.1-4.3c0.1-1.5-0.7-3.7-3.3-4.1C78.6,18.2,79.2,19.5,79.1,20.6z M78.2,20.4
				c0.1-1.1-0.2-2.2-1.4-3.2c-1.4-0.4-4.6,1.9-3.2,5.4C75.2,20.9,76.1,22.3,78.2,20.4z M76.6,28.8c1.5,0.1,3.4,0.1,4.7-0.2
				c1.9-0.5,0.9-0.9,0.7-1c-8.4,0.9-12.8-7.6-6.1-10.9c-2.4-0.8-3.6,0.5-4.2,1.3C67.7,23.4,72.6,27.9,76.6,28.8z M72.4,16
				c1.6-1.3,3.4-1.1,3.7-1.3c-1.5-1.1-4.8-1.8-7.4-1c0.3,0.6,0.5,1.1,1,1.6C70.2,15.8,71.7,16.2,72.4,16z M70.5,18.4
				c0.3-0.3,0.4-1,1.2-1.6c-1-0.1-1.9-0.5-2.5-1.1c-0.9-1-1.5-2.4-3.5-2.8c3.8,2.3,2.9,4.9,2.7,7.3C68.9,19.8,69.6,19.4,70.5,18.4z
				 M67,24.7c0.1,0.5,0.6,0.9,1.1,1.3c1,0.9,1.4,0.9,2.1,1.1c-1.4-1.2-1.7-1.9-2.3-3.6c-0.1-0.4-0.2-2.1-0.1-2.6c0,0-1.1,0.8-1.3,1
				C67.2,23.2,66.9,24.1,67,24.7z M66.3,21.3c0.4-0.3,1.3-0.6,1.7-1c0.1-1.3,0.3-3.4,0.2-3.2c-0.5,0.8-3.6,2.8-3.6,2.8
				C65.1,20.1,65.9,20.7,66.3,21.3z"/>
		</g>
	</g>
	<g>
		<g>
			<path class="st0" d="M27.9,44c0.3,0.9,1.6,1.3,2.2,0.8c0.1-0.1,0.3-0.1,0.7-0.1c0,0-3.9-2.2-3.8-2.2C27,43,27.6,43.1,27.9,44z"/>
			<path class="st0" d="M31.7,45.2c-0.1,0.1-0.2,0.3-0.3,0.4c-0.1,0-0.3,0.2-1,0.4c-0.2,0.1-0.5,0.1-0.7,0.1c-1.1,0-1.9-0.5-2.6-1.4
				c-0.2-0.2-0.8-1.3-0.8-2.7c-0.2-0.1-0.3-0.2-0.6-0.4c-0.8-0.3-2-0.6-2.9-1.1c-1.2-0.5-1.7-1.7-3.2-2.5c-0.7,1.1-1.1,1.1-1.5,4.3
				c-2.3,2.6-3.5,6.3-3.4,8.4c-1,2.2-1.9,4.7-1.1,7.3c0.8,2,2,2.8,3.3,3.5c0.3,0.1-1.2,0.9-4.2-1.6c1.1,1.7,3.6,3.1,5.3,2.1
				c1.5,0.4,2.7,0.4,4.2,0c2,1.9,6.4-3.5,6.4-7.8c0.1-3.2-1.9-6.8-6.5-7.5c0.9-0.2,1.8-0.4,2.6-0.7c0.6,0.3,1.8,1.2,2.4,1.9
				c1.1,1.3,1.9,4,2.1,6c0.1-2.5,1.3-2.3,0.8-6.8c0.9,0,2.2-0.7,2.6-1.5L31.7,45.2z M19.5,39c0.3,0.3,2.1,1.6,2.5,1.8
				c1.1,0.7,1.6,0.7,3.3,1.1c-0.2,0.2-2.2,1-2.5,1.2C19.7,44.4,19.1,39.4,19.5,39z M18,61.3c-6.3-2.5-4.2-8.8-1.3-11.8
				c-0.4,0.9-0.8,1.9-0.3,3.1c0.1,0.2,0.3,0.7,0.5,0.8c-1.4,3.4,0.3,5.2,2.3,6c1.5,0.6,3.7,0,5.6-2.1C23.6,63.2,18.5,61.5,18,61.3z
				 M19.7,54.7c2.9-0.7,2.8-2.4,4.1-2.8c0.8,1.2,1.1,1.8,1.2,4.9C24.6,56.3,22.8,54.4,19.7,54.7z M19,55.3c1.2,0.6,1.5,0.2,2.8,0.3
				c0.5,0.1,1.6,0.3,3,1.5c-1.8,1.4-3.9,2.3-5.7,1.4c-1.3-0.6-2.8-2.4-1.9-4.9C17.2,53.6,18.1,54.8,19,55.3z M19.3,54.4
				c-1-0.5-1.8-1.3-2-2.8c0.4-1.5,3.9-3,6.3-0.1C21.2,52.1,22,53.5,19.3,54.4z M27.4,57.2c-0.7,1.4-1.6,3-2.5,3.9
				c-1.4,1.4-1.3,0.3-1.2,0.1c4.9-6.8-0.1-14.9-6.3-10.8c0.6-2.5,2.2-2.9,3.2-3C27.2,46.8,28.6,53.2,27.4,57.2z M18.5,47.2
				c-1.9,0.7-2.7,2.4-3,2.6c-0.2-1.8,0.8-5.1,2.8-6.9c0.3,0.6,0.7,1,0.9,1.7C19.3,45.2,19,46.7,18.5,47.2z M21.4,46.7
				c-0.4,0.1-1.1-0.2-2,0.2c0.4-0.9,0.5-1.9,0.3-2.7c-0.4-1.3-1.3-2.5-0.7-4.4c0.1,4.5,2.8,5,4.9,6C23.5,46.1,22.7,46.4,21.4,46.7z
				 M28.7,46.9c0.4,0.3,0.4,1,0.6,1.6c0.3,1.3,0,1.7-0.1,2.4c-0.4-1.8-0.8-2.4-2-3.8c-0.3-0.3-1.7-1.2-2.2-1.4c0,0,1.3-0.6,1.5-0.6
				C27.3,46.3,28.2,46.4,28.7,46.9z M26,44.5c-0.5,0.2-1.2,0.8-1.7,0.9c-1.2-0.6-3.1-1.4-2.9-1.4c1,0,4.2-1.7,4.3-1.7
				C25.6,42.9,25.8,43.9,26,44.5z"/>
		</g>
		<g>
			<path class="st0" d="M28.8,42.5c1-0.2,1.9,0.7,1.8,1.5c0,0.2,0,0.3,0.3,0.7c0,0-3.9-2.3-3.8-2.2C27.4,42.2,27.8,42.7,28.8,42.5z"
				/>
			<path class="st0" d="M31.7,45.2c0.1-0.1,0.1-0.3,0.2-0.5c0-0.1,0.1-0.4-0.1-1.1c-0.1-0.2-0.2-0.5-0.3-0.7
				c-0.5-0.9-1.4-1.4-2.5-1.6c-0.3,0-1.6,0-2.8,0.6c-0.2-0.1-0.3-0.2-0.6-0.3c-0.6-0.5-1.5-1.4-2.4-2c-1.1-0.8-2.3-0.7-3.7-1.5
				c0.6-1.2,0.4-1.5,3-3.4c1.1-3.3,3.7-6.2,5.6-7.2c1.4-2,3.1-3.9,5.8-4.7c2.1-0.3,3.4,0.3,4.7,1.1c0.3,0.2,0.2-1.5-3.4-2.9
				c2.1,0.1,4.5,1.6,4.5,3.6c1,1.1,1.7,2.1,2.1,3.6c2.6,0.8,0.1,7.3-3.6,9.5c-2.7,1.7-6.8,1.7-9.8-1.9c0.3,0.8,0.6,1.8,0.6,2.6
				c0.6,0.4,1.9,1,2.8,1.1c1.7,0.3,4.4-0.3,6.2-1.1c-2.1,1.3-1.3,2.3-5.5,4.1c0.4,0.8,0.5,2.3,0,3L31.7,45.2z M20.2,37.8
				c0.4,0.1,2.4,1,2.8,1.2c1.2,0.6,1.4,1,2.6,2.3c0-0.3-0.2-2.5-0.3-2.8C25,35.2,20.3,37.2,20.2,37.8z M38.8,25.3
				c-5.3-4.2-9.7,0.8-10.8,4.8c0.6-0.8,1.3-1.6,2.5-1.8c0.3,0,0.8-0.1,1,0c2.2-2.9,4.6-2.3,6.3-1c1.3,1,1.9,3.2,1,5.9
				C43.2,29.1,39.2,25.6,38.8,25.3z M34,30c0.8,2.9-0.7,3.6-0.4,5c1.4,0.1,2.1,0,4.8-1.4C37.8,33.6,35.2,32.9,34,30z M34.1,29.2
				c1.1,0.7,0.9,1.2,1.7,2.2c0.3,0.4,1.1,1.2,2.9,1.9c0.3-2.2,0-4.6-1.7-5.7c-1.2-0.8-3.5-1.2-5.2,0.8
				C31.7,28.4,33.2,28.6,34.1,29.2z M33.5,29.9c-0.9-0.6-2-0.9-3.4-0.4c-1.1,1-0.6,4.9,3,5.5C32.4,32.7,34,32.6,33.5,29.9z
				 M39.9,35.5c0.8-1.3,1.8-2.9,2.1-4.2c0.5-1.9-0.4-1.3-0.6-1.1c-3.4,7.7-13,7.3-12.5-0.1c-1.9,1.7-1.4,3.4-1,4.3
				C30.8,40.5,37.1,38.5,39.9,35.5z M26.8,32.7c-0.3-2,0.7-3.5,0.7-3.9c-1.6,0.7-4,3.3-4.5,5.9c0.7,0,1.2,0.1,1.9-0.1
				C25.5,34.5,26.6,33.4,26.8,32.7z M27.9,35.5c-0.2-0.4-0.7-0.9-0.8-1.8c-0.6,0.8-1.4,1.4-2.2,1.6c-1.3,0.3-2.8,0.2-4.2,1.6
				c3.9-2.2,5.7-0.1,7.6,1.3C28.3,37.6,28.3,36.8,27.9,35.5z M31.7,41.7c0.5,0.1,1-0.1,1.7-0.3c1.3-0.4,1.5-0.8,2-1.3
				c-1.8,0.6-2.5,0.5-4.3,0.1c-0.4-0.1-2-0.9-2.3-1.2c0,0,0.2,1.4,0.2,1.6C30.4,40.8,31,41.5,31.7,41.7z M28.3,40.6
				c-0.1-0.5,0.1-1.4,0-2c-1.1-0.7-2.8-2-2.7-1.8c0.5,0.9,0.6,4.5,0.7,4.5C26.7,41.1,27.6,40.7,28.3,40.6z"/>
		</g>
	</g>
	<g>
		<g>
			<path class="st0" d="M99.3,42.6c-1-0.2-1.9,0.7-1.8,1.5c0,0.2,0,0.3-0.3,0.7c0,0,3.9-2.3,3.8-2.2
				C100.7,42.3,100.3,42.8,99.3,42.6z"/>
			<path class="st0" d="M96.4,45.3c-0.1-0.1-0.1-0.3-0.2-0.5c0-0.1-0.1-0.4,0.1-1.1c0.1-0.2,0.2-0.5,0.3-0.7
				c0.5-0.9,1.4-1.4,2.5-1.6c0.3,0,1.6,0,2.8,0.6c0.2-0.1,0.3-0.2,0.6-0.3c0.6-0.5,1.5-1.4,2.4-2c1.1-0.8,2.3-0.7,3.7-1.5
				c-0.6-1.2-0.4-1.5-3-3.4c-1.1-3.3-3.7-6.2-5.6-7.2c-1.4-2-3.1-3.9-5.8-4.7c-2.1-0.3-3.4,0.3-4.7,1.1c-0.3,0.2-0.2-1.5,3.4-2.9
				c-2.1,0.1-4.5,1.6-4.5,3.6c-1,1.1-1.7,2.1-2.1,3.6c-2.6,0.8-0.1,7.3,3.6,9.5c2.7,1.7,6.8,1.7,9.8-1.9c-0.3,0.8-0.6,1.8-0.6,2.6
				c-0.6,0.4-1.9,1-2.8,1.1c-1.7,0.3-4.4-0.3-6.2-1.1c2.1,1.3,1.3,2.3,5.6,4.1c-0.4,0.8-0.5,2.3,0,3L96.4,45.3z M107.9,37.8
				c-0.4,0.1-2.4,1-2.8,1.2c-1.2,0.6-1.4,1-2.6,2.3c0-0.3,0.2-2.5,0.3-2.8C103.1,35.2,107.7,37.2,107.9,37.8z M89.3,25.4
				c5.3-4.2,9.7,0.8,10.8,4.8c-0.6-0.8-1.3-1.6-2.5-1.8c-0.3,0-0.8-0.1-1,0c-2.2-2.9-4.6-2.3-6.3-1c-1.3,1-1.9,3.2-1,5.9
				C84.8,29.2,88.8,25.7,89.3,25.4z M94.1,30.1c-0.8,2.9,0.7,3.6,0.4,5c-1.4,0.1-2.1,0-4.8-1.4C90.3,33.6,92.9,32.9,94.1,30.1z
				 M94,29.2c-1.1,0.7-0.9,1.2-1.7,2.2c-0.3,0.4-1.1,1.2-2.9,1.9c-0.3-2.2,0-4.6,1.7-5.7c1.2-0.8,3.5-1.2,5.2,0.8
				C96.4,28.5,94.9,28.7,94,29.2z M94.6,29.9c0.9-0.6,2-0.9,3.4-0.4c1.1,1,0.6,4.9-3,5.5C95.7,32.7,94,32.7,94.6,29.9z M88.2,35.5
				c-0.9-1.3-1.8-2.9-2.1-4.2c-0.5-1.9,0.4-1.3,0.6-1.1c3.4,7.7,13,7.3,12.5-0.1c1.9,1.7,1.4,3.4,1,4.3C97.3,40.5,91,38.5,88.2,35.5
				z M101.3,32.8c0.3-2-0.7-3.5-0.7-3.9c1.6,0.7,4,3.3,4.5,5.9c-0.7,0-1.2,0.1-1.9-0.1C102.6,34.6,101.5,33.5,101.3,32.8z
				 M100.2,35.6c0.2-0.4,0.7-0.9,0.8-1.8c0.6,0.8,1.4,1.4,2.2,1.6c1.3,0.3,2.8,0.2,4.2,1.6c-3.9-2.2-5.7-0.1-7.6,1.3
				C99.8,37.7,99.8,36.9,100.2,35.6z M96.4,41.8c-0.5,0.1-1-0.1-1.7-0.3c-1.3-0.4-1.5-0.8-2-1.3c1.8,0.6,2.5,0.5,4.3,0.1
				c0.4-0.1,2-0.9,2.3-1.2c0,0-0.2,1.4-0.2,1.6C97.7,40.8,97.1,41.6,96.4,41.8z M99.8,40.7c0.1-0.5-0.1-1.4,0-2
				c1.1-0.7,2.8-2,2.7-1.8c-0.5,0.9-0.6,4.5-0.7,4.5C101.4,41.1,100.5,40.7,99.8,40.7z"/>
		</g>
		<g>
			<path class="st0" d="M100.2,44c-0.3,0.9-1.6,1.3-2.2,0.8c-0.1-0.1-0.3-0.1-0.7-0.1c0,0,3.9-2.2,3.8-2.2
				C101.1,43,100.5,43.1,100.2,44z"/>
			<path class="st0" d="M96.4,45.2c0.1,0.1,0.2,0.3,0.3,0.4c0.1,0,0.3,0.2,1,0.4c0.2,0.1,0.5,0.1,0.8,0.1c1.1,0,1.9-0.5,2.7-1.4
				c0.2-0.2,0.8-1.3,0.8-2.7c0.2-0.1,0.3-0.2,0.6-0.4c0.8-0.3,2-0.6,2.9-1.1c1.2-0.5,1.7-1.7,3.2-2.5c0.7,1.1,1.1,1.1,1.5,4.3
				c2.3,2.6,3.5,6.3,3.4,8.4c1,2.2,1.8,4.7,1.1,7.3c-0.8,2-2,2.8-3.3,3.5c-0.3,0.1,1.2,0.9,4.2-1.6c-1.1,1.7-3.6,3.1-5.3,2.1
				c-1.5,0.4-2.7,0.4-4.2,0c-2,1.9-6.4-3.5-6.4-7.8c-0.1-3.2,1.9-6.8,6.5-7.5c-0.9-0.2-1.9-0.4-2.6-0.7c-0.6,0.3-1.8,1.2-2.4,1.9
				c-1.1,1.3-1.9,4-2.1,6c-0.1-2.5-1.3-2.3-0.8-6.8c-0.9,0-2.2-0.7-2.6-1.5L96.4,45.2z M108.6,39c-0.3,0.3-2.1,1.6-2.5,1.8
				c-1.1,0.7-1.6,0.7-3.3,1.1c0.2,0.2,2.2,1,2.5,1.2C108.4,44.4,109,39.4,108.6,39z M110,61.4c6.3-2.5,4.2-8.8,1.3-11.8
				c0.4,0.9,0.8,1.9,0.3,3.1c-0.1,0.2-0.3,0.7-0.5,0.8c1.4,3.4-0.3,5.2-2.3,6c-1.5,0.6-3.7,0-5.6-2.1
				C104.5,63.3,109.6,61.6,110,61.4z M108.4,54.8c-2.9-0.7-2.8-2.4-4.1-2.8c-0.8,1.2-1.1,1.8-1.2,4.9
				C103.4,56.3,105.3,54.4,108.4,54.8z M109.1,55.3c-1.2,0.6-1.5,0.2-2.8,0.3c-0.5,0.1-1.6,0.3-3.1,1.5c1.8,1.4,3.9,2.3,5.7,1.4
				c1.3-0.6,2.8-2.4,1.9-4.9C110.9,53.7,110,54.8,109.1,55.3z M108.8,54.5c1-0.5,1.8-1.3,2-2.8c-0.4-1.5-3.9-3-6.3-0.1
				C106.9,52.1,106.1,53.6,108.8,54.5z M100.7,57.2c0.7,1.4,1.6,3,2.6,3.9c1.4,1.4,1.3,0.3,1.2,0.1c-4.9-6.8,0.1-14.9,6.3-10.8
				c-0.6-2.5-2.2-2.9-3.2-3C100.9,46.8,99.5,53.3,100.7,57.2z M109.6,47.2c1.9,0.7,2.7,2.4,3,2.6c0.2-1.8-0.8-5.1-2.8-6.9
				c-0.3,0.6-0.7,1-0.9,1.7C108.7,45.2,109.1,46.7,109.6,47.2z M106.7,46.8c0.4,0.1,1.1-0.2,2,0.2c-0.4-0.9-0.5-1.9-0.3-2.7
				c0.4-1.3,1.3-2.5,0.7-4.4c-0.1,4.5-2.8,5-4.9,6C104.6,46.1,105.3,46.5,106.7,46.8z M99.4,46.9c-0.4,0.3-0.4,1-0.6,1.6
				c-0.3,1.3,0,1.7,0.1,2.4c0.4-1.8,0.8-2.4,2-3.8c0.3-0.3,1.7-1.2,2.2-1.4c0,0-1.3-0.6-1.5-0.6C100.8,46.3,99.9,46.5,99.4,46.9z
				 M102.1,44.6c0.5,0.2,1.2,0.8,1.7,0.9c1.2-0.6,3.1-1.4,2.9-1.4c-1,0-4.2-1.7-4.3-1.7C102.5,43,102.3,44,102.1,44.6z"/>
		</g>
	</g>
	<g>
		<g>
			<path class="st0" d="M64.9,105.2c0.7-0.7,0.3-2-0.4-2.3c-0.2-0.1-0.2-0.2-0.4-0.6c0,0,0,4.5,0,4.4
				C64.5,106.5,64.3,106,64.9,105.2z"/>
			<path class="st0" d="M64,101.3c0.1,0,0.3,0,0.5,0.1c0.1,0.1,0.3,0.1,0.9,0.7c0.2,0.2,0.3,0.4,0.5,0.6c0.5,0.9,0.5,1.9,0.1,3
				c-0.1,0.3-0.7,1.4-1.9,2.1c0,0.2,0,0.4,0,0.7c0.1,0.8,0.5,2,0.5,3.1c0.1,1.3-0.6,2.4-0.5,4c1.3,0,1.5,0.4,4.5-0.9
				c3.4,0.7,7.2-0.1,9-1.3c2.4-0.3,5-0.7,6.9-2.7c1.3-1.6,1.5-3.1,1.4-4.6c0-0.3,1.4,0.5,0.8,4.4c0.9-1.9,0.9-4.7-0.8-5.7
				c-0.4-1.4-1-2.5-2.1-3.6c0.6-2.6-6.2-3.8-10-1.6c-2.9,1.5-4.9,5.1-3.3,9.4c-0.6-0.6-1.3-1.4-1.9-1.9c0-0.7,0.1-2.1,0.4-3
				c0.6-1.6,2.5-3.6,4.1-4.8c-2.2,1.1-2.6,0-6.3,2.8c-0.5-0.8-1.7-1.6-2.6-1.5L64,101.3z M64.8,115c0.1-0.4,0.3-2.6,0.4-3.1
				c0.1-1.3-0.2-1.7-0.7-3.4c0.3,0.1,2,1.4,2.3,1.6C69.4,112.2,65.3,115.2,64.8,115z M84.8,105.1c1,6.7-5.5,8-9.6,7
				c1-0.1,2-0.3,2.8-1.3c0.2-0.2,0.5-0.6,0.5-0.9c3.6-0.4,4.3-2.8,4-4.9c-0.2-1.7-1.8-3.2-4.6-3.8C83.7,99.4,84.8,104.6,84.8,105.1z
				 M78.3,107c-2.1-2.2-3.5-1.2-4.5-2.1c0.6-1.3,1-1.8,3.6-3.5C77.2,101.9,76.5,104.5,78.3,107z M79.1,107.3
				c-0.1-1.3-0.6-1.4-1.1-2.6c-0.2-0.5-0.5-1.6-0.2-3.4c2.1,0.8,3.9,2.3,4.1,4.3c0.1,1.4-0.7,3.7-3.3,4.1
				C78.6,109.7,79.2,108.3,79.1,107.3z M78.2,107.5c0.1,1.1-0.2,2.2-1.4,3.2c-1.4,0.4-4.6-1.9-3.2-5.4
				C75.2,107,76.1,105.6,78.2,107.5z M76.6,99.1c1.5-0.1,3.4-0.1,4.7,0.2c1.9,0.5,0.9,0.9,0.7,1c-8.4-0.9-12.8,7.6-6.1,10.9
				c-2.4,0.8-3.6-0.5-4.2-1.3C67.7,104.5,72.6,100,76.6,99.1z M72.4,111.8c1.6,1.3,3.4,1.1,3.7,1.3c-1.5,1.1-4.8,1.8-7.4,1
				c0.3-0.6,0.5-1.1,1-1.6C70.2,112.1,71.7,111.7,72.4,111.8z M70.5,109.5c0.3,0.3,0.4,1,1.2,1.6c-1,0.1-1.9,0.5-2.5,1.1
				c-0.9,1-1.6,2.3-3.5,2.8c3.8-2.3,2.9-4.9,2.7-7.3C68.9,108.1,69.6,108.5,70.5,109.5z M67,103.1c0.1-0.5,0.6-0.9,1.1-1.3
				c1-0.9,1.4-0.9,2.1-1.1c-1.4,1.2-1.7,1.9-2.3,3.6c-0.1,0.4-0.2,2.1-0.1,2.6c0,0-1.1-0.8-1.3-1C67.2,104.7,66.9,103.8,67,103.1z
				 M66.3,106.6c0.4,0.3,1.3,0.6,1.7,1c0.1,1.3,0.3,3.4,0.2,3.2c-0.5-0.8-3.6-2.8-3.6-2.8C65.1,107.8,65.9,107.1,66.3,106.6z"/>
		</g>
		<g>
			<path class="st0" d="M63.2,105.2c-0.7-0.7-0.3-2,0.4-2.3c0.2-0.1,0.2-0.2,0.4-0.6c0,0,0,4.5,0,4.4
				C63.6,106.5,63.9,106,63.2,105.2z"/>
			<path class="st0" d="M64.1,101.3c-0.1,0-0.3,0-0.5,0.1c-0.1,0.1-0.3,0.1-0.9,0.7c-0.2,0.2-0.3,0.4-0.5,0.6
				c-0.5,0.9-0.5,1.9-0.1,3c0.1,0.3,0.7,1.4,1.9,2.1c0,0.2,0,0.4,0,0.7c-0.1,0.8-0.5,2-0.5,3.1c-0.1,1.3,0.6,2.4,0.5,4
				c-1.3,0-1.5,0.4-4.5-0.9c-3.4,0.7-7.2-0.1-9-1.3c-2.4-0.3-5-0.7-6.9-2.7c-1.3-1.6-1.5-3.1-1.4-4.6c0-0.3-1.4,0.5-0.8,4.4
				c-0.9-1.9-0.9-4.7,0.8-5.7c0.4-1.4,1-2.5,2.1-3.6c-0.6-2.6,6.2-3.8,10-1.6c2.9,1.5,4.9,5.1,3.3,9.4c0.6-0.6,1.3-1.4,1.9-1.9
				c0-0.7-0.1-2.1-0.4-3c-0.6-1.6-2.5-3.6-4.1-4.8c2.2,1.1,2.6,0,6.3,2.8c0.5-0.8,1.7-1.6,2.6-1.5L64.1,101.3z M63.4,115
				c-0.1-0.4-0.3-2.6-0.4-3.1c-0.1-1.3,0.2-1.7,0.7-3.4c-0.3,0.1-2,1.4-2.3,1.6C58.7,112.2,62.8,115.2,63.4,115z M43.3,105.1
				c-1,6.7,5.5,8,9.6,7c-1-0.1-2-0.3-2.8-1.3c-0.2-0.2-0.5-0.6-0.5-0.9c-3.6-0.4-4.3-2.8-4-4.9c0.2-1.7,1.8-3.2,4.6-3.8
				C44.4,99.4,43.3,104.6,43.3,105.1z M49.8,107c2.1-2.2,3.5-1.2,4.5-2.1c-0.6-1.3-1-1.8-3.6-3.5C50.9,101.9,51.6,104.5,49.8,107z
				 M49,107.3c0.1-1.3,0.6-1.4,1.1-2.6c0.2-0.5,0.5-1.6,0.2-3.4c-2.1,0.8-3.9,2.3-4.1,4.3c-0.1,1.4,0.7,3.7,3.3,4.1
				C49.5,109.7,48.9,108.3,49,107.3z M49.9,107.5c-0.1,1.1,0.2,2.2,1.4,3.2c1.4,0.4,4.6-1.9,3.2-5.4C52.9,107,52,105.6,49.9,107.5z
				 M51.5,99.1C50,99,48.1,99,46.8,99.4c-1.9,0.5-0.9,0.9-0.7,1c8.4-0.9,12.8,7.6,6.1,10.9c2.4,0.8,3.6-0.5,4.2-1.3
				C60.4,104.5,55.5,100,51.5,99.1z M55.7,111.8c-1.6,1.3-3.4,1.1-3.7,1.3c1.5,1.1,4.8,1.8,7.4,1c-0.3-0.6-0.5-1.1-1-1.6
				C57.9,112.1,56.4,111.7,55.7,111.8z M57.6,109.5c-0.3,0.3-0.4,1-1.2,1.6c1,0.1,1.9,0.5,2.5,1.1c0.9,1,1.5,2.3,3.5,2.8
				c-3.8-2.3-2.9-4.9-2.7-7.3C59.2,108.1,58.5,108.5,57.6,109.5z M61.1,103.1c-0.1-0.5-0.6-0.9-1.1-1.3c-1-0.9-1.4-0.9-2.1-1.1
				c1.4,1.2,1.7,1.9,2.3,3.6c0.1,0.4,0.2,2.1,0.1,2.6c0,0,1.1-0.8,1.3-1C60.9,104.7,61.2,103.8,61.1,103.1z M61.8,106.6
				c-0.4,0.3-1.3,0.6-1.7,1c-0.1,1.3-0.3,3.4-0.2,3.2c0.5-0.8,3.6-2.8,3.6-2.8C63,107.8,62.2,107.1,61.8,106.6z"/>
		</g>
	</g>
	<g>
		<g>
			<path class="st0" d="M100.2,83.9c-0.3-0.9-1.6-1.3-2.2-0.8c-0.1,0.1-0.3,0.1-0.7,0.1c0,0,3.9,2.2,3.8,2.2
				C101.1,84.9,100.5,84.8,100.2,83.9z"/>
			<path class="st0" d="M96.4,82.7c0.1-0.1,0.2-0.3,0.3-0.4c0.1-0.1,0.3-0.2,1-0.4c0.2-0.1,0.5-0.1,0.7-0.1c1.1,0,1.9,0.5,2.6,1.4
				c0.2,0.2,0.8,1.3,0.8,2.7c0.2,0.1,0.3,0.2,0.6,0.4c0.8,0.3,2,0.6,2.9,1.1c1.2,0.5,1.7,1.7,3.2,2.5c0.7-1.1,1.1-1.1,1.5-4.3
				c2.3-2.6,3.5-6.3,3.4-8.4c1-2.2,1.8-4.7,1.1-7.3c-0.8-2-2-2.8-3.3-3.5c-0.3-0.1,1.2-0.9,4.2,1.6c-1.1-1.7-3.6-3.1-5.3-2.1
				c-1.5-0.4-2.7-0.4-4.2,0c-2-1.9-6.4,3.5-6.4,7.8c-0.1,3.2,1.9,6.8,6.5,7.5c-0.9,0.2-1.8,0.4-2.6,0.7c-0.6-0.3-1.8-1.2-2.4-1.9
				c-1.1-1.3-1.9-4-2.1-6c-0.1,2.5-1.3,2.3-0.8,6.8c-0.9,0-2.2,0.7-2.6,1.5L96.4,82.7z M108.6,88.9c-0.3-0.3-2.1-1.6-2.5-1.8
				c-1.1-0.7-1.6-0.7-3.3-1.1c0.2-0.2,2.2-1,2.5-1.2C108.4,83.5,109.1,88.5,108.6,88.9z M110.1,66.6c6.3,2.5,4.2,8.8,1.3,11.8
				c0.4-0.9,0.7-1.9,0.3-3.1c-0.1-0.2-0.3-0.7-0.5-0.8c1.4-3.4-0.3-5.2-2.3-6c-1.5-0.6-3.7,0-5.6,2.1
				C104.5,64.7,109.6,66.4,110.1,66.6z M108.4,73.1c-2.9,0.7-2.8,2.4-4.1,2.8c-0.8-1.2-1.1-1.8-1.2-4.9
				C103.5,71.6,105.3,73.5,108.4,73.1z M109.1,72.6c-1.2-0.6-1.5-0.2-2.8-0.3c-0.5-0.1-1.6-0.3-3.1-1.5c1.8-1.4,3.9-2.3,5.7-1.4
				c1.3,0.6,2.8,2.4,1.9,4.9C110.9,74.3,110,73.1,109.1,72.6z M108.8,73.4c1,0.5,1.8,1.3,2,2.8c-0.4,1.5-3.9,3-6.3,0.1
				C106.9,75.8,106.1,74.4,108.8,73.4z M100.7,70.7c0.7-1.4,1.6-3,2.6-3.9c1.4-1.4,1.3-0.3,1.2-0.1c-4.9,6.8,0.1,14.9,6.3,10.8
				c-0.6,2.5-2.2,2.9-3.2,3C101,81.1,99.5,74.6,100.7,70.7z M109.7,80.7c1.9-0.7,2.7-2.4,3-2.6c0.2,1.8-0.8,5.1-2.8,6.9
				c-0.3-0.6-0.7-1-0.9-1.7C108.8,82.7,109.2,81.2,109.7,80.7z M106.7,81.1c0.4-0.1,1.1,0.2,2-0.2c-0.4,0.9-0.5,1.9-0.3,2.7
				c0.4,1.3,1.3,2.5,0.7,4.4c-0.1-4.5-2.8-5-4.9-6C104.6,81.8,105.4,81.4,106.7,81.1z M99.4,81c-0.4-0.3-0.4-1-0.6-1.6
				c-0.3-1.3,0-1.7,0.1-2.4c0.4,1.8,0.8,2.4,2,3.8c0.3,0.3,1.7,1.2,2.2,1.4c0,0-1.3,0.6-1.5,0.6C100.9,81.6,99.9,81.5,99.4,81z
				 M102.1,83.3c0.5-0.2,1.2-0.8,1.7-0.9c1.2,0.6,3.1,1.4,2.9,1.4c-1,0-4.2,1.7-4.3,1.7C102.5,85,102.4,84,102.1,83.3z"/>
		</g>
		<g>
			<path class="st0" d="M99.3,85.4c-1,0.2-1.9-0.7-1.8-1.5c0-0.2,0-0.3-0.3-0.7c0,0,3.9,2.3,3.8,2.2
				C100.7,85.6,100.3,85.2,99.3,85.4z"/>
			<path class="st0" d="M96.4,82.7c-0.1,0.1-0.1,0.3-0.2,0.5c0,0.1-0.1,0.4,0.1,1.1c0.1,0.2,0.2,0.5,0.3,0.7
				c0.5,0.9,1.4,1.4,2.5,1.6c0.3,0,1.6,0.1,2.8-0.6c0.2,0.1,0.3,0.2,0.6,0.3c0.6,0.5,1.5,1.4,2.4,2c1.1,0.8,2.3,0.7,3.7,1.5
				c-0.6,1.2-0.4,1.5-3,3.4c-1.1,3.3-3.7,6.2-5.6,7.2c-1.4,2-3.1,3.9-5.8,4.7c-2.1,0.3-3.4-0.3-4.7-1.1c-0.3-0.2-0.2,1.5,3.4,2.9
				c-2.1-0.1-4.5-1.6-4.5-3.6c-1-1.1-1.7-2.1-2.1-3.6c-2.6-0.8-0.1-7.3,3.6-9.5c2.7-1.7,6.8-1.7,9.8,1.9c-0.3-0.8-0.6-1.8-0.6-2.6
				c-0.6-0.4-1.9-1-2.8-1.1c-1.7-0.3-4.4,0.3-6.2,1.1c2.1-1.3,1.3-2.3,5.5-4.1c-0.4-0.8-0.5-2.3,0-3L96.4,82.7z M107.9,90.1
				c-0.4-0.1-2.4-1-2.8-1.2c-1.2-0.6-1.4-1-2.6-2.3c0,0.3,0.2,2.5,0.3,2.8C103.1,92.7,107.8,90.7,107.9,90.1z M89.3,102.6
				c5.3,4.2,9.7-0.8,10.8-4.8c-0.6,0.8-1.3,1.6-2.5,1.8c-0.3,0-0.8,0.1-1,0c-2.2,2.9-4.6,2.3-6.3,1c-1.3-1-1.9-3.2-1-5.9
				C84.9,98.7,88.9,102.2,89.3,102.6z M94.1,97.8c-0.8-2.9,0.7-3.6,0.4-5c-1.4-0.1-2.1,0-4.8,1.4C90.4,94.3,92.9,95,94.1,97.8z
				 M94,98.7c-1.1-0.7-0.9-1.2-1.7-2.2c-0.3-0.4-1.1-1.2-2.9-1.9c-0.3,2.2,0,4.6,1.7,5.7c1.2,0.8,3.5,1.2,5.2-0.8
				C96.4,99.4,94.9,99.3,94,98.7z M94.6,98c0.9,0.6,2,0.9,3.4,0.4c1.1-1,0.6-4.9-3-5.5C95.7,95.2,94.1,95.3,94.6,98z M88.2,92.4
				c-0.9,1.3-1.8,2.9-2.1,4.2c-0.5,1.9,0.4,1.3,0.6,1.1c3.4-7.7,13-7.3,12.5,0.1c1.9-1.7,1.4-3.4,1-4.3C97.3,87.4,91,89.4,88.2,92.4
				z M101.3,95.2c0.3,2-0.7,3.5-0.7,3.9c1.6-0.7,4-3.3,4.5-5.9c-0.7,0-1.2-0.1-1.9,0.1C102.6,93.4,101.5,94.5,101.3,95.2z
				 M100.2,92.4c0.2,0.4,0.7,0.9,0.8,1.8c0.6-0.8,1.4-1.4,2.2-1.6c1.3-0.3,2.8-0.2,4.2-1.6c-3.9,2.2-5.7,0.1-7.6-1.3
				C99.8,90.2,99.8,91.1,100.2,92.4z M96.5,86.1c-0.5-0.1-1,0.1-1.7,0.3c-1.3,0.4-1.5,0.8-2,1.3c1.8-0.6,2.5-0.5,4.3-0.1
				c0.4,0.1,2,0.9,2.3,1.2c0,0-0.2-1.4-0.2-1.6C97.7,87.1,97.1,86.3,96.5,86.1z M99.8,87.3c0.1,0.5-0.1,1.4,0,2
				c1.1,0.7,2.8,2,2.7,1.8c-0.5-0.9-0.6-4.5-0.7-4.5C101.4,86.8,100.5,87.2,99.8,87.3z"/>
		</g>
	</g>
	<g>
		<g>
			<path class="st0" d="M28.8,85.3c1,0.2,1.9-0.7,1.8-1.5c0-0.2,0-0.3,0.3-0.7c0,0-3.9,2.3-3.8,2.2C27.5,85.6,27.8,85.1,28.8,85.3z"
				/>
			<path class="st0" d="M31.7,82.6c0.1,0.1,0.1,0.3,0.2,0.5c0,0.1,0.1,0.4-0.1,1.1c-0.1,0.2-0.2,0.5-0.3,0.7
				c-0.5,0.9-1.4,1.4-2.5,1.6c-0.3,0-1.6,0.1-2.8-0.6c-0.2,0.1-0.3,0.2-0.6,0.3c-0.6,0.5-1.5,1.4-2.4,2c-1.1,0.8-2.3,0.7-3.7,1.5
				c0.6,1.2,0.4,1.5,3,3.4c1.1,3.3,3.7,6.2,5.6,7.1c1.4,2,3.1,3.9,5.8,4.7c2.1,0.3,3.4-0.3,4.7-1.1c0.3-0.2,0.2,1.5-3.4,2.9
				c2.1-0.1,4.5-1.6,4.5-3.6c1-1.1,1.7-2.1,2.1-3.6c2.6-0.8,0.1-7.3-3.6-9.5c-2.7-1.7-6.8-1.7-9.8,1.9c0.3-0.8,0.6-1.8,0.6-2.6
				c0.6-0.4,1.9-1,2.8-1.1c1.7-0.3,4.4,0.3,6.2,1.1c-2.1-1.3-1.3-2.3-5.5-4.1c0.4-0.8,0.5-2.3,0-3L31.7,82.6z M20.2,90.1
				c0.4-0.1,2.4-1,2.8-1.2c1.2-0.6,1.4-1,2.6-2.3c0,0.3-0.2,2.5-0.3,2.8C25,92.6,20.4,90.7,20.2,90.1z M38.9,102.5
				c-5.3,4.2-9.7-0.8-10.8-4.8c0.6,0.8,1.3,1.6,2.5,1.8c0.3,0,0.8,0.1,1,0c2.2,2.9,4.6,2.3,6.3,1c1.3-1,1.9-3.2,1-5.9
				C43.3,98.7,39.3,102.2,38.9,102.5z M34,97.8c0.8-2.9-0.7-3.6-0.4-5c1.4-0.1,2.1,0,4.8,1.4C37.8,94.3,35.2,95,34,97.8z M34.1,98.6
				c1.1-0.7,0.9-1.2,1.7-2.2c0.3-0.4,1.1-1.2,2.9-1.9c0.3,2.2,0,4.6-1.7,5.7c-1.2,0.8-3.5,1.2-5.2-0.8
				C31.8,99.4,33.2,99.2,34.1,98.6z M33.5,98c-0.9,0.6-2,0.9-3.4,0.4c-1.1-1-0.6-4.9,3-5.5C32.4,95.1,34.1,95.2,33.5,98z M39.9,92.4
				c0.8,1.3,1.8,2.9,2.1,4.2c0.5,1.9-0.4,1.3-0.6,1.1c-3.4-7.7-13-7.3-12.5,0.1c-1.9-1.7-1.4-3.4-1-4.3
				C30.8,87.4,37.1,89.3,39.9,92.4z M26.8,95.1c-0.4,2,0.7,3.5,0.7,3.9c-1.6-0.7-4-3.3-4.5-5.9c0.7,0,1.2-0.1,1.9,0.1
				C25.5,93.3,26.6,94.4,26.8,95.1z M27.9,92.3c-0.2,0.4-0.7,0.9-0.8,1.8c-0.6-0.8-1.4-1.4-2.2-1.6c-1.3-0.3-2.8-0.2-4.2-1.6
				c3.9,2.2,5.7,0.1,7.6-1.3C28.4,90.2,28.3,91,27.9,92.3z M31.7,86.1c0.5-0.1,1,0.1,1.7,0.3c1.3,0.4,1.5,0.8,2,1.3
				c-1.8-0.6-2.5-0.5-4.3-0.1c-0.4,0.1-2,0.9-2.3,1.2c0,0,0.2-1.4,0.2-1.6C30.5,87,31,86.3,31.7,86.1z M28.3,87.2
				c-0.1,0.5,0.1,1.4,0,2c-1.1,0.7-2.8,2-2.7,1.8c0.5-0.9,0.6-4.5,0.7-4.5C26.7,86.8,27.7,87.1,28.3,87.2z"/>
		</g>
		<g>
			<path class="st0" d="M27.9,83.8c0.3-0.9,1.6-1.3,2.2-0.8c0.1,0.1,0.3,0.1,0.7,0.1c0,0-3.9,2.2-3.8,2.2
				C27,84.9,27.6,84.8,27.9,83.8z"/>
			<path class="st0" d="M31.7,82.6c-0.1-0.1-0.2-0.3-0.3-0.4c-0.1,0-0.3-0.2-1-0.4c-0.2-0.1-0.5-0.1-0.8-0.1c-1.1,0-1.9,0.5-2.6,1.4
				c-0.2,0.2-0.8,1.3-0.8,2.7c-0.2,0.1-0.3,0.2-0.6,0.4c-0.8,0.3-2,0.6-2.9,1.1c-1.2,0.5-1.7,1.7-3.2,2.5c-0.7-1.1-1.1-1.1-1.5-4.3
				c-2.3-2.6-3.5-6.3-3.4-8.4c-1-2.2-1.9-4.7-1.1-7.3c0.8-2,2-2.8,3.3-3.5c0.3-0.1-1.2-0.9-4.2,1.6c1.1-1.7,3.6-3.1,5.3-2.1
				c1.5-0.4,2.7-0.4,4.2,0c2-1.9,6.4,3.5,6.4,7.8c0.1,3.2-1.9,6.8-6.5,7.5c0.9,0.2,1.9,0.4,2.6,0.7c0.6-0.3,1.8-1.2,2.4-1.9
				c1.1-1.3,1.9-4,2.1-5.9c0.1,2.5,1.3,2.3,0.8,6.8c0.9,0,2.2,0.7,2.6,1.5L31.7,82.6z M19.5,88.9c0.3-0.3,2.1-1.6,2.5-1.8
				c1.1-0.7,1.6-0.7,3.3-1.1c-0.2-0.2-2.2-1-2.5-1.2C19.7,83.4,19.1,88.4,19.5,88.9z M18.1,66.5c-6.3,2.5-4.2,8.8-1.3,11.8
				c-0.4-0.9-0.7-1.9-0.3-3.1c0.1-0.2,0.3-0.7,0.5-0.8c-1.4-3.4,0.3-5.2,2.3-6c1.5-0.6,3.7,0,5.6,2.1C23.6,64.6,18.5,66.3,18.1,66.5
				z M19.7,73.1c2.9,0.7,2.8,2.4,4.1,2.8c0.8-1.2,1.1-1.8,1.2-4.9C24.7,71.6,22.8,73.4,19.7,73.1z M19,72.6c1.2-0.6,1.5-0.2,2.8-0.3
				c0.5-0.1,1.6-0.3,3-1.5c-1.8-1.4-3.9-2.3-5.7-1.4c-1.3,0.6-2.8,2.4-1.9,4.9C17.2,74.2,18.1,73,19,72.6z M19.4,73.4
				c-1,0.5-1.8,1.3-2,2.8c0.4,1.5,3.9,3,6.3,0.1C21.3,75.8,22,74.3,19.4,73.4z M27.4,70.6c-0.7-1.4-1.6-3-2.5-3.9
				c-1.4-1.4-1.3-0.3-1.2-0.1c4.9,6.8-0.1,14.9-6.3,10.8c0.6,2.5,2.2,2.9,3.2,3C27.2,81,28.6,74.6,27.4,70.6z M18.5,80.6
				c-1.9-0.7-2.7-2.4-3-2.6c-0.2,1.8,0.8,5.1,2.8,6.9c0.3-0.6,0.7-1,0.9-1.7C19.4,82.6,19,81.1,18.5,80.6z M21.4,81.1
				c-0.4-0.1-1.1,0.2-2-0.2c0.4,0.9,0.5,1.9,0.3,2.7c-0.4,1.3-1.3,2.5-0.7,4.4c0.1-4.5,2.8-5,4.9-6C23.5,81.8,22.8,81.4,21.4,81.1z
				 M28.7,80.9c0.4-0.3,0.4-1,0.6-1.6c0.3-1.3,0-1.7-0.1-2.4c-0.4,1.8-0.8,2.4-2,3.8c-0.3,0.3-1.7,1.2-2.2,1.4c0,0,1.3,0.6,1.5,0.6
				C27.3,81.5,28.2,81.4,28.7,80.9z M26.1,83.3c-0.5-0.2-1.2-0.8-1.7-0.9c-1.2,0.6-3.1,1.4-2.9,1.4c1,0,4.2,1.7,4.3,1.7
				C25.6,84.9,25.8,83.9,26.1,83.3z"/>
		</g>
	</g>
</g>
<path class="st0" d="M64.2,97.8L34.4,46.2l59.6,0L64.2,97.8z M37.9,48.2l26.3,45.6l26.3-45.6L37.9,48.2z"/>
<path class="st0" d="M34.3,80.9l29.8-51.6l29.8,51.6L34.3,80.9z M64.1,33.3L37.7,78.9l52.7,0L64.1,33.3z"/>
<path class="st0" d="M64.1,29.9C45.2,29.9,30,45.1,30,63.9C30,82.7,45.2,98,64.1,98c18.8,0,34.1-15.2,34.1-34.1
	C98.1,45.1,82.9,29.9,64.1,29.9z M64.1,96.3c-17.9,0-32.4-14.5-32.4-32.4c0-17.9,14.5-32.4,32.4-32.4S96.5,46,96.5,63.9
	C96.5,81.8,82,96.3,64.1,96.3z"/>
<path class="st0" d="M64.1-0.1c-35.3,0-64,28.7-64,64c0,35.4,28.7,64,64,64c35.3,0,64-28.7,64-64C128.1,28.6,99.4-0.1,64.1-0.1z
	 M64.1,125.9c-34.2,0-62-27.7-62-62c0-34.2,27.8-62,62-62c34.2,0,62,27.8,62,62C126.1,98.2,98.3,125.9,64.1,125.9z"/>
<circle class="st1" cx="64.1" cy="63.9" r="53.6"/>
<g class="st2">
	<path class="st0" d="M66.5,5l1,0c0.6,0,1.3,0,1.9,0.1l0,0l-0.3,1.3l-0.2,0l-0.2-0.9l-1.5-0.1l-0.1,2l0.2,0c0.2,0,0.5,0,0.7,0
		c0.1,0,0.1,0,0.1-0.1l0.2-0.5l0.3,0c0,0.4,0,0.7,0,0.8c0,0.2,0,0.5,0,0.8l-0.3,0L68.2,8c0-0.1-0.1-0.1-0.1-0.1c-0.3,0-0.5,0-0.7,0
		l-0.2,0l-0.1,1.3c0,0.3,0,0.6,0,0.8l1.5,0.1l0.5-1l0.2,0l-0.2,1.4l0,0c-0.6,0-1.3-0.1-1.9-0.1l-1,0c-0.3,0-0.7,0-1,0l0-0.2l0.5-0.1
		c0.1,0,0.1-0.1,0.1-0.1c0-0.1,0-0.2,0-0.3c0-0.1,0-0.3,0-0.4L66,6.1c0-0.1,0-0.2,0-0.4c0-0.1,0-0.2,0-0.3c0-0.1,0-0.1-0.1-0.1
		l-0.5-0.2l0-0.2C65.8,5,66.2,5,66.5,5z"/>
</g>
<g class="st2">
	<path class="st0" d="M73,10.7c0,0.1,0,0.1,0.1,0.1l0.5,0.2l0,0.2c-0.3-0.1-0.6-0.1-0.8-0.2c-0.2,0-0.5-0.1-0.9-0.1l0-0.2l0.5,0
		c0.1,0,0.1,0,0.1-0.1c0-0.2,0.1-0.5,0.1-0.8l0.5-3c0-0.3,0.1-0.5,0.1-0.6c0-0.1,0-0.1-0.1-0.1l-0.5-0.2l0-0.2
		c0.4,0.1,0.6,0.1,0.8,0.2c0.2,0,0.5,0.1,0.7,0.1l2,3.6c0.1,0.1,0.2,0.3,0.2,0.5c0-0.2,0.1-0.3,0.1-0.5l0.4-2C76.9,7.2,77,7,77,6.8
		c0-0.1,0-0.1-0.1-0.1l-0.5-0.2l0-0.2c0.3,0.1,0.6,0.1,0.8,0.2c0.2,0,0.5,0.1,0.8,0.1l0,0.2l-0.5,0.1c-0.1,0-0.1,0-0.1,0.1
		c0,0.2-0.1,0.4-0.1,0.6l-0.8,4.2l-0.4,0l-2.3-4.3c-0.1-0.1-0.1-0.3-0.2-0.5c0,0.2-0.1,0.4-0.1,0.5l-0.4,2.4
		C73.1,10.2,73,10.5,73,10.7z"/>
</g>
<g class="st2">
	<path class="st0" d="M82.6,9.1l-1,2.9c0,0.1-0.1,0.3-0.1,0.4s-0.1,0.2-0.1,0.3c0,0.1,0,0.1,0.1,0.2l0.4,0.3l-0.1,0.2
		c-0.3-0.1-0.7-0.2-1.1-0.4c-0.4-0.1-0.8-0.3-1.1-0.4l0-0.2l0.5,0c0.1,0,0.1,0,0.1-0.1c0-0.1,0.1-0.2,0.1-0.3c0-0.1,0.1-0.3,0.1-0.4
		l1-2.9c0-0.1,0.1-0.2,0.1-0.3c0-0.1,0.1-0.2,0.1-0.3c0-0.1,0-0.1,0-0.2l-0.4-0.3l0.1-0.2c0.3,0.1,0.7,0.3,1.1,0.4
		c0.4,0.1,0.8,0.3,1.1,0.3l0,0.2l-0.5,0c-0.1,0-0.1,0-0.1,0.1c0,0.1-0.1,0.2-0.1,0.3C82.7,8.9,82.7,9,82.6,9.1z M82.2,10.7l2.1-1.1
		c0.2-0.1,0.3-0.2,0.4-0.2s0.2-0.1,0.2-0.2c0,0,0-0.1-0.1-0.1l-0.3-0.2l0.1-0.2c0.3,0.1,0.5,0.2,0.8,0.3c0.3,0.1,0.6,0.2,0.9,0.3
		l0,0.2l-0.5,0c-0.1,0-0.3,0-0.4,0.1c-0.1,0-0.2,0.1-0.4,0.2l-1.7,1l0.8,2.9c0,0.1,0.1,0.2,0.1,0.3c0,0.1,0.1,0.1,0.2,0.2l0.3,0.2
		l-0.1,0.2c-0.3-0.1-0.5-0.2-0.8-0.3c-0.3-0.1-0.6-0.2-0.9-0.3c0-0.2-0.1-0.6-0.3-1.2L82.2,10.7z"/>
</g>
<g class="st2">
	<path class="st0" d="M88.5,14.4l-0.6,0.5c-0.1,0.1-0.2,0.2-0.3,0.2s-0.1,0.1-0.1,0.2c0,0,0,0.1,0,0.1c0,0,0,0.1,0.1,0.1l0.3,0.3
		l-0.1,0.2c-0.3-0.2-0.6-0.3-0.8-0.4c-0.2-0.1-0.5-0.2-0.8-0.4l0.1-0.2l0.4,0.1c0.1,0,0.2,0,0.3,0c0.1,0,0.2-0.1,0.3-0.2l3.8-3.3
		l0.4,0.1l-0.6,4.9c0,0.2,0,0.3,0,0.4c0,0.1,0.1,0.2,0.1,0.2l0.3,0.3l-0.1,0.2c-0.3-0.2-0.6-0.3-0.9-0.5c-0.4-0.2-0.8-0.4-1.2-0.6
		l0.1-0.2l0.4,0.1c0.1,0,0.1,0,0.1,0c0,0,0.1,0,0.1-0.1c0,0,0-0.1,0.1-0.2c0-0.1,0-0.2,0-0.3l0.1-0.8L88.5,14.4z M90.2,12.7
		c-0.1,0.1-0.2,0.2-0.3,0.3l-1.1,1l1.2,0.6l0.2-1.5C90.2,13,90.2,12.9,90.2,12.7z"/>
</g>
<g class="st2">
	<path class="st0" d="M94.2,19.1c0,0.1,0,0.1,0,0.2l0.3,0.4l-0.1,0.2c-0.3-0.2-0.5-0.4-0.7-0.5c-0.2-0.1-0.4-0.3-0.7-0.5l0.1-0.2
		l0.5,0.2c0.1,0,0.1,0,0.2,0c0.1-0.2,0.3-0.4,0.4-0.6l1.7-2.5c0.1-0.2,0.3-0.4,0.4-0.5c0-0.1,0-0.1,0-0.2l-0.3-0.4l0.1-0.2
		c0.3,0.2,0.5,0.4,0.7,0.5c0.2,0.1,0.4,0.3,0.6,0.4l0.3,4.1c0,0.2,0,0.3,0,0.5c0.1-0.1,0.2-0.3,0.3-0.4l1.1-1.7
		c0.1-0.2,0.3-0.4,0.4-0.5c0,0,0-0.1,0-0.2L99,16.7l0.1-0.2c0.3,0.2,0.5,0.4,0.7,0.5c0.2,0.1,0.4,0.3,0.7,0.5l-0.1,0.2l-0.5-0.2
		c-0.1,0-0.1,0-0.1,0.1c-0.1,0.1-0.2,0.3-0.4,0.5L97,21.6l-0.4-0.2l-0.3-4.9c0-0.1,0-0.3,0-0.5c-0.1,0.2-0.2,0.3-0.3,0.4l-1.4,2
		C94.4,18.7,94.3,18.9,94.2,19.1z"/>
</g>
<g class="st2">
	<path class="st0" d="M106.9,29.7c-0.1,0.1-0.2,0.2-0.3,0.3c-0.1,0.1-0.2,0.2-0.3,0.2c0,0-0.1,0.1,0,0.2l0.2,0.4l-0.1,0.1
		c-0.2-0.3-0.5-0.6-0.8-0.9c-0.3-0.3-0.6-0.6-0.8-0.9l0.1-0.1l0.4,0.3c0.1,0,0.1,0,0.2,0c0.1-0.1,0.2-0.1,0.3-0.2
		c0.1-0.1,0.2-0.2,0.3-0.3l2.3-2c0.1-0.1,0.2-0.2,0.3-0.2c0.1-0.1,0.2-0.1,0.2-0.2c0,0,0.1-0.1,0-0.2l-0.2-0.5l0.1-0.1
		c0.2,0.3,0.5,0.6,0.8,0.9c0.3,0.3,0.6,0.6,0.8,0.9l-0.1,0.1l-0.4-0.3c-0.1,0-0.1,0-0.2,0c-0.1,0.1-0.1,0.1-0.2,0.2
		c-0.1,0.1-0.2,0.1-0.3,0.2L106.9,29.7z"/>
</g>
<g class="st2">
	<path class="st0" d="M113.5,32.5c0-0.2-0.1-0.3-0.2-0.5c-0.2-0.2-0.4-0.4-0.6-0.4s-0.5,0-0.7,0.1c-0.1,0.1-0.2,0.2-0.3,0.3
		c-0.1,0.1-0.1,0.2-0.1,0.4s0,0.3,0,0.4c0,0.1,0,0.3,0.1,0.5c0,0.2,0,0.3,0.1,0.5c0,0.2,0,0.4,0,0.5c0,0.2-0.1,0.3-0.2,0.5
		c-0.1,0.2-0.2,0.3-0.4,0.4c-0.4,0.3-0.9,0.4-1.4,0.2c-0.5-0.2-0.9-0.5-1.2-1c-0.3-0.4-0.5-0.8-0.6-1.3l0,0l1.3-0.6l0.2,0.2
		l-0.8,0.9c0,0.2,0.1,0.4,0.2,0.6c0.2,0.3,0.4,0.4,0.7,0.5c0.2,0.1,0.5,0,0.7-0.1c0.1-0.1,0.2-0.2,0.3-0.3c0.1-0.1,0.1-0.2,0.1-0.4
		c0-0.1,0-0.3,0-0.4c0-0.1,0-0.3-0.1-0.5c0-0.2,0-0.3-0.1-0.5c0-0.2,0-0.4,0-0.5c0-0.2,0.1-0.3,0.2-0.5c0.1-0.2,0.2-0.3,0.4-0.4
		c0.4-0.3,0.8-0.3,1.3-0.2c0.5,0.1,0.8,0.5,1.2,1c0.2,0.3,0.4,0.7,0.6,1.2l0,0l-1.2,0.5l-0.1-0.2L113.5,32.5z"/>
</g>
<g class="st2">
	<path class="st0" d="M116.3,45.9l-0.8,0c-0.2,0-0.3,0-0.4,0c-0.1,0-0.2,0-0.2,0c0,0-0.1,0-0.1,0.1c0,0,0,0.1,0,0.1l0,0.4l-0.2,0.1
		c-0.1-0.4-0.2-0.6-0.3-0.9c-0.1-0.2-0.2-0.5-0.3-0.8l0.2-0.1l0.2,0.4c0.1,0.1,0.1,0.1,0.2,0.2c0.1,0,0.2,0,0.3,0l5,0.3l0.2,0.4
		l-3.9,3.1c-0.1,0.1-0.2,0.2-0.3,0.3s-0.1,0.2-0.1,0.3l0,0.4l-0.2,0.1c-0.1-0.3-0.2-0.7-0.3-1c-0.2-0.4-0.3-0.9-0.5-1.3l0.2-0.1
		l0.2,0.3c0,0,0.1,0.1,0.1,0.1s0.1,0,0.1,0c0,0,0.1-0.1,0.2-0.1c0.1-0.1,0.2-0.1,0.3-0.2l0.6-0.5L116.3,45.9z M118.7,46
		c-0.1,0-0.3,0-0.4,0l-1.5,0l0.4,1.2l1.2-0.9C118.5,46.2,118.6,46.1,118.7,46z"/>
</g>
<g class="st2">
	<path class="st0" d="M117,53.3c-0.1,0-0.1,0.1-0.1,0.1l0,0.5l-0.2,0c-0.1-0.3-0.1-0.6-0.1-0.8c0-0.2-0.1-0.5-0.2-0.8l0.2-0.1
		l0.2,0.5c0,0.1,0.1,0.1,0.1,0.1c0.2,0,0.5-0.1,0.8-0.1l3-0.6c0.3,0,0.5-0.1,0.6-0.1c0.1,0,0.1-0.1,0.1-0.1l0.1-0.5l0.2,0
		c0.1,0.4,0.1,0.6,0.1,0.8c0,0.2,0.1,0.5,0.1,0.7l-2.7,3.1c-0.1,0.1-0.2,0.3-0.3,0.4c0.2,0,0.3-0.1,0.5-0.1l2-0.4
		c0.2,0,0.5-0.1,0.6-0.1c0.1,0,0.1-0.1,0.1-0.1l0-0.5l0.2,0c0.1,0.4,0.1,0.6,0.1,0.9c0,0.2,0.1,0.5,0.2,0.8l-0.2,0.1l-0.2-0.5
		c0-0.1-0.1-0.1-0.1-0.1c-0.2,0-0.4,0.1-0.6,0.1l-4.2,0.8l-0.1-0.4l3.2-3.7c0.1-0.1,0.2-0.2,0.3-0.4c-0.2,0-0.4,0.1-0.5,0.1
		l-2.4,0.5C117.5,53.2,117.2,53.2,117,53.3z"/>
</g>
<g class="st2">
	<path class="st0" d="M122.8,69.4l-0.1,1c-0.1,0.6-0.1,1.3-0.2,1.9l0,0l-1.3-0.4l0-0.2l1-0.2l0.1-1.5l-2-0.2l0,0.2
		c0,0.2,0,0.5-0.1,0.7c0,0.1,0,0.1,0.1,0.1l0.5,0.2l0,0.3c-0.4,0-0.6-0.1-0.8-0.1c-0.2,0-0.5,0-0.8-0.1l0-0.3l0.6-0.1
		c0.1,0,0.1-0.1,0.1-0.1c0-0.3,0.1-0.5,0.1-0.7l0-0.2l-1.3-0.1c-0.3,0-0.6,0-0.8-0.1l-0.1,1.5l1,0.6l0,0.2l-1.4-0.2l0,0
		c0.1-0.6,0.1-1.3,0.2-1.9l0.1-1c0-0.3,0.1-0.7,0.1-1l0.2,0l0.1,0.5c0,0.1,0,0.1,0.1,0.1c0.1,0,0.2,0,0.3,0c0.1,0,0.3,0,0.4,0
		l3.1,0.3c0.1,0,0.2,0,0.4,0c0.1,0,0.2,0,0.3,0c0.1,0,0.1,0,0.1-0.1l0.2-0.5l0.2,0C122.8,68.7,122.8,69.1,122.8,69.4z"/>
</g>
<g class="st2">
	<path class="st0" d="M115.4,79.6c0.1-0.3,0.2-0.7,0.3-1.2c0.1-0.4,0.2-0.8,0.3-1.3l0.2,0l0,0.4c0,0.1,0,0.1,0,0.1c0,0,0,0,0.1,0.1
		c0.1,0,0.1,0,0.2,0c0.1,0,0.2-0.1,0.3-0.1l1.5-0.5l-1-1c-0.1-0.1-0.2-0.2-0.3-0.3c-0.1-0.1-0.2-0.1-0.2-0.1c0,0-0.1,0-0.1,0
		c0,0-0.1,0-0.1,0.1l-0.2,0.3l-0.2,0c0.1-0.3,0.1-0.6,0.2-0.9c0.1-0.3,0.1-0.6,0.2-0.9l0.2,0l0,0.5c0,0.1,0,0.2,0.1,0.3
		c0,0.1,0.1,0.2,0.2,0.3l1.6,1.7l2.3-0.8c0.1-0.1,0.3-0.1,0.3-0.2c0.1,0,0.1-0.1,0.2-0.2l0.2-0.4l0.2,0c-0.1,0.4-0.2,0.8-0.3,1.2
		c-0.1,0.4-0.2,0.8-0.3,1.3l-0.2,0l0-0.4c0-0.1,0-0.1,0-0.1c0,0,0,0-0.1-0.1c-0.1,0-0.1,0-0.2,0c-0.1,0-0.2,0.1-0.3,0.1l-1.2,0.4
		l0.8,0.8c0.1,0.1,0.2,0.2,0.3,0.3c0.1,0.1,0.2,0.1,0.2,0.1c0.1,0,0.1,0,0.2-0.1l0.2-0.3l0.2,0c-0.1,0.3-0.1,0.6-0.2,0.9
		c-0.1,0.3-0.1,0.6-0.2,0.9l-0.2,0l0-0.4c0-0.1,0-0.2-0.1-0.3c0-0.1-0.1-0.2-0.3-0.3l-1.3-1.4l-2.6,0.9C116.2,79,116,79,116,79
		c-0.1,0-0.1,0.1-0.2,0.2l-0.2,0.4L115.4,79.6z"/>
</g>
<g class="st2">
	<path class="st0" d="M115.2,83.7c-0.1-0.1-0.3-0.1-0.4-0.1c-0.1,0-0.2-0.1-0.3-0.1c-0.1,0-0.1,0-0.2,0.1L114,84l-0.2-0.1
		c0.1-0.4,0.3-0.8,0.5-1.2c0.2-0.4,0.3-0.8,0.4-1.1l0.2,0l0,0.5c0,0.1,0,0.1,0.1,0.1c0.1,0,0.2,0.1,0.3,0.1c0.1,0,0.3,0.1,0.4,0.1
		l2.9,1.1c0.1,0,0.2,0.1,0.3,0.1c0.1,0,0.2,0.1,0.3,0.1c0.1,0,0.1,0,0.2,0l0.3-0.4l0.2,0.1c-0.1,0.3-0.3,0.7-0.4,1
		c-0.1,0.2-0.2,0.4-0.2,0.7c-0.1,0.2-0.1,0.4-0.2,0.6c-0.2,0.7-0.5,1.1-0.9,1.4c-0.4,0.3-0.7,0.3-1.2,0.1c-0.5-0.2-0.9-0.5-1-1
		c-0.2-0.5-0.1-1,0.1-1.6c0.1-0.2,0.1-0.4,0.2-0.5L115.2,83.7z M116.5,84.2c-0.1,0.1-0.1,0.3-0.2,0.4c-0.1,0.3-0.1,0.6,0,0.8
		c0.1,0.2,0.4,0.4,0.8,0.6c0.4,0.1,0.7,0.2,0.9,0.1c0.2-0.1,0.4-0.3,0.6-0.6c0-0.1,0.1-0.3,0.1-0.4L116.5,84.2z"/>
</g>
<g class="st2">
	<path class="st0" d="M114.9,91.6l-2.7-1.4c-0.2-0.1-0.5-0.3-0.7-0.4l-0.7,1.3l0.7,1l-0.1,0.2l-1.3-0.8l0,0c0.3-0.6,0.6-1.1,0.9-1.6
		l0.4-0.8c0.2-0.3,0.3-0.7,0.5-0.9l0.2,0.1l-0.1,0.5c0,0.1,0,0.1,0.1,0.1c0.1,0.1,0.2,0.1,0.3,0.2s0.2,0.1,0.4,0.2l2.7,1.4
		c0.1,0.1,0.2,0.1,0.3,0.2c0.1,0,0.2,0.1,0.3,0.1c0.1,0,0.1,0,0.2,0l0.4-0.4l0.2,0.1c-0.2,0.3-0.3,0.6-0.5,1c-0.2,0.4-0.4,0.7-0.5,1
		l-0.2-0.1l0.1-0.5c0-0.1,0-0.1-0.1-0.1c-0.1,0-0.2-0.1-0.3-0.2C115,91.6,114.9,91.6,114.9,91.6z"/>
</g>
<g class="st2">
	<path class="st0" d="M108.7,95.8c-0.1-0.1-0.2-0.2-0.4-0.2c-0.1-0.1-0.2-0.1-0.3-0.2c-0.1,0-0.1,0-0.2,0l-0.4,0.3l-0.2-0.1
		c0.2-0.3,0.4-0.6,0.7-1c0.3-0.4,0.5-0.7,0.7-1l0.2,0.1l-0.2,0.5c0,0.1,0,0.1,0,0.2c0.1,0.1,0.2,0.1,0.3,0.2
		c0.1,0.1,0.2,0.2,0.4,0.2l2.6,1.7c0.1,0.1,0.2,0.1,0.3,0.2s0.2,0.1,0.2,0.2c0.1,0,0.1,0,0.2,0l0.4-0.3l0.2,0.1
		c-0.2,0.3-0.4,0.6-0.7,1c-0.2,0.4-0.5,0.7-0.7,1l-0.2-0.1l0.2-0.5c0-0.1,0-0.1,0-0.1c-0.1-0.1-0.2-0.1-0.2-0.2
		c-0.1-0.1-0.2-0.1-0.3-0.2L108.7,95.8z"/>
</g>
<g class="st2">
	<path class="st0" d="M105.9,103.5l0.1-0.2l1,0.5c0.2-0.1,0.3-0.3,0.5-0.4c0.4-0.4,0.5-0.9,0.4-1.4c-0.1-0.5-0.4-1-1-1.4
		c-0.6-0.5-1.1-0.7-1.7-0.7c-0.6,0-1.1,0.2-1.5,0.7c-0.2,0.3-0.4,0.6-0.6,1l-0.2-0.1c0.1-0.6,0.3-1.2,0.7-1.7c0.5-0.6,1.2-1,1.9-1.1
		c0.7-0.1,1.4,0.2,2,0.7c0.7,0.6,1,1.2,1,2s-0.3,1.5-0.9,2.2c-0.3,0.3-0.6,0.7-1,1l0,0L105.9,103.5z"/>
</g>
<g class="st2">
	<path class="st0" d="M100.3,105c-0.1-0.1-0.2-0.2-0.3-0.3c-0.1-0.1-0.2-0.2-0.2-0.2c0,0-0.1,0-0.2,0l-0.4,0.2l-0.1-0.1
		c0.3-0.2,0.6-0.5,0.9-0.8c0.3-0.3,0.6-0.6,0.9-0.8l0.1,0.1l-0.3,0.5c0,0.1,0,0.1,0,0.2c0.1,0.1,0.1,0.2,0.2,0.3s0.2,0.2,0.3,0.3
		l2.1,2.2c0.1,0.1,0.2,0.2,0.2,0.3c0.1,0.1,0.1,0.1,0.2,0.2c0,0,0.1,0.1,0.2,0l0.5-0.2l0.1,0.1c-0.3,0.2-0.6,0.5-0.9,0.8
		c-0.3,0.3-0.6,0.6-0.9,0.8l-0.1-0.1l0.3-0.5c0-0.1,0-0.1,0-0.2c-0.1-0.1-0.1-0.1-0.2-0.2c-0.1-0.1-0.2-0.2-0.2-0.3L100.3,105z"/>
</g>
<g class="st2">
	<path class="st0" d="M95.2,107.5c0.4-0.3,0.7-0.5,1-0.8l0.1,0.1l-0.4,0.5c0,0.1,0,0.1,0,0.2c0.1,0.2,0.3,0.4,0.4,0.6l2.3,3l0.9-0.7
		l-0.3-1l0.2-0.2l0.9,1.1l0,0c-0.5,0.4-1,0.7-1.5,1.1l-0.9,0.6c-0.5,0.3-0.9,0.7-1.5,1.1l0,0l-0.6-1.3l0.2-0.2l0.8,0.7l0.9-0.7
		l-2.3-3c-0.2-0.2-0.3-0.4-0.5-0.6c0,0-0.1-0.1-0.2,0l-0.6,0.2l-0.1-0.1C94.6,108,94.9,107.8,95.2,107.5z"/>
</g>
<g class="st2">
	<path class="st0" d="M83.9,115.5l0-0.8c0-0.2,0-0.3,0-0.4c0-0.1,0-0.2,0-0.2c0,0,0-0.1-0.1-0.1c0,0-0.1,0-0.1,0l-0.4,0l-0.1-0.2
		c0.4-0.1,0.6-0.2,0.9-0.3c0.2-0.1,0.5-0.2,0.8-0.3l0.1,0.2l-0.3,0.3c-0.1,0.1-0.1,0.1-0.2,0.2c0,0.1,0,0.2,0,0.3l-0.1,5.1l-0.4,0.2
		l-3.2-3.8c-0.1-0.1-0.2-0.2-0.3-0.3c-0.1,0-0.2-0.1-0.3,0l-0.4,0l-0.1-0.2c0.3-0.1,0.7-0.2,1-0.4c0.4-0.2,0.9-0.3,1.3-0.5l0.1,0.2
		l-0.3,0.2c0,0-0.1,0.1-0.1,0.1c0,0,0,0.1,0,0.1c0,0,0.1,0.1,0.1,0.2c0.1,0.1,0.1,0.2,0.2,0.3l0.5,0.6L83.9,115.5z M83.9,117.9
		c0-0.1,0-0.3,0-0.4l0-1.5l-1.2,0.5l0.9,1.1C83.8,117.7,83.9,117.8,83.9,117.9z"/>
</g>
<g class="st2">
	<path class="st0" d="M76.6,116.5c0-0.1-0.1-0.1-0.1-0.1l-0.5,0l-0.1-0.2c0.3-0.1,0.6-0.1,0.8-0.2c0.2,0,0.5-0.1,0.8-0.2l0.1,0.2
		l-0.5,0.3c-0.1,0-0.1,0.1-0.1,0.1c0,0.2,0.1,0.5,0.2,0.8l0.7,3c0.1,0.2,0.1,0.5,0.1,0.6c0,0.1,0.1,0.1,0.1,0.1l0.5,0l0.1,0.2
		c-0.4,0.1-0.6,0.1-0.8,0.2c-0.2,0.1-0.5,0.1-0.7,0.2l-3.2-2.6c-0.1-0.1-0.3-0.2-0.4-0.3c0,0.2,0.1,0.3,0.1,0.5l0.4,2
		c0.1,0.2,0.1,0.5,0.1,0.6c0,0.1,0.1,0.1,0.1,0.1l0.5,0l0.1,0.2c-0.3,0.1-0.6,0.1-0.8,0.2c-0.2,0-0.5,0.1-0.8,0.2l-0.1-0.2l0.5-0.3
		c0.1,0,0.1-0.1,0.1-0.1c0-0.2-0.1-0.4-0.1-0.6l-0.9-4.2l0.4-0.1l3.8,3c0.1,0.1,0.2,0.2,0.4,0.3c0-0.2-0.1-0.4-0.1-0.5l-0.5-2.4
		C76.7,116.9,76.7,116.7,76.6,116.5z"/>
</g>
<g class="st2">
	<path class="st0" d="M68.8,117.3c0.3,0,0.7-0.1,1-0.1l0,0.2l-0.5,0.2c-0.1,0-0.1,0.1-0.1,0.1c0,0.1,0,0.2,0,0.3c0,0.1,0,0.3,0,0.4
		l0.2,3.1c0,0.1,0,0.2,0,0.4c0,0.1,0,0.2,0,0.3c0,0.1,0,0.1,0.1,0.1l0.5,0.1l0,0.2c-0.4,0-0.7,0-1,0.1c-0.3,0-0.5,0-0.8,0.1
		c-0.3,0-0.5,0.1-0.8,0.1c-1,0.1-1.7-0.1-2.2-0.5c-0.5-0.4-0.8-1-0.9-1.8c-0.1-0.9,0.1-1.7,0.6-2.3s1.2-0.9,2.2-1c0.3,0,0.5,0,0.7,0
		C68.3,117.3,68.5,117.3,68.8,117.3z M68.1,117.7c-0.1,0-0.2,0-0.4,0c-0.1,0-0.2,0-0.4,0c-0.6,0-1,0.3-1.2,0.7
		c-0.3,0.4-0.4,1-0.3,1.8c0.1,0.8,0.2,1.4,0.5,1.7c0.3,0.4,0.8,0.5,1.3,0.5c0.2,0,0.5,0,0.7-0.1L68.1,117.7z"/>
</g>
<g class="st2">
	<path class="st0" d="M50.3,120.9c0.1,0.1,0.3,0.2,0.5,0.2c0.3,0.1,0.5,0,0.7-0.1s0.4-0.3,0.4-0.5c0-0.1,0-0.3,0-0.4
		c0-0.1-0.1-0.2-0.2-0.3c-0.1-0.1-0.2-0.2-0.3-0.3c-0.1-0.1-0.2-0.2-0.4-0.3c-0.1-0.1-0.3-0.2-0.4-0.3c-0.1-0.1-0.3-0.3-0.4-0.4
		c-0.1-0.1-0.2-0.3-0.2-0.5s0-0.4,0-0.6c0.1-0.5,0.4-0.9,0.8-1.1s1-0.3,1.6-0.1c0.5,0.1,0.9,0.3,1.3,0.5l0,0l-0.5,1.3l-0.2,0l0-1.2
		c-0.2-0.1-0.4-0.2-0.6-0.2c-0.3-0.1-0.6,0-0.8,0.1c-0.2,0.1-0.4,0.3-0.4,0.6c0,0.2,0,0.3,0,0.4c0,0.1,0.1,0.2,0.2,0.3
		c0.1,0.1,0.2,0.2,0.3,0.3c0.1,0.1,0.2,0.2,0.4,0.3c0.1,0.1,0.3,0.2,0.4,0.3c0.1,0.1,0.3,0.2,0.4,0.4s0.2,0.3,0.2,0.5
		c0,0.2,0,0.4,0,0.6c-0.1,0.5-0.4,0.8-0.8,1c-0.4,0.2-0.9,0.3-1.5,0.1c-0.4-0.1-0.8-0.2-1.2-0.4l0,0l0.5-1.2l0.2,0L50.3,120.9z"/>
</g>
<g class="st2">
	<path class="st0" d="M45.9,115.7c0-0.1,0.1-0.3,0.1-0.4c0-0.1,0.1-0.2,0.1-0.3c0-0.1,0-0.1-0.1-0.2l-0.4-0.3l0-0.2
		c0.3,0.1,0.7,0.2,1.1,0.4c0.4,0.1,0.8,0.3,1.2,0.4l0,0.2l-0.5,0c-0.1,0-0.1,0-0.1,0.1c0,0.1-0.1,0.2-0.1,0.3c0,0.1-0.1,0.3-0.1,0.4
		l-0.9,2.9c0,0.1-0.1,0.2-0.1,0.3c0,0.1-0.1,0.2-0.1,0.3c0,0.1,0,0.1,0,0.1l0.4,0.3l0,0.2c-0.3-0.1-0.7-0.2-1.1-0.4
		c-0.4-0.1-0.8-0.3-1.2-0.4l0-0.2l0.5,0c0.1,0,0.1,0,0.1-0.1c0-0.1,0.1-0.2,0.1-0.3s0.1-0.2,0.1-0.3L45.9,115.7z"/>
</g>
<g class="st2">
	<path class="st0" d="M36.6,116.2c-0.3-0.2-0.6-0.3-0.9-0.4c-0.2-0.1-0.5-0.2-0.8-0.4l0.1-0.2l0.5,0.1c0.1,0,0.1,0,0.1-0.1
		c0.1-0.2,0.2-0.3,0.3-0.6l1.3-2.8c0.1-0.3,0.2-0.5,0.3-0.7c0-0.1,0-0.1,0-0.2l-0.4-0.3l0.1-0.2c0.3,0.2,0.7,0.3,1.1,0.5
		c0.4,0.2,0.7,0.3,1,0.5l-0.1,0.2l-0.5-0.1c-0.1,0-0.1,0-0.1,0.1c-0.1,0.2-0.2,0.4-0.3,0.7l-1.1,2.2c-0.1,0.1-0.2,0.4-0.3,0.7
		c0.2-0.2,0.4-0.3,0.5-0.5l3-2.7l0.3,0.1l-0.2,3.9c0,0.2,0,0.5-0.1,0.7c0.2-0.3,0.3-0.6,0.3-0.7l1-2.2c0.1-0.3,0.2-0.5,0.3-0.7
		c0-0.1,0-0.1,0-0.2l-0.3-0.3l0.1-0.2c0.3,0.1,0.5,0.3,0.7,0.3c0.2,0.1,0.5,0.2,0.8,0.4l-0.1,0.2l-0.5-0.1c-0.1,0-0.1,0-0.1,0.1
		c-0.1,0.2-0.2,0.4-0.3,0.7L41,117c-0.1,0.2-0.2,0.4-0.3,0.6c0,0.1,0,0.1,0,0.2l0.4,0.4l-0.1,0.2c-0.4-0.2-0.7-0.3-0.9-0.4
		c-0.3-0.1-0.5-0.2-0.8-0.4l0.2-3.6c0-0.2,0-0.3,0-0.4c-0.1,0.1-0.2,0.2-0.3,0.3L36.6,116.2z"/>
</g>
<g class="st2">
	<path class="st0" d="M32.9,109c0.1-0.1,0.2-0.2,0.2-0.3c0.1-0.1,0.1-0.2,0.2-0.3c0-0.1,0-0.1,0-0.2l-0.4-0.5l0.1-0.2
		c0.3,0.2,0.7,0.5,1,0.7c0.4,0.3,0.7,0.5,1,0.7l-0.1,0.2l-0.5-0.2c-0.1,0-0.1,0-0.2,0c-0.1,0.1-0.1,0.2-0.2,0.3
		c-0.1,0.1-0.2,0.2-0.2,0.3l-1.7,2.5c-0.1,0.1-0.1,0.2-0.2,0.3c-0.1,0.1-0.1,0.2-0.2,0.2c0,0.1,0,0.1,0,0.2l0.3,0.4l-0.1,0.2
		c-0.3-0.2-0.6-0.4-0.9-0.6c-0.2-0.1-0.4-0.3-0.6-0.4c-0.2-0.1-0.4-0.2-0.5-0.3c-0.6-0.4-0.9-0.8-1.1-1.2c-0.2-0.4-0.1-0.8,0.2-1.2
		c0.3-0.5,0.7-0.7,1.2-0.8c0.5,0,1,0.1,1.6,0.5c0.2,0.1,0.3,0.2,0.5,0.4L32.9,109z M32.1,110.2c-0.1-0.1-0.2-0.2-0.3-0.3
		c-0.3-0.2-0.5-0.2-0.8-0.2c-0.3,0.1-0.5,0.3-0.7,0.6c-0.2,0.3-0.3,0.6-0.3,0.9c0,0.3,0.2,0.5,0.5,0.7c0.1,0.1,0.2,0.2,0.4,0.2
		L32.1,110.2z"/>
</g>
<g class="st2">
	<path class="st0" d="M25.3,106.9l2-2.3c0.2-0.2,0.4-0.4,0.5-0.6l-1.1-1l-1.1,0.5l-0.2-0.1l1.1-1.1l0,0c0.5,0.4,0.9,0.8,1.4,1.2
		l0.7,0.6c0.3,0.3,0.6,0.5,0.8,0.7l-0.1,0.2l-0.5-0.2c-0.1,0-0.1,0-0.2,0c-0.1,0.1-0.1,0.2-0.2,0.3c-0.1,0.1-0.2,0.2-0.3,0.3l-2,2.3
		c-0.1,0.1-0.2,0.2-0.2,0.3c-0.1,0.1-0.1,0.2-0.2,0.2c0,0.1,0,0.1,0,0.2l0.3,0.4l-0.1,0.2c-0.2-0.2-0.5-0.5-0.9-0.8
		c-0.3-0.3-0.6-0.5-0.9-0.8l0.1-0.2l0.5,0.2c0.1,0,0.1,0,0.2,0c0.1-0.1,0.2-0.2,0.3-0.3C25.2,107,25.3,106.9,25.3,106.9z"/>
</g>
<g class="st2">
	<path class="st0" d="M20.1,103.2l-0.6-0.7c-0.4-0.5-0.9-0.9-1.3-1.4l0,0l1.1-0.7l0.2,0.1l-0.5,0.8l1,1.1l1.5-1.4l-0.1-0.2
		c-0.1-0.2-0.3-0.3-0.5-0.5c0,0-0.1-0.1-0.2,0l-0.5,0.2l-0.2-0.2c0.3-0.2,0.5-0.4,0.6-0.5c0.1-0.1,0.3-0.3,0.6-0.6l0.2,0.2l-0.3,0.5
		c0,0.1,0,0.1,0,0.2c0.2,0.2,0.3,0.4,0.5,0.6l0.1,0.2l1-0.9c0.2-0.2,0.4-0.4,0.6-0.6l-1-1.2l-1.1,0.3L21,98.3l1.1-0.9l0,0
		c0.4,0.5,0.8,1,1.2,1.4l0.7,0.8c0.2,0.2,0.5,0.5,0.7,0.8l-0.1,0.1l-0.5-0.3c-0.1,0-0.1,0-0.2,0c-0.1,0.1-0.2,0.1-0.3,0.2
		c-0.1,0.1-0.2,0.2-0.3,0.3l-2.3,2c-0.1,0.1-0.2,0.2-0.3,0.2c-0.1,0.1-0.1,0.1-0.2,0.2c0,0-0.1,0.1,0,0.2l0.2,0.5l-0.1,0.1
		C20.5,103.7,20.3,103.4,20.1,103.2z"/>
</g>
<g class="st2">
	<path class="st0" d="M11.7,91.1c-0.2-0.3-0.3-0.7-0.5-1.1c-0.2-0.4-0.4-0.7-0.6-1.1l0.2-0.1l0.4,0.4c0,0.1,0.1,0.1,0.2,0
		c0.1,0,0.2-0.1,0.3-0.1c0.1,0,0.2-0.1,0.3-0.2l3.1-1.6c0.2-0.1,0.4-0.2,0.6-0.3C15.8,87,16,87,16.1,87c0.2,0,0.3,0,0.5,0
		c0.2,0,0.3,0.1,0.5,0.2c0.2,0.1,0.3,0.2,0.5,0.4c0.2,0.2,0.4,0.4,0.5,0.6L18,88.3c-0.2-0.2-0.4-0.3-0.6-0.3
		c-0.2-0.1-0.4-0.1-0.6-0.1c-0.2,0-0.4,0.1-0.6,0.1c-0.2,0.1-0.4,0.2-0.7,0.3L12.4,90c-0.1,0.1-0.2,0.1-0.3,0.2s-0.2,0.1-0.3,0.1
		c-0.1,0-0.1,0.1-0.1,0.1l0.1,0.5L11.7,91.1z"/>
</g>
<g class="st2">
	<path class="st0" d="M11.3,85.1c-0.4-0.4-0.7-0.9-0.9-1.3c-0.2-0.4-0.2-0.8-0.1-1.1s0.3-0.5,0.7-0.6l1.5-0.6c0.1,0,0.2-0.1,0.3-0.1
		c0.1,0,0.1-0.1,0.1-0.1c0,0,0-0.1,0-0.2c0-0.1,0-0.2-0.1-0.3l0.2-0.1c0.2,0.3,0.4,0.6,0.5,0.8c0.1,0.3,0.1,0.6-0.1,0.8
		c0.4,0.2,0.6,0.5,0.8,0.8c0.1,0.3,0.2,0.6,0.1,0.9c-0.1,0.3-0.3,0.5-0.6,0.6c-0.4,0.1-0.7,0.1-1-0.2c-0.3-0.3-0.6-0.8-0.9-1.5
		L11.5,83c-0.3,0.1-0.4,0.2-0.5,0.4c-0.1,0.2-0.1,0.4,0,0.7c0.1,0.2,0.3,0.5,0.5,0.8L11.3,85.1z M12.1,82.8c0.1,0.4,0.3,0.6,0.5,0.7
		c0.2,0.1,0.4,0.1,0.6,0c0.2-0.1,0.3-0.2,0.4-0.3c0-0.1,0-0.3,0-0.5c-0.1-0.2-0.2-0.3-0.3-0.4L12.1,82.8z"/>
</g>
<g class="st2">
	<path class="st0" d="M9.1,79.7c-0.1-0.3-0.2-0.7-0.3-1c-0.1-0.3-0.2-0.7-0.3-1l0.2-0.1l0.2,0.4c0.4-0.3,0.9-0.6,1.4-1
		c0.1-0.1,0.3-0.2,0.4-0.3c-0.2,0-0.4,0-0.5-0.1c-0.6-0.1-1.1-0.1-1.7-0.2l0,0.4l-0.2,0.1c0-0.2-0.1-0.4-0.2-0.7
		C8.1,76,8.1,75.8,8,75.6l0.2-0.1l0.2,0.4c0,0.1,0.1,0.1,0.2,0.1c0.5,0.1,1.1,0.2,1.8,0.3c0.7,0.1,1.2,0.2,1.6,0.2l0.2,0.5
		c-0.3,0.2-0.8,0.6-1.3,1s-1,0.8-1.4,1.1c-0.1,0.1-0.1,0.1-0.1,0.2l0,0.4L9.1,79.7z"/>
</g>
<g class="st2">
	<path class="st0" d="M7.8,72.7c-0.3-0.5-0.5-1-0.6-1.5c-0.1-0.5,0-0.8,0.2-1.1c0.2-0.3,0.5-0.4,0.8-0.5l1.6-0.2
		c0.1,0,0.2,0,0.3-0.1c0.1,0,0.1-0.1,0.2-0.1c0,0,0.1-0.1,0.1-0.2c0-0.1,0-0.2,0-0.3l0.2,0c0.2,0.3,0.3,0.6,0.3,0.9
		c0,0.3-0.1,0.6-0.3,0.7c0.3,0.3,0.5,0.6,0.6,1c0.1,0.4,0,0.7-0.1,0.9c-0.1,0.3-0.4,0.4-0.7,0.5c-0.4,0.1-0.7-0.1-1-0.4
		c-0.2-0.3-0.4-0.9-0.5-1.6l-0.3,0c-0.3,0-0.5,0.1-0.6,0.3c-0.1,0.2-0.1,0.4-0.1,0.7c0,0.3,0.1,0.6,0.3,0.9L7.8,72.7z M9.2,70.6
		c0.1,0.4,0.1,0.7,0.3,0.8c0.1,0.2,0.3,0.2,0.6,0.2c0.2,0,0.4-0.1,0.5-0.2s0.1-0.3,0.1-0.5c0-0.2-0.1-0.3-0.2-0.5L9.2,70.6z"/>
</g>
<g class="st2">
	<path class="st0" d="M8.5,56.4l1.3,0.1c0.3,0,0.5,0.1,0.7,0.1c0.1,0,0.1,0,0.1-0.1l0.2-0.5l0.2,0c-0.1,0.4-0.1,0.8-0.2,1.2
		c-0.1,0.4-0.1,0.8-0.1,1.2l-0.2,0l-0.1-0.5c0-0.1,0-0.1-0.1-0.1c-0.2,0-0.5-0.1-0.8-0.1l-3.1-0.4c-0.1,0-0.2,0-0.3,0
		c-0.1,0-0.2,0-0.3,0c-0.1,0-0.1,0-0.1,0.1l-0.2,0.5l-0.2,0c0.1-0.4,0.1-0.7,0.1-1l0.1-1c0.1-0.6,0.1-1.3,0.2-1.9l0,0l1.2,0.4l0,0.2
		l-1,0.1L6,56.1l2.1,0.3l0-0.2c0-0.2,0.1-0.5,0.1-0.7c0-0.1,0-0.1-0.1-0.1l-0.5-0.2l0-0.3C8,54.9,8.3,54.9,8.5,55
		c0.2,0,0.5,0,0.8,0.1l0,0.3l-0.6,0.1c-0.1,0-0.1,0-0.1,0.1c0,0.3-0.1,0.5-0.1,0.7L8.5,56.4z"/>
</g>
<g class="st2">
	<path class="st0" d="M11,50.2c0.1,0,0.3,0.1,0.4,0.1c0.1,0,0.2,0.1,0.3,0.1c0.1,0,0.1,0,0.2,0l0.2-0.4l0.2,0
		c-0.1,0.3-0.2,0.6-0.3,1c-0.1,0.4-0.2,0.8-0.3,1.2l-0.2,0l0-0.5c0-0.1,0-0.1-0.1-0.1c-0.1,0-0.2-0.1-0.3-0.1s-0.3-0.1-0.4-0.1
		l-3-0.8c-0.1,0-0.2-0.1-0.3-0.1c-0.1,0-0.2,0-0.3-0.1c-0.1,0-0.1,0-0.1,0.1l-0.3,0.5l-0.2,0c0.1-0.3,0.2-0.7,0.3-1.1
		c0-0.1,0-0.2,0.1-0.3c0-0.1,0.1-0.3,0.1-0.4C7,49,7,48.8,7.1,48.7s0-0.2,0.1-0.2c0.2-0.6,0.4-1.1,0.7-1.4c0.3-0.3,0.6-0.3,1.1-0.2
		c0.4,0.1,0.6,0.3,0.8,0.5c0.2,0.3,0.3,0.6,0.3,1c0.4-0.1,0.7-0.2,0.9-0.3c0.2-0.1,0.4-0.1,0.7-0.2s0.4-0.1,0.6-0.2
		c0.2-0.1,0.3-0.1,0.4-0.2c0,0,0.1-0.1,0.1-0.1c0,0,0.1-0.1,0.1-0.1s0.1-0.1,0.1-0.1c0,0,0.1-0.1,0.1-0.2l0.2,0
		c0,0.3-0.1,0.5-0.2,0.9c-0.1,0.2-0.1,0.4-0.2,0.5c-0.1,0.1-0.1,0.2-0.2,0.2c-0.1,0.1-0.3,0.2-0.4,0.2c-0.2,0.1-0.4,0.1-0.6,0.2
		c-0.2,0.1-0.4,0.1-0.7,0.2c-0.2,0.1-0.5,0.1-0.7,0.2c-0.1,0-0.1,0-0.2,0.1c0,0-0.1,0-0.1,0s0,0-0.1,0.1c0,0,0,0.1,0,0.1l0,0.2
		L11,50.2z M9.4,49.8c0-0.1,0.1-0.2,0.1-0.4c0.1-0.4,0.1-0.6-0.1-0.8c-0.1-0.2-0.4-0.4-0.8-0.5c-0.4-0.1-0.7-0.1-0.9,0
		c-0.2,0.1-0.4,0.3-0.4,0.7c0,0.1,0,0.1,0,0.2c0,0.1,0,0.1,0,0.2L9.4,49.8z"/>
</g>
<g class="st2">
	<path class="st0" d="M12.7,43.4l0.6,0.5c0.1,0.1,0.2,0.2,0.3,0.2c0.1,0.1,0.1,0.1,0.2,0.1c0,0,0.1,0,0.1,0c0,0,0.1,0,0.1-0.1
		l0.2-0.3l0.2,0.1c-0.1,0.3-0.3,0.6-0.4,0.8c-0.1,0.2-0.2,0.5-0.3,0.8l-0.2-0.1l0-0.4c0-0.1,0-0.2,0-0.3c0-0.1-0.1-0.2-0.2-0.3
		L9.7,41l0.1-0.4l5,0.2c0.2,0,0.3,0,0.4,0c0.1,0,0.1-0.1,0.2-0.2l0.2-0.3l0.2,0.1c-0.1,0.3-0.3,0.6-0.4,1c-0.2,0.4-0.3,0.9-0.5,1.3
		l-0.2-0.1l0-0.4c0-0.1,0-0.1,0-0.1c0,0,0-0.1-0.1-0.1c0,0-0.1,0-0.2,0c-0.1,0-0.2,0-0.3,0l-0.8,0L12.7,43.4z M11,41.8
		c0.1,0.1,0.2,0.2,0.3,0.3l1.1,1l0.5-1.2l-1.5-0.1C11.3,41.8,11.1,41.8,11,41.8z"/>
</g>
<g class="st2">
	<path class="st0" d="M14.7,31.6c0.2-0.3,0.4-0.6,0.5-0.8c0.1-0.2,0.3-0.5,0.4-0.8l0.2,0.1l-0.1,0.5c0,0.1,0,0.1,0.1,0.1
		c0.1,0.1,0.3,0.2,0.5,0.3l2.6,1.6c0.3,0.2,0.5,0.3,0.7,0.4c0.1,0,0.1,0,0.2,0l0.4-0.4l0.2,0.1c-0.2,0.3-0.4,0.7-0.6,1
		c-0.2,0.4-0.4,0.7-0.6,0.9l-0.2-0.1l0.1-0.5c0-0.1,0-0.1-0.1-0.2c-0.2-0.1-0.4-0.2-0.6-0.4l-2.1-1.3c-0.1-0.1-0.3-0.2-0.7-0.4
		c0.1,0.2,0.3,0.4,0.4,0.6l2.4,3.3l-0.2,0.3l-3.9-0.6c-0.2,0-0.5-0.1-0.7-0.1c0.3,0.2,0.5,0.3,0.6,0.4l2,1.2
		c0.3,0.2,0.5,0.3,0.7,0.4c0.1,0,0.1,0,0.2,0l0.3-0.3l0.2,0.1c-0.2,0.3-0.3,0.5-0.4,0.7c-0.1,0.2-0.3,0.4-0.4,0.8l-0.2-0.1l0.1-0.5
		c0-0.1,0-0.1,0-0.2c-0.2-0.1-0.4-0.2-0.7-0.4l-2.6-1.6c-0.2-0.1-0.4-0.2-0.6-0.3c-0.1,0-0.1,0-0.2,0l-0.4,0.4l-0.2-0.1
		c0.2-0.4,0.4-0.6,0.5-0.8c0.2-0.3,0.3-0.5,0.4-0.8l3.6,0.6c0.2,0,0.3,0.1,0.4,0.1c-0.1-0.1-0.2-0.2-0.3-0.4L14.7,31.6z"/>
</g>
<g class="st2">
	<path class="st0" d="M18.5,26.5l0.6-0.8c0.4-0.5,0.8-1,1.2-1.5l0,0l0.8,1l-0.1,0.2l-0.9-0.4l-0.9,1.2l1.6,1.3l0.1-0.2
		c0.1-0.2,0.3-0.4,0.5-0.6c0-0.1,0-0.1,0-0.2l-0.3-0.4l0.2-0.2c0.3,0.2,0.5,0.4,0.6,0.5c0.1,0.1,0.4,0.3,0.6,0.5l-0.1,0.2L21.9,27
		c-0.1,0-0.1,0-0.2,0c-0.2,0.2-0.3,0.4-0.5,0.6l-0.1,0.2l1,0.8c0.2,0.2,0.4,0.4,0.7,0.5l1-1.2l-0.5-1l0.1-0.2l1.1,1l0,0
		c-0.4,0.5-0.8,1-1.2,1.4L22.7,30c-0.2,0.3-0.4,0.5-0.6,0.8l-0.2-0.1l0.2-0.5c0-0.1,0-0.1,0-0.2c-0.1-0.1-0.2-0.1-0.3-0.2
		c-0.1-0.1-0.2-0.2-0.3-0.3l-2.4-2c-0.1-0.1-0.2-0.2-0.3-0.2c-0.1-0.1-0.2-0.1-0.2-0.2c-0.1,0-0.1,0-0.2,0L18,27.4l-0.2-0.1
		C18.1,27.1,18.3,26.8,18.5,26.5z"/>
</g>
<g class="st2">
	<path class="st0" d="M28.8,20.8c0.1,0.1,0.2,0.2,0.4,0.2c-0.1-0.1-0.1-0.3-0.2-0.4l-0.9-2.3C28,18.2,28,18.1,27.9,18
		c0-0.1-0.1-0.1-0.1-0.2c0,0-0.1,0-0.1-0.1c0,0-0.1,0-0.1,0L27.3,18l-0.1-0.1c0.3-0.2,0.5-0.4,0.7-0.6c0.2-0.2,0.4-0.4,0.6-0.6
		l0.1,0.1l-0.2,0.4c-0.1,0.1-0.1,0.2-0.1,0.3c0,0.1,0,0.2,0.1,0.3l1.9,4.6l-0.3,0.3L27.2,21c-0.1-0.1-0.3-0.2-0.5-0.3
		c0.1,0.2,0.1,0.3,0.2,0.5l1.2,3l-0.3,0.3l-4.2-2.4c-0.2-0.1-0.3-0.1-0.4-0.2c-0.1,0-0.2,0-0.3,0l-0.4,0.2L22.5,22
		c0.3-0.2,0.5-0.5,0.8-0.7c0.3-0.3,0.7-0.6,1-0.9l0.1,0.1l-0.2,0.3c0,0,0,0.1,0,0.1c0,0,0,0.1,0,0.1c0,0,0.1,0.1,0.2,0.1
		c0.1,0,0.2,0.1,0.3,0.2l2.1,1.2c0.1,0.1,0.2,0.2,0.4,0.2c-0.1-0.1-0.1-0.3-0.2-0.4l-1.4-3.2l0.3-0.3L28.8,20.8z"/>
</g>
<g class="st2">
	<path class="st0" d="M37.3,14.2c0.5,0.8,0.6,1.5,0.5,2.2c-0.2,0.7-0.6,1.4-1.4,1.9c-0.8,0.5-1.5,0.6-2.2,0.5
		c-0.7-0.2-1.2-0.6-1.7-1.3c-0.5-0.8-0.6-1.5-0.5-2.2c0.2-0.7,0.6-1.3,1.4-1.8c0.8-0.5,1.5-0.6,2.1-0.5C36.2,13,36.8,13.5,37.3,14.2
		z M33.5,16.6c0.4,0.7,0.9,1.2,1.4,1.4c0.5,0.2,0.9,0.2,1.4-0.1c0.4-0.3,0.7-0.7,0.7-1.1c0-0.5-0.2-1.1-0.7-1.8
		c-0.4-0.7-0.9-1.1-1.3-1.3c-0.5-0.2-0.9-0.2-1.4,0.1c-0.5,0.3-0.7,0.7-0.7,1.1C32.8,15.4,33.1,15.9,33.5,16.6z"/>
</g>
<g class="st2">
	<path class="st0" d="M42.3,13.7c0.1,0.1,0.1,0.3,0.2,0.4c0.1,0.1,0.1,0.2,0.1,0.3c0,0.1,0.1,0.1,0.1,0.1l0.4,0l0.1,0.2
		c-0.3,0.1-0.6,0.2-1,0.4c-0.4,0.2-0.8,0.3-1.1,0.5l-0.1-0.2l0.4-0.3c0.1,0,0.1-0.1,0-0.2c0-0.1-0.1-0.2-0.1-0.3
		c-0.1-0.1-0.1-0.2-0.2-0.4L40,11.3c-0.1-0.1-0.1-0.2-0.1-0.3c0-0.1-0.1-0.2-0.1-0.3c0-0.1-0.1-0.1-0.1-0.1L39,10.7L39,10.5
		c0.3-0.1,0.7-0.3,1-0.4c0.1,0,0.2-0.1,0.3-0.1c0.1-0.1,0.2-0.1,0.4-0.2c0.1-0.1,0.3-0.1,0.4-0.2c0.1,0,0.2-0.1,0.2-0.1
		c0.6-0.3,1.1-0.4,1.5-0.3s0.7,0.3,0.8,0.7c0.2,0.4,0.2,0.7,0.1,1c-0.1,0.3-0.3,0.6-0.6,0.9c0.3,0.2,0.6,0.4,0.8,0.5
		c0.2,0.1,0.4,0.3,0.6,0.4c0.2,0.1,0.4,0.2,0.5,0.3c0.1,0.1,0.3,0.2,0.4,0.2c0.1,0,0.1,0,0.2,0c0,0,0.1,0,0.2,0c0.1,0,0.1,0,0.2,0
		c0.1,0,0.1,0,0.2,0l0.1,0.2c-0.2,0.1-0.5,0.3-0.8,0.4c-0.2,0.1-0.4,0.2-0.5,0.2c-0.1,0-0.2,0-0.3,0c-0.1,0-0.3-0.1-0.4-0.2
		c-0.2-0.1-0.3-0.2-0.5-0.3c-0.2-0.1-0.4-0.3-0.6-0.4c-0.2-0.1-0.4-0.3-0.6-0.4c-0.1,0-0.1-0.1-0.1-0.1c0,0-0.1,0-0.1-0.1
		s-0.1,0-0.1,0s-0.1,0-0.1,0l-0.1,0.1L42.3,13.7z M41.6,12.2c0.1,0,0.2-0.1,0.3-0.1c0.3-0.1,0.5-0.3,0.6-0.6c0.1-0.2,0-0.5-0.1-0.9
		c-0.2-0.3-0.3-0.6-0.6-0.7c-0.2-0.1-0.5-0.1-0.8,0.1c-0.1,0-0.1,0.1-0.2,0.1c-0.1,0-0.1,0.1-0.2,0.1L41.6,12.2z"/>
</g>
<g class="st2">
	<path class="st0" d="M48.7,8.1l0.8,3c0,0.1,0.1,0.3,0.1,0.4c0,0.1,0.1,0.2,0.1,0.3c0,0.1,0.1,0.1,0.1,0.1l0.5,0l0.1,0.2
		c-0.3,0.1-0.7,0.2-1.1,0.3c-0.4,0.1-0.8,0.2-1.2,0.3l-0.1-0.2l0.5-0.3c0.1,0,0.1-0.1,0.1-0.1c0-0.1-0.1-0.2-0.1-0.3
		c0-0.1-0.1-0.3-0.1-0.4l-0.8-3c0-0.1-0.1-0.2-0.1-0.3c0-0.1-0.1-0.2-0.1-0.3c0-0.1-0.1-0.1-0.1-0.1l-0.5,0l-0.1-0.2
		c0.3-0.1,0.7-0.2,1.1-0.3c0.4-0.1,0.8-0.2,1.1-0.3L49,7.1l-0.4,0.3c-0.1,0-0.1,0.1-0.1,0.1c0,0.1,0,0.2,0.1,0.3
		C48.6,7.9,48.6,8,48.7,8.1z M49.2,9.7l1.1-2.1c0.1-0.2,0.1-0.3,0.2-0.4c0-0.1,0.1-0.2,0-0.2c0,0-0.1-0.1-0.1-0.1l-0.3,0l-0.1-0.2
		c0.3-0.1,0.6-0.1,0.9-0.2c0.3-0.1,0.6-0.2,0.9-0.3l0.1,0.2l-0.4,0.2c-0.1,0.1-0.2,0.2-0.3,0.3C51,6.9,51,7.1,50.9,7.2L50,9l2.3,1.9
		c0.1,0.1,0.2,0.1,0.3,0.2c0.1,0,0.2,0,0.3,0l0.4,0l0.1,0.2c-0.3,0.1-0.6,0.1-0.9,0.2c-0.3,0.1-0.6,0.2-0.9,0.3
		c-0.1-0.1-0.4-0.4-0.9-0.8L49.2,9.7z"/>
</g>
<g class="st2">
	<path class="st0" d="M56.2,9.8c0.2,0,0.3,0,0.5,0.1c0.1,0.1,0.2,0.2,0.2,0.4c0,0.2,0,0.3-0.1,0.5c-0.1,0.1-0.2,0.2-0.4,0.2
		c-0.2,0-0.3,0-0.5-0.1s-0.2-0.2-0.2-0.4c0-0.2,0-0.3,0.1-0.5C55.9,9.9,56.1,9.9,56.2,9.8z"/>
</g>
</svg>
