<?xml version="1.0" encoding="utf-8"?>
<!-- Generator: Adobe Illustrator 14.0.0, SVG Export Plug-In . SVG Version: 6.00 Build 43363)  -->
<!DOCTYPE svg PUBLIC "-//W3C//DTD SVG 1.1//EN" "http://www.w3.org/Graphics/SVG/1.1/DTD/svg11.dtd">
<svg version="1.1" id="enkan" xmlns="http://www.w3.org/2000/svg" xmlns:xlink="http://www.w3.org/1999/xlink" x="0px" y="0px"
	 width="128px" height="128px" viewBox="0 0 128 128" enable-background="new 0 0 128 128" xml:space="preserve">
<g>
	<g>
		<g>
			<path fill="#CC3399" d="M63.211,22.641c-0.657,0.736-0.329,2.007,0.412,2.348c0.153,0.071,0.247,0.173,0.444,0.581
				c0,0-0.014-4.499,0.002-4.439C63.643,21.335,63.857,21.914,63.211,22.641z"/>
			<path fill="#CC3399" d="M64.068,26.527c-0.148,0.004-0.303-0.019-0.479-0.078c-0.091-0.06-0.348-0.127-0.888-0.683
				c-0.179-0.184-0.335-0.39-0.457-0.604c-0.529-0.91-0.546-1.927-0.124-2.984c0.104-0.263,0.736-1.382,1.927-2.09
				c0.022-0.228,0.042-0.379,0.022-0.711c-0.129-0.818-0.49-2.031-0.546-3.05c-0.137-1.33,0.59-2.355,0.544-4.002
				c-1.314-0.044-1.476-0.429-4.466,0.901c-3.423-0.685-7.224,0.118-8.979,1.252c-2.413,0.255-4.953,0.725-6.914,2.667
				c-1.34,1.644-1.462,3.121-1.372,4.603c0.021,0.307-1.396-0.532-0.754-4.41c-0.918,1.852-0.864,4.711,0.845,5.678
				c0.423,1.45,0.958,2.517,2.095,3.645c-0.636,2.622,6.21,3.755,9.987,1.61c2.865-1.512,4.892-5.073,3.263-9.423
				c0.588,0.648,1.269,1.403,1.932,1.857c0.024,0.73-0.116,2.114-0.442,3.016c-0.586,1.609-2.482,3.611-4.089,4.822
				c2.205-1.148,2.63,0.002,6.313-2.763c0.484,0.754,1.725,1.568,2.583,1.536V26.527z M63.357,12.84
				c-0.082,0.408-0.338,2.628-0.367,3.058c-0.085,1.29,0.153,1.738,0.686,3.391c-0.259-0.117-2.013-1.43-2.277-1.626
				C58.751,15.694,62.769,12.656,63.357,12.84z M43.265,22.744c-0.988-6.711,5.504-8.014,9.562-6.97
				c-0.996,0.069-2.026,0.304-2.819,1.271c-0.163,0.201-0.45,0.62-0.481,0.853c-3.646,0.439-4.316,2.837-4.048,4.938
				c0.211,1.661,1.812,3.201,4.59,3.851C44.391,28.484,43.341,23.258,43.265,22.744z M49.798,20.902
				c2.113,2.175,3.494,1.183,4.482,2.145c-0.618,1.296-1.012,1.812-3.638,3.484C50.945,25.936,51.639,23.363,49.798,20.902z
				 M49.012,20.563c0.079,1.328,0.588,1.434,1.086,2.561c0.202,0.46,0.528,1.555,0.197,3.408c-2.1-0.842-3.943-2.275-4.063-4.274
				c-0.09-1.45,0.71-3.663,3.261-4.088C49.52,18.153,48.951,19.533,49.012,20.563z M49.877,20.419
				c-0.069-1.073,0.208-2.185,1.39-3.159c1.439-0.429,4.585,1.902,3.24,5.35C52.883,20.873,51.996,22.263,49.877,20.419z
				 M51.518,28.755c-1.524,0.102-3.426,0.107-4.681-0.241c-1.937-0.539-0.922-0.947-0.665-1.026
				c8.356,0.886,12.818-7.57,6.146-10.859c2.407-0.752,3.624,0.484,4.193,1.284C60.412,23.38,55.535,27.85,51.518,28.755z
				 M55.707,16.035c-1.57-1.309-3.384-1.145-3.727-1.301c1.459-1.059,4.824-1.825,7.381-0.979c-0.32,0.583-0.506,1.116-1.003,1.601
				C57.898,15.8,56.401,16.212,55.707,16.035z M57.589,18.366c-0.269-0.348-0.423-1.043-1.188-1.622
				c1.007-0.098,1.881-0.482,2.486-1.111c0.936-0.972,1.552-2.352,3.504-2.81c-3.831,2.312-2.941,4.934-2.718,7.266
				C59.19,19.815,58.51,19.378,57.589,18.366z M61.078,24.739c-0.116,0.478-0.613,0.852-1.124,1.31
				c-0.995,0.895-1.438,0.854-2.12,1.119c1.413-1.23,1.674-1.879,2.264-3.637c0.14-0.425,0.208-2.133,0.09-2.599
				c0.011,0.008,1.118,0.832,1.286,1.012C60.881,23.213,61.239,24.07,61.078,24.739z M61.799,21.276
				c-0.397-0.292-1.256-0.628-1.674-1.011c-0.08-1.324-0.318-3.391-0.195-3.199c0.528,0.83,3.619,2.815,3.603,2.839
				C62.988,20.108,62.195,20.733,61.799,21.276z"/>
		</g>
		<g>
			<path fill="#CC3399" d="M64.907,22.641c0.654,0.736,0.329,2.007-0.412,2.348c-0.153,0.071-0.248,0.173-0.446,0.581
				c0,0,0.017-4.499-0.002-4.439C64.473,21.335,64.263,21.914,64.907,22.641z"/>
			<path fill="#CC3399" d="M64.051,26.527c0.147,0.004,0.304-0.019,0.48-0.078c0.088-0.06,0.344-0.127,0.883-0.683
				c0.18-0.184,0.334-0.39,0.459-0.604c0.529-0.91,0.545-1.927,0.124-2.984c-0.103-0.263-0.736-1.382-1.926-2.09
				c-0.024-0.228-0.042-0.379-0.024-0.711c0.13-0.818,0.494-2.031,0.548-3.05c0.135-1.33-0.59-2.355-0.546-4.002
				c1.317-0.044,1.475-0.429,4.465,0.901c3.423-0.685,7.224,0.118,8.98,1.252c2.413,0.255,4.953,0.725,6.915,2.667
				c1.34,1.644,1.459,3.121,1.371,4.603c-0.02,0.307,1.396-0.532,0.756-4.41c0.917,1.852,0.864,4.711-0.847,5.678
				c-0.423,1.45-0.959,2.517-2.094,3.645c0.636,2.622-6.212,3.755-9.987,1.61c-2.866-1.512-4.893-5.073-3.262-9.423
				c-0.589,0.648-1.269,1.403-1.934,1.857c-0.024,0.73,0.117,2.114,0.445,3.016c0.584,1.609,2.48,3.611,4.087,4.822
				c-2.205-1.148-2.63,0.002-6.313-2.763c-0.483,0.754-1.727,1.568-2.584,1.536L64.051,26.527z M64.763,12.84
				c0.08,0.408,0.335,2.628,0.366,3.058c0.085,1.29-0.154,1.738-0.685,3.391c0.259-0.117,2.012-1.43,2.279-1.626
				C69.367,15.694,65.35,12.656,64.763,12.84z M84.853,22.744c0.991-6.711-5.504-8.014-9.563-6.97
				c0.997,0.069,2.027,0.304,2.819,1.271c0.166,0.201,0.452,0.62,0.485,0.853c3.643,0.439,4.313,2.837,4.047,4.938
				c-0.211,1.661-1.813,3.201-4.592,3.851C83.728,28.484,84.776,23.258,84.853,22.744z M78.321,20.902
				c-2.114,2.175-3.494,1.183-4.483,2.145c0.618,1.296,1.012,1.812,3.639,3.484C77.174,25.936,76.479,23.363,78.321,20.902z
				 M79.105,20.563c-0.076,1.328-0.589,1.434-1.085,2.561c-0.204,0.46-0.527,1.555-0.196,3.408c2.099-0.842,3.942-2.275,4.062-4.274
				c0.088-1.45-0.709-3.663-3.261-4.088C78.599,18.153,79.166,19.533,79.105,20.563z M78.24,20.419
				c0.07-1.073-0.209-2.185-1.39-3.159c-1.438-0.429-4.583,1.902-3.239,5.35C75.234,20.873,76.122,22.263,78.24,20.419z
				 M76.6,28.755c1.524,0.102,3.427,0.107,4.681-0.241c1.935-0.539,0.92-0.947,0.665-1.026c-8.355,0.886-12.817-7.57-6.146-10.859
				c-2.408-0.752-3.623,0.484-4.195,1.284C67.705,23.38,72.583,27.85,76.6,28.755z M72.411,16.035
				c1.57-1.309,3.384-1.145,3.727-1.301c-1.46-1.059-4.825-1.825-7.382-0.979c0.323,0.583,0.508,1.116,1.005,1.601
				C70.222,15.8,71.716,16.212,72.411,16.035z M70.529,18.366c0.267-0.348,0.423-1.043,1.188-1.622
				c-1.008-0.098-1.881-0.482-2.488-1.111c-0.936-0.972-1.549-2.352-3.502-2.81c3.831,2.312,2.942,4.934,2.718,7.266
				C68.929,19.815,69.607,19.378,70.529,18.366z M67.041,24.739c0.115,0.478,0.612,0.852,1.125,1.31
				c0.994,0.895,1.436,0.854,2.12,1.119c-1.415-1.23-1.679-1.879-2.265-3.637c-0.139-0.425-0.209-2.133-0.089-2.599
				c-0.013,0.008-1.12,0.832-1.286,1.012C67.237,23.213,66.879,24.07,67.041,24.739z M66.319,21.276
				c0.399-0.292,1.256-0.628,1.674-1.011c0.08-1.324,0.318-3.391,0.196-3.199c-0.529,0.83-3.621,2.815-3.602,2.839
				C65.131,20.108,65.927,20.733,66.319,21.276z"/>
		</g>
	</g>
	<g>
		<g>
			<path fill="#CC3399" d="M27.922,43.994c0.311,0.938,1.574,1.288,2.239,0.818c0.138-0.098,0.272-0.13,0.725-0.096
				c0,0-3.902-2.238-3.843-2.223C27.008,42.967,27.615,43.074,27.922,43.994z"/>
			<path fill="#CC3399" d="M31.716,45.196c-0.069,0.13-0.167,0.253-0.307,0.377c-0.097,0.048-0.283,0.236-1.034,0.426
				c-0.247,0.063-0.506,0.094-0.749,0.094c-1.055,0.002-1.943-0.49-2.65-1.384c-0.176-0.224-0.826-1.33-0.846-2.716
				c-0.186-0.132-0.306-0.223-0.604-0.374c-0.773-0.297-2.004-0.59-2.914-1.052c-1.219-0.545-1.743-1.688-3.193-2.473
				c-0.697,1.117-1.108,1.065-1.452,4.318c-2.304,2.622-3.509,6.315-3.404,8.404c-0.986,2.218-1.851,4.65-1.149,7.318
				c0.754,1.984,1.974,2.829,3.3,3.49c0.276,0.137-1.157,0.943-4.195-1.552c1.146,1.721,3.646,3.106,5.34,2.106
				c1.466,0.358,2.658,0.431,4.202,0.008c1.954,1.864,6.358-3.5,6.389-7.842c0.124-3.237-1.947-6.773-6.528-7.536
				c0.854-0.185,1.849-0.397,2.574-0.746c0.645,0.345,1.773,1.159,2.391,1.892c1.1,1.31,1.886,3.956,2.132,5.951
				c0.108-2.483,1.317-2.275,0.764-6.848c0.894-0.039,2.222-0.711,2.62-1.469L31.716,45.196z M19.506,38.967
				c0.313,0.274,2.108,1.608,2.465,1.848c1.075,0.721,1.585,0.736,3.279,1.101c-0.231,0.168-2.244,1.029-2.548,1.161
				C19.677,44.382,19.056,39.387,19.506,38.967z M18.04,61.321c-6.308-2.501-4.188-8.774-1.255-11.769
				c-0.44,0.899-0.75,1.909-0.309,3.08c0.094,0.243,0.311,0.698,0.495,0.844c-1.439,3.375,0.302,5.154,2.252,5.973
				c1.547,0.647,3.679,0.032,5.633-2.051C23.572,63.217,18.522,61.513,18.04,61.321z M19.711,54.743
				c2.94-0.745,2.771-2.438,4.098-2.812c0.814,1.183,1.063,1.782,1.198,4.895C24.645,56.266,22.762,54.379,19.711,54.743z
				 M19.023,55.251c1.189,0.597,1.535,0.209,2.761,0.342c0.5,0.054,1.61,0.319,3.05,1.533c-1.778,1.398-3.942,2.276-5.734,1.38
				c-1.299-0.647-2.816-2.447-1.906-4.868C17.191,53.607,18.103,54.791,19.023,55.251z M19.333,54.43
				c-0.963-0.474-1.79-1.271-2.042-2.782c0.351-1.46,3.94-3.019,6.253-0.132C21.229,52.056,21.986,53.519,19.333,54.43z
				 M27.371,57.178c-0.674,1.37-1.619,3.022-2.549,3.933c-1.435,1.407-1.282,0.324-1.221,0.063
				c4.943-6.793-0.148-14.887-6.33-10.751c0.551-2.463,2.229-2.897,3.206-2.99C27.162,46.787,28.595,53.246,27.371,57.178z
				 M18.451,47.191c-1.92,0.705-2.685,2.359-2.99,2.576c-0.187-1.794,0.832-5.091,2.842-6.881c0.346,0.569,0.717,0.996,0.885,1.668
				C19.34,45.177,18.951,46.678,18.451,47.191z M21.41,46.726c-0.437,0.06-1.114-0.153-1.999,0.219
				c0.418-0.922,0.522-1.869,0.28-2.71c-0.372-1.296-1.26-2.518-0.679-4.438c0.085,4.472,2.802,5.016,4.931,5.984
				C23.464,46.064,22.746,46.433,21.41,46.726z M28.672,46.893c0.356,0.339,0.432,0.956,0.573,1.627
				c0.275,1.308,0.02,1.672-0.092,2.396c-0.358-1.839-0.788-2.391-2.02-3.778c-0.293-0.333-1.739-1.249-2.203-1.378
				c0.013-0.006,1.281-0.552,1.519-0.607C27.252,46.297,28.173,46.417,28.672,46.893z M26.037,44.535
				c-0.454,0.199-1.173,0.772-1.715,0.944c-1.187-0.594-3.095-1.42-2.869-1.43c0.986-0.042,4.249-1.729,4.261-1.7
				C25.618,42.921,25.762,43.922,26.037,44.535z"/>
		</g>
		<g>
			<path fill="#CC3399" d="M28.77,42.524c0.966-0.199,1.903,0.721,1.828,1.533c-0.016,0.167,0.025,0.301,0.278,0.675
				c0,0-3.889-2.262-3.845-2.218C27.423,42.248,27.819,42.72,28.77,42.524z"/>
			<path fill="#CC3399" d="M31.708,45.211c0.076-0.126,0.136-0.273,0.172-0.454c-0.007-0.105,0.063-0.362-0.147-1.107
				c-0.07-0.249-0.172-0.486-0.293-0.699c-0.525-0.913-1.397-1.436-2.525-1.603c-0.278-0.041-1.563-0.05-2.772,0.625
				c-0.209-0.092-0.347-0.153-0.629-0.334c-0.643-0.522-1.511-1.441-2.365-1.999c-1.083-0.782-2.334-0.667-3.739-1.529
				c0.621-1.162,0.368-1.491,3.015-3.416c1.118-3.307,3.714-6.198,5.575-7.151c1.427-1.962,3.103-3.926,5.765-4.655
				c2.094-0.339,3.434,0.297,4.672,1.115c0.257,0.171,0.235-1.476-3.441-2.859c2.063,0.131,4.514,1.605,4.495,3.571
				c1.043,1.092,1.7,2.089,2.107,3.637c2.59,0.76,0.147,7.257-3.597,9.452c-2.744,1.727-6.84,1.7-9.792-1.888
				c0.269,0.837,0.58,1.802,0.643,2.604c0.618,0.387,1.89,0.956,2.832,1.123c1.687,0.299,4.369-0.343,6.22-1.127
				c-2.098,1.334-1.313,2.278-5.549,4.084c0.412,0.796,0.498,2.279,0.038,3.006L31.708,45.211z M20.209,37.75
				c0.395,0.134,2.446,1.021,2.831,1.213c1.16,0.571,1.431,1.001,2.594,2.288c0.028-0.283-0.231-2.457-0.269-2.786
				C24.984,35.19,20.346,37.15,20.209,37.75z M38.833,25.305c-5.317-4.215-9.691,0.759-10.818,4.797
				c0.559-0.831,1.278-1.605,2.512-1.807c0.258-0.042,0.762-0.081,0.98,0.005c2.201-2.935,4.613-2.316,6.3-1.036
				c1.334,1.014,1.865,3.17,1.038,5.901C43.242,29.147,39.241,25.627,38.833,25.305z M33.972,30.041
				c0.826,2.917-0.722,3.616-0.383,4.954c1.431,0.113,2.074,0.029,4.836-1.41C37.758,33.552,35.182,32.866,33.972,30.041z
				 M34.069,29.189c1.111,0.732,0.949,1.227,1.678,2.22c0.294,0.406,1.08,1.236,2.853,1.875c0.32-2.239-0.001-4.553-1.672-5.656
				c-1.213-0.8-3.526-1.217-5.169,0.781C31.731,28.425,33.209,28.621,34.069,29.189z M33.514,29.868
				c-0.896-0.596-1.996-0.912-3.434-0.377c-1.088,1.032-0.644,4.92,3.016,5.479C32.403,32.697,34.049,32.624,33.514,29.868z
				 M39.913,35.456c0.849-1.27,1.807-2.914,2.131-4.175c0.5-1.944-0.36-1.27-0.557-1.089c-3.409,7.682-12.965,7.315-12.477-0.107
				c-1.857,1.711-1.392,3.381-0.984,4.277C30.809,40.47,37.12,38.482,39.913,35.456z M26.802,32.726
				c-0.348-2.016,0.7-3.504,0.737-3.879c-1.646,0.732-3.994,3.267-4.539,5.901c0.667,0.014,1.22,0.121,1.887-0.068
				C25.503,34.503,26.608,33.414,26.802,32.726z M27.879,35.521c-0.167-0.406-0.689-0.889-0.81-1.842
				c-0.589,0.824-1.36,1.388-2.206,1.599c-1.308,0.324-2.811,0.167-4.184,1.629c3.916-2.16,5.742-0.082,7.647,1.28
				C28.333,37.631,28.295,36.822,27.879,35.521z M31.655,41.727c0.472,0.139,1.046-0.104,1.696-0.319
				c1.271-0.414,1.459-0.818,2.03-1.275c-1.772,0.608-2.466,0.513-4.283,0.141c-0.437-0.09-1.952-0.882-2.294-1.22
				c0.002,0.014,0.163,1.386,0.232,1.618C30.43,40.795,30.994,41.533,31.655,41.727z M28.297,40.621
				c-0.055-0.492,0.08-1.401-0.04-1.955c-1.109-0.73-2.778-1.971-2.673-1.77c0.455,0.874,0.628,4.543,0.658,4.539
				C26.687,41.065,27.628,40.69,28.297,40.621z"/>
		</g>
	</g>
	<g>
		<g>
			<path fill="#CC3399" d="M99.318,42.576c-0.97-0.199-1.903,0.719-1.829,1.531c0.016,0.169-0.025,0.303-0.281,0.677
				c0,0,3.892-2.262,3.848-2.22C100.662,42.3,100.269,42.771,99.318,42.576z"/>
			<path fill="#CC3399" d="M96.378,45.26c-0.075-0.123-0.136-0.271-0.171-0.451c0.006-0.107-0.064-0.365,0.146-1.109
				c0.07-0.247,0.172-0.486,0.294-0.696c0.524-0.914,1.398-1.438,2.523-1.604c0.281-0.039,1.565-0.05,2.775,0.625
				c0.207-0.094,0.346-0.153,0.625-0.334c0.644-0.523,1.514-1.441,2.368-1.999c1.083-0.782,2.334-0.667,3.739-1.529
				c-0.62-1.162-0.367-1.493-3.015-3.416c-1.119-3.307-3.714-6.198-5.575-7.151c-1.429-1.962-3.104-3.929-5.764-4.655
				c-2.094-0.339-3.437,0.297-4.674,1.113c-0.258,0.171-0.235-1.474,3.441-2.857c-2.063,0.132-4.511,1.605-4.493,3.571
				c-1.044,1.09-1.701,2.089-2.108,3.637c-2.59,0.758-0.147,7.255,3.598,9.453c2.742,1.726,6.84,1.699,9.791-1.887
				c-0.269,0.833-0.581,1.801-0.643,2.603c-0.619,0.387-1.889,0.956-2.833,1.123c-1.685,0.301-4.368-0.343-6.221-1.127
				c2.099,1.334,1.313,2.276,5.551,4.084c-0.413,0.794-0.497,2.279-0.04,3.006L96.378,45.26z M107.88,37.802
				c-0.396,0.134-2.448,1.021-2.834,1.213c-1.16,0.571-1.429,1.002-2.594,2.288c-0.028-0.283,0.23-2.46,0.271-2.786
				C103.104,35.242,107.742,37.202,107.88,37.802z M89.254,25.354c5.318-4.211,9.69,0.761,10.817,4.797
				c-0.56-0.829-1.277-1.604-2.512-1.807c-0.257-0.039-0.762-0.081-0.979,0.009c-2.204-2.938-4.614-2.32-6.301-1.038
				c-1.332,1.016-1.864,3.17-1.038,5.901C84.846,29.199,88.846,25.679,89.254,25.354z M94.114,30.091
				c-0.826,2.919,0.725,3.617,0.384,4.955c-1.43,0.114-2.073,0.03-4.835-1.409C90.329,33.602,92.904,32.916,94.114,30.091z
				 M94.019,29.241c-1.112,0.732-0.948,1.225-1.676,2.222c-0.297,0.404-1.084,1.234-2.854,1.873
				c-0.32-2.237,0.001-4.551,1.672-5.656c1.21-0.801,3.526-1.216,5.169,0.783C96.355,28.477,94.876,28.674,94.019,29.241z
				 M94.574,29.92c0.893-0.598,1.996-0.914,3.432-0.379c1.088,1.034,0.645,4.924-3.015,5.483
				C95.684,32.749,94.035,32.676,94.574,29.92z M88.175,35.508c-0.851-1.27-1.807-2.912-2.132-4.174
				c-0.499-1.946,0.36-1.272,0.558-1.09c3.41,7.68,12.965,7.314,12.477-0.107c1.855,1.711,1.392,3.381,0.983,4.274
				C97.278,40.521,90.968,38.534,88.175,35.508z M101.284,32.774c0.35-2.015-0.701-3.504-0.736-3.876
				c1.646,0.732,3.993,3.266,4.538,5.901c-0.667,0.014-1.22,0.121-1.888-0.067C102.583,34.555,101.479,33.466,101.284,32.774z
				 M100.207,35.57c0.167-0.406,0.692-0.889,0.811-1.84c0.589,0.824,1.358,1.388,2.207,1.599c1.309,0.325,2.811,0.167,4.184,1.629
				c-3.919-2.16-5.744-0.08-7.649,1.278C99.753,37.683,99.792,36.874,100.207,35.57z M96.432,41.778
				c-0.472,0.139-1.044-0.104-1.696-0.317c-1.272-0.416-1.458-0.82-2.028-1.278c1.771,0.61,2.465,0.512,4.281,0.142
				c0.437-0.09,1.952-0.884,2.294-1.22c0,0.014-0.16,1.386-0.232,1.618C97.656,40.847,97.095,41.583,96.432,41.778z M99.792,40.673
				c0.054-0.492-0.083-1.403,0.037-1.955c1.109-0.732,2.779-1.974,2.675-1.77c-0.456,0.872-0.629,4.543-0.658,4.539
				C101.398,41.116,100.458,40.742,99.792,40.673z"/>
		</g>
		<g>
			<path fill="#CC3399" d="M100.166,44.048c-0.313,0.934-1.574,1.286-2.241,0.814c-0.139-0.098-0.272-0.128-0.726-0.096
				c0,0,3.904-2.236,3.844-2.22C101.079,43.019,100.471,43.124,100.166,44.048z"/>
			<path fill="#CC3399" d="M96.371,45.248c0.07,0.129,0.168,0.253,0.307,0.375c0.095,0.047,0.282,0.236,1.033,0.426
				c0.249,0.065,0.506,0.096,0.751,0.096c1.054,0.004,1.943-0.492,2.65-1.384c0.175-0.222,0.826-1.33,0.847-2.716
				c0.184-0.134,0.305-0.224,0.603-0.374c0.772-0.297,2.006-0.59,2.914-1.052c1.219-0.548,1.744-1.688,3.193-2.473
				c0.696,1.119,1.108,1.063,1.452,4.318c2.303,2.622,3.51,6.313,3.404,8.401c0.985,2.218,1.85,4.653,1.149,7.323
				c-0.752,1.98-1.975,2.825-3.301,3.488c-0.277,0.137,1.159,0.941,4.197-1.552c-1.146,1.721-3.648,3.106-5.341,2.106
				c-1.467,0.358-2.66,0.429-4.202,0.008c-1.954,1.864-6.356-3.502-6.39-7.842c-0.123-3.239,1.948-6.773,6.529-7.535
				c-0.856-0.186-1.851-0.398-2.575-0.747c-0.645,0.343-1.771,1.159-2.389,1.892c-1.103,1.31-1.887,3.956-2.133,5.95
				c-0.109-2.484-1.316-2.275-0.763-6.849c-0.896-0.04-2.222-0.708-2.623-1.469L96.371,45.248z M108.581,39.019
				c-0.314,0.274-2.108,1.608-2.465,1.848c-1.076,0.719-1.583,0.736-3.279,1.101c0.231,0.168,2.244,1.03,2.547,1.161
				C108.411,44.434,109.032,39.438,108.581,39.019z M110.048,61.371c6.307-2.497,4.187-8.772,1.254-11.767
				c0.44,0.899,0.751,1.909,0.31,3.078c-0.092,0.245-0.312,0.701-0.496,0.846c1.44,3.375-0.3,5.154-2.252,5.975
				c-1.545,0.647-3.677,0.03-5.63-2.053C104.515,63.269,109.563,61.563,110.048,61.371z M108.376,54.793
				c-2.94-0.743-2.771-2.434-4.098-2.808c-0.814,1.181-1.063,1.78-1.196,4.892C103.443,56.316,105.323,54.428,108.376,54.793z
				 M109.066,55.302c-1.19,0.598-1.538,0.21-2.762,0.343c-0.502,0.054-1.61,0.319-3.05,1.533c1.777,1.398,3.942,2.276,5.732,1.38
				c1.299-0.649,2.818-2.445,1.909-4.868C110.896,53.66,109.986,54.843,109.066,55.302z M108.756,54.482
				c0.964-0.477,1.787-1.272,2.042-2.785c-0.351-1.458-3.941-3.017-6.255-0.128C106.858,52.107,106.102,53.568,108.756,54.482z
				 M100.714,57.229c0.675,1.37,1.622,3.022,2.553,3.935c1.434,1.405,1.278,0.322,1.221,0.062
				c-4.946-6.796,0.147-14.887,6.331-10.751c-0.553-2.463-2.23-2.897-3.21-2.991C100.924,46.839,99.492,53.298,100.714,57.229z
				 M109.638,47.241c1.917,0.706,2.683,2.359,2.99,2.578c0.187-1.794-0.834-5.093-2.843-6.883c-0.347,0.571-0.717,0.998-0.884,1.67
				C108.745,45.229,109.137,46.729,109.638,47.241z M106.678,46.777c0.436,0.058,1.114-0.155,1.999,0.219
				c-0.418-0.922-0.522-1.871-0.28-2.709c0.372-1.297,1.259-2.519,0.68-4.438c-0.088,4.472-2.802,5.016-4.932,5.984
				C104.622,46.116,105.34,46.484,106.678,46.777z M99.414,46.944c-0.356,0.339-0.432,0.956-0.571,1.627
				c-0.276,1.31-0.022,1.672,0.09,2.396c0.357-1.839,0.788-2.391,2.02-3.78c0.296-0.33,1.739-1.248,2.204-1.376
				c-0.015-0.006-1.281-0.554-1.519-0.607C100.835,46.349,99.912,46.467,99.414,46.944z M102.052,44.587
				c0.455,0.199,1.173,0.772,1.711,0.944c1.189-0.596,3.098-1.42,2.868-1.43c-0.981-0.044-4.247-1.727-4.259-1.701
				C102.47,42.973,102.323,43.974,102.052,44.587z"/>
		</g>
	</g>
	<g>
		<g>
			<path fill="#CC3399" d="M64.903,105.235c0.655-0.738,0.329-2.007-0.412-2.349c-0.153-0.07-0.248-0.171-0.446-0.579
				c0,0,0.013,4.497-0.002,4.438C64.471,106.54,64.259,105.96,64.903,105.235z"/>
			<path fill="#CC3399" d="M64.047,101.349c0.146-0.004,0.304,0.019,0.479,0.078c0.088,0.059,0.344,0.125,0.885,0.681
				c0.179,0.183,0.333,0.393,0.457,0.604c0.526,0.909,0.546,1.929,0.125,2.986c-0.104,0.262-0.736,1.379-1.926,2.09
				c-0.024,0.227-0.042,0.376-0.024,0.711c0.132,0.816,0.492,2.028,0.548,3.05c0.135,1.328-0.59,2.353-0.546,4
				c1.317,0.044,1.476,0.428,4.467-0.901c3.421,0.686,7.223-0.118,8.979-1.253c2.413-0.255,4.953-0.726,6.913-2.664
				c1.342-1.645,1.461-3.124,1.373-4.603c-0.02-0.309,1.396,0.531,0.756,4.408c0.916-1.852,0.864-4.711-0.847-5.678
				c-0.423-1.448-0.959-2.518-2.094-3.643c0.634-2.624-6.212-3.757-9.987-1.613c-2.866,1.514-4.894,5.075-3.262,9.424
				c-0.589-0.648-1.27-1.403-1.935-1.857c-0.023-0.729,0.118-2.114,0.445-3.017c0.583-1.608,2.481-3.612,4.087-4.819
				c-2.205,1.146-2.629-0.004-6.312,2.761c-0.483-0.755-1.727-1.569-2.584-1.534L64.047,101.349z M64.757,115.037
				c0.081-0.408,0.337-2.63,0.367-3.058c0.085-1.293-0.153-1.74-0.684-3.391c0.259,0.117,2.012,1.428,2.277,1.626
				C69.363,112.183,65.345,115.218,64.757,115.037z M84.849,105.132c0.989,6.709-5.506,8.012-9.563,6.971
				c0.997-0.07,2.026-0.307,2.82-1.272c0.165-0.203,0.451-0.619,0.483-0.853c3.644-0.439,4.314-2.839,4.048-4.939
				c-0.212-1.66-1.813-3.199-4.593-3.849C83.724,99.39,84.772,104.616,84.849,105.132z M78.317,106.974
				c-2.115-2.176-3.494-1.185-4.485-2.146c0.62-1.293,1.012-1.812,3.64-3.482C77.17,101.938,76.475,104.511,78.317,106.974z
				 M79.101,107.314c-0.076-1.328-0.588-1.436-1.085-2.563c-0.201-0.458-0.53-1.556-0.197-3.407
				c2.101,0.841,3.942,2.276,4.063,4.275c0.088,1.449-0.711,3.661-3.264,4.085C78.595,109.722,79.162,108.341,79.101,107.314z
				 M78.236,107.456c0.07,1.072-0.208,2.186-1.39,3.161c-1.439,0.426-4.584-1.903-3.24-5.353
				C75.229,107.001,76.118,105.614,78.236,107.456z M76.596,99.122c1.524-0.103,3.427-0.108,4.681,0.24
				c1.934,0.539,0.92,0.947,0.665,1.025c-8.355-0.886-12.818,7.571-6.146,10.859c-2.41,0.754-3.623-0.484-4.194-1.285
				C67.701,104.497,72.579,100.027,76.596,99.122z M72.408,111.839c1.569,1.311,3.385,1.146,3.726,1.303
				c-1.46,1.06-4.825,1.823-7.38,0.978c0.32-0.583,0.504-1.116,1.003-1.599C70.217,112.075,71.714,111.665,72.408,111.839z
				 M70.525,109.509c0.269,0.35,0.423,1.043,1.188,1.622c-1.01,0.1-1.881,0.483-2.488,1.112c-0.935,0.97-1.551,2.35-3.502,2.808
				c3.831-2.312,2.94-4.934,2.718-7.263C68.925,108.061,69.604,108.499,70.525,109.509z M67.037,103.138
				c0.115-0.48,0.612-0.855,1.124-1.313c0.992-0.893,1.438-0.852,2.12-1.119c-1.414,1.23-1.678,1.88-2.264,3.64
				c-0.141,0.422-0.209,2.132-0.089,2.597c-0.013-0.008-1.121-0.832-1.287-1.01C67.233,104.662,66.875,103.806,67.037,103.138z
				 M66.314,106.597c0.398,0.295,1.257,0.632,1.675,1.012c0.08,1.326,0.318,3.393,0.195,3.199c-0.528-0.83-3.62-2.814-3.602-2.838
				C65.126,107.769,65.921,107.141,66.314,106.597z"/>
		</g>
		<g>
			<path fill="#CC3399" d="M63.206,105.235c-0.653-0.738-0.327-2.007,0.414-2.349c0.153-0.07,0.247-0.171,0.446-0.579
				c0,0-0.017,4.497,0.002,4.438C63.639,106.54,63.853,105.96,63.206,105.235z"/>
			<path fill="#CC3399" d="M64.062,101.349c-0.146-0.004-0.301,0.019-0.477,0.078c-0.089,0.059-0.346,0.125-0.887,0.681
				c-0.18,0.183-0.335,0.393-0.458,0.604c-0.529,0.909-0.547,1.929-0.126,2.986c0.104,0.262,0.738,1.379,1.929,2.09
				c0.024,0.227,0.04,0.376,0.024,0.711c-0.132,0.816-0.493,2.028-0.548,3.05c-0.137,1.328,0.589,2.353,0.546,4
				c-1.318,0.044-1.477,0.428-4.468-0.901c-3.423,0.686-7.224-0.118-8.98-1.253c-2.412-0.255-4.952-0.726-6.914-2.664
				c-1.339-1.645-1.461-3.124-1.371-4.603c0.021-0.309-1.395,0.531-0.755,4.408c-0.917-1.852-0.865-4.711,0.846-5.678
				c0.423-1.448,0.96-2.518,2.095-3.643c-0.636-2.624,6.21-3.757,9.987-1.613c2.865,1.514,4.892,5.075,3.261,9.424
				c0.59-0.648,1.271-1.403,1.933-1.857c0.024-0.729-0.117-2.114-0.443-3.017c-0.584-1.608-2.48-3.612-4.088-4.819
				c2.206,1.146,2.631-0.004,6.313,2.761c0.484-0.755,1.725-1.569,2.585-1.534L64.062,101.349z M63.353,115.037
				c-0.083-0.408-0.338-2.63-0.367-3.058c-0.085-1.293,0.153-1.74,0.686-3.391c-0.259,0.117-2.014,1.428-2.277,1.626
				C58.748,112.183,62.764,115.218,63.353,115.037z M43.261,105.132c-0.989,6.709,5.504,8.012,9.563,6.971
				c-0.998-0.07-2.028-0.307-2.819-1.272c-0.164-0.203-0.451-0.619-0.485-0.853c-3.643-0.439-4.313-2.839-4.047-4.939
				c0.211-1.66,1.812-3.199,4.591-3.849C44.385,99.39,43.337,104.616,43.261,105.132z M49.792,106.974
				c2.115-2.176,3.494-1.185,4.483-2.146c-0.617-1.293-1.012-1.812-3.64-3.482C50.941,101.938,51.634,104.511,49.792,106.974z
				 M49.008,107.314c0.079-1.328,0.587-1.436,1.084-2.563c0.205-0.458,0.53-1.556,0.198-3.407c-2.101,0.841-3.942,2.276-4.063,4.275
				c-0.086,1.449,0.71,3.661,3.263,4.085C49.516,109.722,48.947,108.341,49.008,107.314z M49.873,107.456
				c-0.068,1.072,0.209,2.186,1.392,3.161c1.438,0.426,4.583-1.903,3.239-5.353C52.879,107.001,51.991,105.614,49.873,107.456z
				 M51.514,99.122c-1.524-0.103-3.426-0.108-4.681,0.24c-1.937,0.539-0.922,0.947-0.665,1.025
				c8.356-0.886,12.817,7.571,6.146,10.859c2.407,0.754,3.623-0.484,4.194-1.285C60.408,104.497,55.531,100.027,51.514,99.122z
				 M55.704,111.839c-1.569,1.311-3.385,1.146-3.728,1.303c1.457,1.06,4.824,1.823,7.381,0.978c-0.32-0.583-0.506-1.116-1.003-1.599
				C57.893,112.075,56.399,111.665,55.704,111.839z M57.585,109.509c-0.269,0.35-0.423,1.043-1.188,1.622
				c1.007,0.1,1.881,0.483,2.486,1.112c0.937,0.97,1.55,2.35,3.503,2.808c-3.829-2.312-2.941-4.934-2.717-7.263
				C59.186,108.061,58.505,108.499,57.585,109.509z M61.073,103.138c-0.116-0.48-0.612-0.855-1.124-1.313
				c-0.994-0.893-1.437-0.852-2.12-1.119c1.413,1.23,1.675,1.88,2.263,3.64c0.142,0.422,0.212,2.132,0.092,2.597
				c0.01-0.008,1.118-0.832,1.285-1.01C60.877,104.662,61.236,103.806,61.073,103.138z M61.793,106.597
				c-0.397,0.295-1.254,0.632-1.671,1.012c-0.079,1.326-0.319,3.393-0.196,3.199c0.528-0.83,3.619-2.814,3.601-2.838
				C62.984,107.769,62.191,107.141,61.793,106.597z"/>
		</g>
	</g>
	<g>
		<g>
			<path fill="#CC3399" d="M100.191,83.881c-0.311-0.938-1.573-1.288-2.24-0.818c-0.138,0.098-0.272,0.13-0.724,0.096
				c0,0,3.902,2.239,3.844,2.222C101.105,84.908,100.499,84.803,100.191,83.881z"/>
			<path fill="#CC3399" d="M96.397,82.679c0.07-0.128,0.168-0.254,0.307-0.375c0.096-0.05,0.283-0.236,1.035-0.428
				c0.247-0.062,0.505-0.094,0.749-0.094c1.053-0.002,1.943,0.492,2.649,1.384c0.176,0.223,0.827,1.33,0.847,2.716
				c0.185,0.133,0.305,0.223,0.605,0.374c0.771,0.297,2.001,0.591,2.913,1.054c1.218,0.545,1.743,1.686,3.193,2.471
				c0.694-1.117,1.108-1.063,1.451-4.318c2.305-2.621,3.51-6.313,3.406-8.402c0.983-2.218,1.848-4.652,1.147-7.32
				c-0.751-1.982-1.975-2.828-3.301-3.49c-0.275-0.138,1.16-0.941,4.197,1.551c-1.146-1.721-3.648-3.104-5.341-2.106
				c-1.467-0.358-2.66-0.429-4.203-0.008c-1.953-1.862-6.356,3.5-6.386,7.843c-0.124,3.238,1.946,6.775,6.527,7.537
				c-0.857,0.186-1.849,0.396-2.575,0.745c-0.644-0.343-1.773-1.159-2.389-1.892c-1.102-1.311-1.887-3.957-2.133-5.951
				c-0.108,2.484-1.316,2.275-0.764,6.849c-0.895,0.04-2.222,0.709-2.621,1.47L96.397,82.679z M108.606,88.909
				c-0.313-0.276-2.106-1.607-2.465-1.847c-1.075-0.722-1.581-0.739-3.277-1.103c0.229-0.166,2.243-1.03,2.547-1.161
				C108.438,83.492,109.059,88.489,108.606,88.909z M110.075,66.556c6.306,2.498,4.186,8.771,1.255,11.767
				c0.438-0.9,0.749-1.909,0.309-3.078c-0.094-0.243-0.311-0.701-0.497-0.847c1.441-3.374-0.3-5.154-2.252-5.973
				c-1.545-0.646-3.679-0.029-5.629,2.051C104.541,64.66,109.591,66.364,110.075,66.556z M108.403,73.134
				c-2.939,0.742-2.771,2.436-4.1,2.809c-0.813-1.182-1.063-1.781-1.197-4.892C103.47,71.61,105.35,73.498,108.403,73.134z
				 M109.092,72.624c-1.19-0.598-1.537-0.209-2.761-0.341c-0.5-0.056-1.612-0.32-3.051-1.534c1.778-1.396,3.942-2.274,5.734-1.379
				c1.3,0.647,2.817,2.445,1.907,4.867C110.922,74.267,110.012,73.086,109.092,72.624z M108.782,73.444
				c0.965,0.476,1.788,1.271,2.042,2.783c-0.351,1.459-3.94,3.019-6.253,0.131C106.886,75.821,106.127,74.356,108.782,73.444z
				 M100.742,70.696c0.675-1.369,1.62-3.02,2.55-3.932c1.437-1.406,1.281-0.324,1.223-0.062c-4.946,6.793,0.146,14.884,6.329,10.751
				c-0.551,2.463-2.231,2.895-3.209,2.988C100.952,81.087,99.518,74.629,100.742,70.696z M109.665,80.685
				c1.918-0.706,2.683-2.358,2.989-2.576c0.188,1.793-0.832,5.092-2.842,6.881c-0.347-0.571-0.718-0.995-0.886-1.67
				C108.774,82.698,109.164,81.196,109.665,80.685z M106.705,81.149c0.436-0.061,1.113,0.155,1.997-0.22
				c-0.418,0.925-0.521,1.872-0.279,2.712c0.373,1.295,1.261,2.517,0.681,4.438c-0.087-4.473-2.803-5.015-4.931-5.986
				C104.648,81.813,105.367,81.441,106.705,81.149z M99.44,80.983c-0.356-0.338-0.433-0.957-0.571-1.628
				c-0.277-1.308-0.021-1.673,0.089-2.396c0.36,1.838,0.789,2.391,2.021,3.779c0.296,0.332,1.743,1.248,2.205,1.375
				c-0.014,0.006-1.28,0.554-1.52,0.609C100.862,81.577,99.94,81.46,99.44,80.983z M102.077,83.339
				c0.453-0.199,1.176-0.772,1.713-0.943c1.188,0.594,3.097,1.42,2.869,1.432c-0.983,0.041-4.248,1.727-4.261,1.7
				C102.497,84.956,102.351,83.952,102.077,83.339z"/>
		</g>
		<g>
			<path fill="#CC3399" d="M99.343,85.353c-0.967,0.197-1.902-0.721-1.828-1.533c0.016-0.168-0.023-0.301-0.279-0.678
				c0,0,3.889,2.264,3.848,2.219C100.69,85.627,100.295,85.155,99.343,85.353z"/>
			<path fill="#CC3399" d="M96.406,82.666c-0.078,0.126-0.136,0.271-0.172,0.452c0.006,0.107-0.065,0.364,0.147,1.109
				c0.068,0.246,0.172,0.483,0.293,0.698c0.523,0.914,1.397,1.436,2.521,1.601c0.281,0.042,1.565,0.052,2.776-0.625
				c0.208,0.094,0.345,0.153,0.627,0.334c0.642,0.521,1.512,1.443,2.367,2c1.083,0.782,2.334,0.666,3.738,1.529
				c-0.621,1.162-0.367,1.49-3.016,3.416c-1.116,3.307-3.712,6.197-5.573,7.151c-1.429,1.961-3.104,3.928-5.765,4.657
				c-2.095,0.338-3.437-0.297-4.673-1.117c-0.257-0.17-0.237,1.475,3.44,2.86c-2.063-0.132-4.512-1.606-4.492-3.573
				c-1.046-1.089-1.702-2.089-2.11-3.634c-2.588-0.763-0.145-7.257,3.6-9.455c2.741-1.726,6.839-1.7,9.79,1.888
				c-0.268-0.836-0.581-1.802-0.642-2.604c-0.62-0.387-1.889-0.957-2.835-1.124c-1.684-0.298-4.368,0.343-6.217,1.13
				c2.095-1.336,1.312-2.278,5.548-4.086c-0.411-0.795-0.496-2.277-0.037-3.007L96.406,82.666z M107.905,90.124
				c-0.396-0.133-2.446-1.021-2.832-1.211c-1.161-0.57-1.43-1-2.594-2.289c-0.029,0.283,0.23,2.459,0.27,2.787
				C103.13,92.685,107.768,90.726,107.905,90.124z M89.283,102.571c5.313,4.213,9.688-0.76,10.814-4.796
				c-0.559,0.828-1.278,1.604-2.51,1.806c-0.259,0.042-0.762,0.082-0.983-0.006c-2.2,2.935-4.612,2.318-6.299,1.035
				c-1.332-1.014-1.866-3.17-1.038-5.9C84.871,98.729,88.872,102.247,89.283,102.571z M94.142,97.835
				c-0.826-2.918,0.722-3.617,0.385-4.953c-1.432-0.115-2.076-0.029-4.838,1.409C90.355,94.325,92.932,95.011,94.142,97.835z
				 M94.044,98.688c-1.11-0.733-0.947-1.227-1.675-2.222c-0.296-0.406-1.083-1.234-2.854-1.874c-0.32,2.238,0,4.552,1.672,5.654
				c1.21,0.8,3.526,1.216,5.168-0.78C96.382,99.45,94.903,99.253,94.044,98.688z M94.601,98.007
				c0.894,0.597,1.996,0.914,3.432,0.378c1.089-1.033,0.644-4.922-3.014-5.481C95.712,95.178,94.063,95.253,94.601,98.007z
				 M88.201,92.42c-0.851,1.269-1.808,2.913-2.13,4.175c-0.501,1.943,0.357,1.271,0.557,1.087
				c3.411-7.679,12.964-7.314,12.476,0.107c1.856-1.708,1.394-3.378,0.984-4.274C97.305,87.404,90.994,89.394,88.201,92.42z
				 M101.312,95.151c0.349,2.016-0.7,3.502-0.737,3.879c1.646-0.734,3.995-3.268,4.538-5.904c-0.664-0.014-1.22-0.121-1.888,0.07
				C102.61,93.372,101.507,94.462,101.312,95.151z M100.233,92.356c0.17,0.406,0.692,0.888,0.812,1.84
				c0.589-0.822,1.357-1.389,2.206-1.6c1.31-0.324,2.811-0.165,4.184-1.629c-3.918,2.16-5.744,0.082-7.649-1.277
				C99.778,90.245,99.818,91.052,100.233,92.356z M96.46,86.148c-0.473-0.14-1.046,0.104-1.699,0.318
				c-1.27,0.414-1.457,0.818-2.028,1.276c1.771-0.609,2.465-0.512,4.283-0.141c0.436,0.091,1.952,0.883,2.293,1.222
				c0-0.017-0.159-1.388-0.231-1.62C97.683,87.082,97.121,86.341,96.46,86.148z M99.817,87.255c0.055,0.492-0.083,1.402,0.039,1.953
				c1.11,0.733,2.779,1.974,2.674,1.771c-0.456-0.874-0.629-4.542-0.659-4.54C101.426,86.81,100.486,87.185,99.817,87.255z"/>
		</g>
	</g>
	<g>
		<g>
			<path fill="#CC3399" d="M28.797,85.298c0.967,0.201,1.903-0.719,1.827-1.531c-0.014-0.166,0.024-0.3,0.279-0.675
				c0,0-3.888,2.261-3.844,2.219C27.45,85.577,27.846,85.103,28.797,85.298z"/>
			<path fill="#CC3399" d="M31.737,82.614c0.075,0.126,0.133,0.271,0.17,0.452c-0.005,0.109,0.065,0.364-0.146,1.11
				c-0.07,0.246-0.172,0.484-0.295,0.697c-0.523,0.912-1.396,1.436-2.521,1.601c-0.281,0.04-1.565,0.052-2.775-0.622
				c-0.208,0.093-0.347,0.15-0.627,0.334c-0.643,0.521-1.513,1.439-2.367,1.998c-1.084,0.781-2.334,0.666-3.738,1.529
				c0.621,1.161,0.367,1.491,3.013,3.417c1.119,3.305,3.716,6.196,5.577,7.149c1.427,1.961,3.103,3.928,5.763,4.656
				c2.095,0.339,3.438-0.296,4.673-1.114c0.257-0.171,0.237,1.476-3.44,2.858c2.063-0.133,4.512-1.606,4.494-3.572
				c1.043-1.09,1.7-2.088,2.108-3.635c2.589-0.76,0.147-7.257-3.597-9.455c-2.744-1.726-6.841-1.698-9.792,1.886
				c0.268-0.833,0.581-1.8,0.642-2.601c0.62-0.389,1.888-0.957,2.832-1.125c1.686-0.298,4.368,0.345,6.22,1.129
				c-2.096-1.334-1.313-2.277-5.55-4.085c0.415-0.794,0.498-2.278,0.039-3.004L31.737,82.614z M20.236,90.072
				c0.395-0.133,2.444-1.021,2.831-1.21c1.161-0.571,1.431-1.002,2.596-2.288c0.027,0.28-0.232,2.457-0.27,2.786
				C25.011,92.635,20.374,90.674,20.236,90.072z M38.861,102.521c-5.317,4.212-9.692-0.762-10.818-4.797
				c0.559,0.83,1.279,1.604,2.512,1.808c0.257,0.04,0.761,0.08,0.979-0.01c2.204,2.937,4.614,2.319,6.301,1.038
				c1.332-1.014,1.865-3.17,1.039-5.9C43.269,98.676,39.268,102.197,38.861,102.521z M33.999,97.783
				c0.828-2.917-0.722-3.617-0.385-4.956c1.434-0.111,2.075-0.029,4.838,1.41C37.784,94.273,35.209,94.958,33.999,97.783z
				 M34.096,98.634c1.111-0.73,0.948-1.225,1.675-2.221c0.298-0.403,1.082-1.233,2.854-1.875c0.32,2.24,0,4.554-1.673,5.656
				c-1.21,0.803-3.526,1.217-5.168-0.78C31.758,99.4,33.236,99.201,34.096,98.634z M33.542,97.956
				c-0.896,0.598-1.996,0.912-3.434,0.377c-1.09-1.033-0.644-4.922,3.015-5.48C32.431,95.126,34.078,95.201,33.542,97.956z
				 M39.939,92.368c0.85,1.268,1.807,2.912,2.131,4.175c0.501,1.943-0.358,1.271-0.557,1.089c-3.41-7.681-12.965-7.316-12.477,0.105
				c-1.856-1.708-1.392-3.378-0.984-4.274C30.834,87.353,37.146,89.342,39.939,92.368z M26.832,95.1
				c-0.351,2.015,0.7,3.504,0.736,3.878c-1.648-0.734-3.996-3.267-4.541-5.902c0.668-0.012,1.223-0.122,1.888,0.069
				C25.53,93.321,26.636,94.411,26.832,95.1z M27.907,92.304c-0.166,0.408-0.69,0.889-0.812,1.84
				c-0.589-0.822-1.358-1.385-2.206-1.597c-1.308-0.324-2.81-0.167-4.184-1.63c3.918,2.162,5.744,0.082,7.649-1.276
				C28.362,90.194,28.322,91.003,27.907,92.304z M31.68,86.097c0.475-0.14,1.048,0.105,1.699,0.318
				c1.271,0.414,1.457,0.82,2.028,1.278c-1.772-0.611-2.465-0.514-4.283-0.142c-0.435,0.088-1.95,0.883-2.295,1.221
				c0.003-0.016,0.163-1.386,0.233-1.621C30.458,87.03,31.021,86.292,31.68,86.097z M28.324,87.204
				c-0.057,0.489,0.082,1.4-0.04,1.955c-1.108,0.73-2.778,1.971-2.674,1.768c0.457-0.872,0.631-4.541,0.66-4.539
				C26.715,86.757,27.658,87.134,28.324,87.204z"/>
		</g>
		<g>
			<path fill="#CC3399" d="M27.949,83.829c0.311-0.936,1.574-1.289,2.239-0.816c0.141,0.098,0.274,0.127,0.727,0.096
				c0,0-3.902,2.236-3.845,2.222C27.034,84.856,27.64,84.751,27.949,83.829z"/>
			<path fill="#CC3399" d="M31.743,82.626c-0.07-0.127-0.168-0.252-0.306-0.374c-0.097-0.048-0.281-0.237-1.033-0.426
				c-0.249-0.063-0.507-0.094-0.752-0.096c-1.053-0.002-1.943,0.492-2.647,1.384c-0.177,0.221-0.827,1.33-0.848,2.715
				c-0.185,0.137-0.306,0.224-0.603,0.377c-0.774,0.297-2.007,0.588-2.916,1.051c-1.219,0.546-1.743,1.688-3.192,2.473
				c-0.698-1.12-1.108-1.063-1.452-4.318c-2.306-2.621-3.511-6.314-3.405-8.403c-0.985-2.218-1.85-4.65-1.15-7.32
				c0.754-1.983,1.975-2.827,3.303-3.49c0.274-0.136-1.159-0.94-4.197,1.551c1.147-1.72,3.646-3.104,5.34-2.106
				c1.468-0.358,2.66-0.426,4.203-0.008c1.954-1.861,6.358,3.502,6.388,7.842c0.125,3.24-1.946,6.775-6.53,7.538
				c0.858,0.185,1.852,0.396,2.577,0.745c0.644-0.343,1.773-1.157,2.389-1.893c1.102-1.309,1.888-3.955,2.134-5.95
				c0.106,2.485,1.315,2.275,0.763,6.849c0.895,0.042,2.221,0.709,2.623,1.47L31.743,82.626z M19.534,88.856
				c0.313-0.275,2.106-1.607,2.465-1.846c1.075-0.721,1.583-0.738,3.278-1.104c-0.231-0.165-2.244-1.029-2.549-1.16
				C19.706,83.44,19.082,88.438,19.534,88.856z M18.066,66.505c-6.309,2.498-4.188,8.771-1.256,11.766
				c-0.438-0.898-0.749-1.91-0.307-3.076c0.092-0.245,0.309-0.701,0.495-0.848c-1.44-3.373,0.3-5.155,2.253-5.974
				c1.544-0.647,3.678-0.032,5.63,2.051C23.599,64.608,18.55,66.313,18.066,66.505z M19.737,73.081
				c2.939,0.746,2.772,2.436,4.1,2.811c0.814-1.182,1.063-1.782,1.197-4.895C24.67,71.559,22.79,73.446,19.737,73.081z
				 M19.048,72.571c1.19-0.595,1.537-0.206,2.762-0.34c0.499-0.054,1.609-0.32,3.05-1.535c-1.778-1.396-3.941-2.275-5.733-1.38
				c-1.299,0.649-2.816,2.447-1.908,4.868C17.218,74.216,18.129,73.034,19.048,72.571z M19.359,73.394
				c-0.964,0.477-1.788,1.273-2.043,2.784c0.35,1.458,3.94,3.017,6.254,0.13C21.254,75.77,22.012,74.306,19.359,73.394z
				 M27.397,70.647c-0.674-1.372-1.618-3.022-2.549-3.935c-1.437-1.405-1.28-0.325-1.221-0.062
				c4.944,6.793-0.147,14.885-6.331,10.751c0.552,2.462,2.229,2.896,3.209,2.99C27.19,81.036,28.623,74.577,27.397,70.647z
				 M18.477,80.634c-1.919-0.705-2.684-2.359-2.99-2.578c-0.188,1.793,0.832,5.092,2.843,6.883c0.345-0.572,0.715-0.998,0.884-1.669
				C19.369,82.646,18.977,81.147,18.477,80.634z M21.437,81.097c-0.435-0.057-1.115,0.156-2.001-0.217
				c0.421,0.92,0.524,1.87,0.283,2.71c-0.375,1.296-1.261,2.517-0.681,4.438c0.088-4.475,2.801-5.018,4.931-5.985
				C23.492,81.759,22.772,81.39,21.437,81.097z M28.699,80.933c0.358-0.339,0.434-0.956,0.574-1.629
				c0.275-1.309,0.021-1.67-0.091-2.396c-0.36,1.838-0.789,2.392-2.021,3.778c-0.294,0.333-1.739,1.249-2.202,1.379
				c0.013,0.006,1.282,0.551,1.519,0.606C27.28,81.525,28.2,81.408,28.699,80.933z M26.062,83.288
				c-0.452-0.2-1.173-0.773-1.712-0.944c-1.188,0.595-3.096,1.419-2.869,1.431c0.985,0.043,4.247,1.727,4.261,1.699
				C25.644,84.902,25.79,83.9,26.062,83.288z"/>
		</g>
	</g>
</g>
<g>
	<polygon fill="none" stroke="#CC3399" stroke-width="2" points="64.177,95.847 92.235,47.245 36.118,47.246 	"/>
	<polygon fill="none" stroke="#CC3399" stroke-width="2" points="64.059,31.263 35.998,79.864 92.117,79.862 	"/>
	<path fill="#CC3399" d="M64.059,29.881c-18.811,0-34.058,15.247-34.058,34.056c0,18.81,15.247,34.056,34.058,34.056
		c18.807,0,34.056-15.246,34.056-34.056C98.114,45.127,82.865,29.881,64.059,29.881z M64.059,96.337
		c-17.896,0-32.4-14.5-32.4-32.397c0-17.895,14.505-32.402,32.4-32.402c17.895,0,32.399,14.507,32.399,32.402
		C96.458,81.837,81.953,96.337,64.059,96.337z"/>
</g>
<path fill="#CC3399" d="M64.059-0.063c-35.35,0-64.001,28.652-64.001,64c0,35.35,28.651,64,64.001,64
	c35.341,0,63.999-28.65,63.999-64C128.058,28.589,99.399-0.063,64.059-0.063z M64.059,125.938
	c-34.244,0-62.001-27.746-62.001-61.999c0-34.24,27.757-62.002,62.001-62.002c34.242,0,61.999,27.762,61.999,62.002
	C126.058,98.191,98.301,125.938,64.059,125.938z"/>
<circle fill="none" cx="64.057" cy="63.936" r="53.569"/>
<text transform="matrix(0.9992 0.0408 -0.0408 0.9992 64.8955 10.3667)" fill="#CC3399" font-family="'Constantia-Bold'" font-size="7.9031">E</text>
<text transform="matrix(0.9845 0.1754 -0.1754 0.9845 71.5537 10.8608)" fill="#CC3399" font-family="'Constantia-Bold'" font-size="7.9031">N</text>
<text transform="matrix(0.9485 0.3168 -0.3168 0.9485 79.2383 12.5239)" fill="#CC3399" font-family="'Constantia-Bold'" font-size="7.9031">K</text>
<text transform="matrix(0.8951 0.4459 -0.4459 0.8951 86.4307 15.2305)" fill="#CC3399" font-family="'Constantia-Bold'" font-size="7.9031">A</text>
<text transform="matrix(0.8236 0.5671 -0.5671 0.8236 92.7549 18.6602)" fill="#CC3399" font-family="'Constantia-Bold'" font-size="7.9031">N</text>
<text transform="matrix(0.7567 0.6538 -0.6538 0.7567 99.0938 23.4224)" fill="#CC3399" font-family="'Constantia-Bold'" font-size="7.9031"> </text>
<text transform="matrix(0.7075 0.7067 -0.7067 0.7075 101.9424 26.0767)" fill="#CC3399" font-family="'Constantia-Bold'" font-size="7.9031"> </text>
<text transform="matrix(0.6466 0.7628 -0.7628 0.6467 104.5742 28.9009)" fill="#CC3399" font-family="'Constantia-Bold'" font-size="7.9031">I</text>
<text transform="matrix(0.564 0.8258 -0.8258 0.564 107.7031 32.8667)" fill="#CC3399" font-family="'Constantia-Bold'" font-size="7.9031">S</text>
<text transform="matrix(0.4844 0.8748 -0.8748 0.4844 110.9688 38.0684)" fill="#CC3399" font-family="'Constantia-Bold'" font-size="7.9031"> </text>
<text transform="matrix(0.4193 0.9078 -0.9078 0.4193 112.7256 41.543)" fill="#CC3399" font-family="'Constantia-Bold'" font-size="7.9031"> </text>
<text transform="matrix(0.3224 0.9466 -0.9466 0.3224 114.2363 45.0913)" fill="#CC3399" font-family="'Constantia-Bold'" font-size="7.9031">A</text>
<text transform="matrix(0.1855 0.9826 -0.9826 0.1855 116.3174 51.979)" fill="#CC3399" font-family="'Constantia-Bold'" font-size="7.9031">N</text>
<text transform="matrix(0.077 0.997 -0.997 0.077 117.4609 59.8003)" fill="#CC3399" font-family="'Constantia-Bold'" font-size="7.9031"> </text>
<text transform="matrix(0.0198 0.9998 -0.9998 0.0198 117.6055 63.6636)" fill="#CC3399" font-family="'Constantia-Bold'" font-size="7.9031"> </text>
<text transform="matrix(-0.092 0.9957 -0.9958 -0.092 117.5146 67.5479)" fill="#CC3399" font-family="'Constantia-Bold'" font-size="7.9031">E</text>
<text transform="matrix(-0.2215 0.9752 -0.9752 -0.2215 116.6689 74.1748)" fill="#CC3399" font-family="'Constantia-Bold'" font-size="7.9031">X</text>
<text transform="matrix(-0.3506 0.9365 -0.9365 -0.3506 114.7764 81.2686)" fill="#CC3399" font-family="'Constantia-Bold'" font-size="7.9031">P</text>
<text transform="matrix(-0.4659 0.8849 -0.8849 -0.4659 112.082 87.7168)" fill="#CC3399" font-family="'Constantia-Bold'" font-size="7.9031">L</text>
<text transform="matrix(-0.5581 0.8297 -0.8298 -0.5581 108.8398 93.3359)" fill="#CC3399" font-family="'Constantia-Bold'" font-size="7.9031">I</text>
<text transform="matrix(-0.6487 0.7611 -0.7611 -0.6487 105.8857 97.4346)" fill="#CC3399" font-family="'Constantia-Bold'" font-size="7.9031">C</text>
<text transform="matrix(-0.7306 0.6828 -0.6828 -0.7306 101.0254 102.6982)" fill="#CC3399" font-family="'Constantia-Bold'" font-size="7.9031">I</text>
<text transform="matrix(-0.8014 0.5981 -0.5981 -0.8014 97.2334 106.0137)" fill="#CC3399" font-family="'Constantia-Bold'" font-size="7.9031">T</text>
<text transform="matrix(-0.8571 0.5152 -0.5152 -0.8571 91.5713 109.8984)" fill="#CC3399" font-family="'Constantia-Bold'" font-size="7.9031"> </text>
<text transform="matrix(-0.8922 0.4515 -0.4516 -0.8922 88.1699 111.7754)" fill="#CC3399" font-family="'Constantia-Bold'" font-size="7.9031"> </text>
<text transform="matrix(-0.9343 0.3565 -0.3565 -0.9343 84.6934 113.4053)" fill="#CC3399" font-family="'Constantia-Bold'" font-size="7.9031">A</text>
<text transform="matrix(-0.9753 0.2207 -0.2207 -0.9753 77.8789 115.7363)" fill="#CC3399" font-family="'Constantia-Bold'" font-size="7.9031">N</text>
<text transform="matrix(-0.9973 0.0731 -0.0731 -0.9973 70.1494 117.1973)" fill="#CC3399" font-family="'Constantia-Bold'" font-size="7.9031">D</text>
<text transform="matrix(-0.9993 -0.0376 0.0376 -0.9993 61.959 117.4561)" fill="#CC3399" font-family="'Constantia-Bold'" font-size="7.9031"> </text>
<text transform="matrix(-0.994 -0.1093 0.1093 -0.994 58.0923 117.167)" fill="#CC3399" font-family="'Constantia-Bold'" font-size="7.9031"> </text>
<text transform="matrix(-0.9795 -0.2016 0.2016 -0.9795 54.2744 116.6162)" fill="#CC3399" font-family="'Constantia-Bold'" font-size="7.9031">S</text>
<text transform="matrix(-0.9529 -0.3032 0.3032 -0.9529 48.3281 115.1523)" fill="#CC3399" font-family="'Constantia-Bold'" font-size="7.9031">I</text>
<text transform="matrix(-0.9037 -0.4281 0.4281 -0.9037 43.5977 113.5264)" fill="#CC3399" font-family="'Constantia-Bold'" font-size="7.9031">M</text>
<text transform="matrix(-0.8285 -0.56 0.56 -0.8285 35.3813 109.208)" fill="#CC3399" font-family="'Constantia-Bold'" font-size="7.9031">P</text>
<text transform="matrix(-0.7518 -0.6594 0.6594 -0.7518 29.7236 105.0664)" fill="#CC3399" font-family="'Constantia-Bold'" font-size="7.9031">L</text>
<text transform="matrix(-0.6658 -0.7461 0.7461 -0.6658 25.0059 100.6182)" fill="#CC3399" font-family="'Constantia-Bold'" font-size="7.9031">E</text>
<text transform="matrix(-0.5894 -0.8078 0.8078 -0.5894 20.7339 95.4346)" fill="#CC3399" font-family="'Constantia-Bold'" font-size="7.9031"> </text>
<text transform="matrix(-0.5293 -0.8484 0.8484 -0.5293 18.5601 92.2109)" fill="#CC3399" font-family="'Constantia-Bold'" font-size="7.9031"> </text>
<text transform="matrix(-0.4583 -0.8888 0.8888 -0.4584 16.6289 88.8477)" fill="#CC3399" font-family="'Constantia-Bold'" font-size="7.9031">J</text>
<text transform="matrix(-0.3637 -0.9315 0.9315 -0.3637 14.5562 84.458)" fill="#CC3399" font-family="'Constantia-Bold'" font-size="7.9031">a</text>
<text transform="matrix(-0.2549 -0.967 0.967 -0.2549 12.5303 78.6465)" fill="#CC3399" font-family="'Constantia-Bold'" font-size="7.9031">v</text>
<text transform="matrix(-0.1425 -0.9898 0.9898 -0.1425 11.2051 72.749)" fill="#CC3399" font-family="'Constantia-Bold'" font-size="7.9031">a</text>
<text transform="matrix(-0.0494 -0.9988 0.9988 -0.0494 10.5605 66.5781)" fill="#CC3399" font-family="'Constantia-Bold'" font-size="7.9031"> </text>
<text transform="matrix(0.0218 -0.9998 0.9998 0.0218 10.5117 62.6968)" fill="#CC3399" font-family="'Constantia-Bold'" font-size="7.9031"> </text>
<text transform="matrix(0.1172 -0.9931 0.9931 0.1172 10.7241 58.8203)" fill="#CC3399" font-family="'Constantia-Bold'" font-size="7.9031">F</text>
<text transform="matrix(0.2446 -0.9696 0.9696 0.2446 11.6816 52.5347)" fill="#CC3399" font-family="'Constantia-Bold'" font-size="7.9031">R</text>
<text transform="matrix(0.3757 -0.9267 0.9267 0.3757 13.7778 45.3608)" fill="#CC3399" font-family="'Constantia-Bold'" font-size="7.9031">A</text>
<text transform="matrix(0.5137 -0.858 0.858 0.5137 16.6812 38.7827)" fill="#CC3399" font-family="'Constantia-Bold'" font-size="7.9031">M</text>
<text transform="matrix(0.635 -0.7725 0.7725 0.635 21.7773 31.0229)" fill="#CC3399" font-family="'Constantia-Bold'" font-size="7.9031">E</text>
<text transform="matrix(0.7442 -0.668 0.668 0.7442 26.1455 25.9951)" fill="#CC3399" font-family="'Constantia-Bold'" font-size="7.9031">W</text>
<text transform="matrix(0.8452 -0.5344 0.5344 0.8452 33.543 19.855)" fill="#CC3399" font-family="'Constantia-Bold'" font-size="7.9031">O</text>
<text transform="matrix(0.915 -0.4033 0.4033 0.9151 40.832 15.6274)" fill="#CC3399" font-family="'Constantia-Bold'" font-size="7.9031">R</text>
<text transform="matrix(0.9631 -0.2691 0.2691 0.9631 47.7837 12.8579)" fill="#CC3399" font-family="'Constantia-Bold'" font-size="7.9031">K</text>
<text transform="matrix(0.9871 -0.16 0.16 0.9871 55.2852 11.0908)" fill="#CC3399" font-family="'Constantia-Bold'" font-size="7.9031">.</text>
</svg>
